<?xml version="1.0" encoding="us-ascii" standalone="no"?><svg xmlns="http://www.w3.org/2000/svg" xmlns:xlink="http://www.w3.org/1999/xlink" contentStyleType="text/css" height="594px" preserveAspectRatio="none" style="width:853px;height:594px;background:#FFFFFF;" version="1.1" viewBox="0 0 853 594" width="853px" zoomAndPan="magnify"><defs/><g><rect fill="#FFFFFF" height="14" style="stroke:#181818;stroke-width:1.0;" width="10" x="317.5" y="486.1523"/><rect fill="#FFFFFF" height="14" style="stroke:#181818;stroke-width:1.0;" width="10" x="317.5" y="548.0742"/><rect fill="#FFFFFF" height="14" style="stroke:#181818;stroke-width:1.0;" width="10" x="406.5" y="71.9121"/><rect fill="#FFFFFF" height="459.8711" style="stroke:#181818;stroke-width:1.0;" width="10" x="510" y="117.2031"/><rect fill="#FFBBBB" height="188.4941" style="stroke:#181818;stroke-width:1.0;" width="10" x="515" y="228.0762"/><rect fill="#FFFFFF" height="25" style="stroke:#181818;stroke-width:1.0;" width="10" x="520" y="347.2793"/><rect fill="#FFFFFF" height="14" style="stroke:#181818;stroke-width:1.0;" width="10" x="687" y="148.4941"/><rect fill="#FFFFFF" height="33.6211" style="stroke:#181818;stroke-width:1.0;" width="10" x="796" y="274.3672"/><rect fill="none" height="392.5801" style="stroke:#000000;stroke-width:1.5;" width="836.5" x="10" y="177.4941"/><line style="stroke:#181818;stroke-width:0.5;stroke-dasharray:5.0,5.0;" x1="57" x2="57" y1="38.6211" y2="587.0742"/><line style="stroke:#181818;stroke-width:0.5;stroke-dasharray:5.0,5.0;" x1="322.5" x2="322.5" y1="38.6211" y2="587.0742"/><line style="stroke:#181818;stroke-width:0.5;stroke-dasharray:5.0,5.0;" x1="411.5" x2="411.5" y1="38.6211" y2="587.0742"/><line style="stroke:#181818;stroke-width:0.5;stroke-dasharray:5.0,5.0;" x1="514.5" x2="514.5" y1="38.6211" y2="587.0742"/><line style="stroke:#181818;stroke-width:0.5;stroke-dasharray:5.0,5.0;" x1="691.5" x2="691.5" y1="38.6211" y2="587.0742"/><line style="stroke:#181818;stroke-width:0.5;stroke-dasharray:5.0,5.0;" x1="800.5" x2="800.5" y1="272.8867" y2="587.0742"/><rect fill="#E2E2F0" height="32.6211" rx="2.5" ry="2.5" style="stroke:#181818;stroke-width:0.5;" width="75" x="20" y="5"/><text fill="#000000" font-family="sans-serif" font-size="14" lengthAdjust="spacing" textLength="61" x="27" y="27.1074">ByteCeps</text><rect fill="#E2E2F0" height="32.6211" rx="2.5" ry="2.5" style="stroke:#181818;stroke-width:0.5;" width="98" x="273.5" y="5"/><text fill="#000000" font-family="sans-serif" font-size="14" lengthAdjust="spacing" textLength="84" x="280.5" y="27.1074">UserInterface</text><rect fill="#E2E2F0" height="32.6211" rx="2.5" ry="2.5" style="stroke:#181818;stroke-width:0.5;" width="60" x="381.5" y="5"/><text fill="#000000" font-family="sans-serif" font-size="14" lengthAdjust="spacing" textLength="46" x="388.5" y="27.1074">:Parser</text><rect fill="#E2E2F0" height="32.6211" rx="2.5" ry="2.5" style="stroke:#181818;stroke-width:0.5;" width="127" x="451.5" y="5"/><text fill="#000000" font-family="sans-serif" font-size="14" lengthAdjust="spacing" textLength="113" x="458.5" y="27.1074">:ExerciseManager</text><rect fill="#E2E2F0" height="32.6211" rx="2.5" ry="2.5" style="stroke:#181818;stroke-width:0.5;" width="127" x="628.5" y="5"/><text fill="#000000" font-family="sans-serif" font-size="14" lengthAdjust="spacing" textLength="113" x="635.5" y="27.1074">:ExerciseValidator</text><rect fill="#FFFFFF" height="14" style="stroke:#181818;stroke-width:1.0;" width="10" x="317.5" y="486.1523"/><rect fill="#FFFFFF" height="14" style="stroke:#181818;stroke-width:1.0;" width="10" x="317.5" y="548.0742"/><rect fill="#FFFFFF" height="14" style="stroke:#181818;stroke-width:1.0;" width="10" x="406.5" y="71.9121"/><rect fill="#FFFFFF" height="459.8711" style="stroke:#181818;stroke-width:1.0;" width="10" x="510" y="117.2031"/><rect fill="#FFBBBB" height="188.4941" style="stroke:#181818;stroke-width:1.0;" width="10" x="515" y="228.0762"/><rect fill="#FFFFFF" height="25" style="stroke:#181818;stroke-width:1.0;" width="10" x="520" y="347.2793"/><rect fill="#FFFFFF" height="14" style="stroke:#181818;stroke-width:1.0;" width="10" x="687" y="148.4941"/><rect fill="#FFFFFF" height="33.6211" style="stroke:#181818;stroke-width:1.0;" width="10" x="796" y="274.3672"/><polygon fill="#181818" points="394.5,67.9121,404.5,71.9121,394.5,75.9121" style="stroke:#181818;stroke-width:1.0;"/><line style="stroke:#181818;stroke-width:1.0;" x1="57.5" x2="400.5" y1="71.9121" y2="71.9121"/><text fill="#000000" font-family="sans-serif" font-size="13" lengthAdjust="spacing" textLength="121" x="64.5" y="66.6494">parseInput(userInput)</text><polygon fill="#181818" points="68.5,81.9121,58.5,85.9121,68.5,89.9121" style="stroke:#181818;stroke-width:1.0;"/><line style="stroke:#181818;stroke-width:1.0;stroke-dasharray:2.0,2.0;" x1="62.5" x2="410.5" y1="85.9121" y2="85.9121"/><polygon fill="#181818" points="498,113.2031,508,117.2031,498,121.2031" style="stroke:#181818;stroke-width:1.0;"/><line style="stroke:#181818;stroke-width:1.0;" x1="57.5" x2="504" y1="117.2031" y2="117.2031"/><text fill="#000000" font-family="sans-serif" font-size="13" lengthAdjust="spacing" textLength="90" x="64.5" y="111.9404">execute(parser)</text><polygon fill="#181818" points="675,144.4941,685,148.4941,675,152.4941" style="stroke:#181818;stroke-width:1.0;"/><line style="stroke:#181818;stroke-width:1.0;" x1="520" x2="681" y1="148.4941" y2="148.4941"/><text fill="#000000" font-family="sans-serif" font-size="13" lengthAdjust="spacing" textLength="148" x="527" y="143.2314">validateCommand(Parser)</text><polygon fill="#181818" points="531,158.4941,521,162.4941,531,166.4941" style="stroke:#181818;stroke-width:1.0;"/><line style="stroke:#181818;stroke-width:1.0;stroke-dasharray:2.0,2.0;" x1="525" x2="691" y1="162.4941" y2="162.4941"/><path d="M10,177.4941 L71,177.4941 L71,186.7852 L61,196.7852 L10,196.7852 L10,177.4941 " fill="#EEEEEE" style="stroke:#000000;stroke-width:1.5;"/><rect fill="none" height="392.5801" style="stroke:#000000;stroke-width:1.5;" width="836.5" x="10" y="177.4941"/><text fill="#000000" font-family="sans-serif" font-size="13" font-weight="bold" lengthAdjust="spacing" textLength="16" x="25" y="192.5225">alt</text><text fill="#000000" font-family="sans-serif" font-size="11" font-weight="bold" lengthAdjust="spacing" textLength="126" x="86" y="191.3643">[Validation successful]</text><line style="stroke:#181818;stroke-width:1.0;" x1="520" x2="567" y1="215.0762" y2="215.0762"/><line style="stroke:#181818;stroke-width:1.0;" x1="567" x2="567" y1="215.0762" y2="228.0762"/><line style="stroke:#181818;stroke-width:1.0;" x1="526" x2="567" y1="228.0762" y2="228.0762"/><polygon fill="#181818" points="536,224.0762,526,228.0762,536,232.0762" style="stroke:#181818;stroke-width:1.0;"/><text fill="#000000" font-family="sans-serif" font-size="13" lengthAdjust="spacing" textLength="152" x="532" y="209.8135">executeAddAction(Parser)</text><polygon fill="#181818" points="753.5,260.3672,763.5,264.3672,753.5,268.3672" style="stroke:#181818;stroke-width:1.0;"/><line style="stroke:#181818;stroke-width:1.0;" x1="525" x2="759.5" y1="264.3672" y2="264.3672"/><text fill="#000000" font-family="sans-serif" font-size="13" lengthAdjust="spacing" textLength="124" x="532" y="259.1045">new(name='pushups')</text><rect fill="#E2E2F0" height="32.6211" rx="2.5" ry="2.5" style="stroke:#181818;stroke-width:0.5;" width="71" x="765.5" y="241.0762"/><text fill="#000000" font-family="sans-serif" font-size="14" lengthAdjust="spacing" textLength="57" x="772.5" y="263.1836">:Exercise</text><polygon fill="#181818" points="536,303.9883,526,307.9883,536,311.9883" style="stroke:#181818;stroke-width:1.0;"/><line style="stroke:#181818;stroke-width:1.0;stroke-dasharray:2.0,2.0;" x1="530" x2="800" y1="307.9883" y2="307.9883"/><text fill="#000000" font-family="sans-serif" font-size="13" lengthAdjust="spacing" textLength="111" x="542" y="302.7256">return newExercise</text><line style="stroke:#181818;stroke-width:1.0;" x1="525" x2="572" y1="334.2793" y2="334.2793"/><line style="stroke:#181818;stroke-width:1.0;" x1="572" x2="572" y1="334.2793" y2="347.2793"/><line style="stroke:#181818;stroke-width:1.0;" x1="531" x2="572" y1="347.2793" y2="347.2793"/><polygon fill="#181818" points="541,343.2793,531,347.2793,541,351.2793" style="stroke:#181818;stroke-width:1.0;"/><text fill="#000000" font-family="sans-serif" font-size="13" lengthAdjust="spacing" textLength="103" x="537" y="329.0166">add(newExercise)</text><line style="stroke:#181818;stroke-width:1.0;stroke-dasharray:2.0,2.0;" x1="530" x2="572" y1="371.2793" y2="371.2793"/><line style="stroke:#181818;stroke-width:1.0;stroke-dasharray:2.0,2.0;" x1="572" x2="572" y1="371.2793" y2="384.2793"/><line style="stroke:#181818;stroke-width:1.0;stroke-dasharray:2.0,2.0;" x1="525" x2="572" y1="384.2793" y2="384.2793"/><polygon fill="#181818" points="535,380.2793,525,384.2793,535,388.2793" style="stroke:#181818;stroke-width:1.0;"/><line style="stroke:#181818;stroke-width:1.0;stroke-dasharray:2.0,2.0;" x1="525" x2="567" y1="415.5703" y2="415.5703"/><line style="stroke:#181818;stroke-width:1.0;stroke-dasharray:2.0,2.0;" x1="567" x2="567" y1="415.5703" y2="428.5703"/><line style="stroke:#181818;stroke-width:1.0;stroke-dasharray:2.0,2.0;" x1="520" x2="567" y1="428.5703" y2="428.5703"/><polygon fill="#181818" points="530,424.5703,520,428.5703,530,432.5703" style="stroke:#181818;stroke-width:1.0;"/><text fill="#000000" font-family="sans-serif" font-size="13" lengthAdjust="spacing" textLength="131" x="532" y="410.3076">return messageToUser</text><polygon fill="#181818" points="68.5,450.8613,58.5,454.8613,68.5,458.8613" style="stroke:#181818;stroke-width:1.0;"/><line style="stroke:#181818;stroke-width:1.0;stroke-dasharray:2.0,2.0;" x1="62.5" x2="509" y1="454.8613" y2="454.8613"/><text fill="#000000" font-family="sans-serif" font-size="13" lengthAdjust="spacing" textLength="94" x="74.5" y="449.5986">messageToUser</text><polygon fill="#181818" points="305.5,482.1523,315.5,486.1523,305.5,490.1523" style="stroke:#181818;stroke-width:1.0;"/><line style="stroke:#181818;stroke-width:1.0;" x1="57.5" x2="311.5" y1="486.1523" y2="486.1523"/><text fill="#000000" font-family="sans-serif" font-size="13" lengthAdjust="spacing" textLength="180" x="64.5" y="480.8896">printMessage(messageToUser)</text><polygon fill="#181818" points="68.5,496.1523,58.5,500.1523,68.5,504.1523" style="stroke:#181818;stroke-width:1.0;"/><line style="stroke:#181818;stroke-width:1.0;stroke-dasharray:2.0,2.0;" x1="62.5" x2="321.5" y1="500.1523" y2="500.1523"/><line style="stroke:#A80036;stroke-width:2.0;" x1="792" x2="810" y1="491.1523" y2="509.1523"/><line style="stroke:#A80036;stroke-width:2.0;" x1="792" x2="810" y1="509.1523" y2="491.1523"/><line style="stroke:#000000;stroke-width:1.0;stroke-dasharray:2.0,2.0;" x1="10" x2="846.5" y1="509.1523" y2="509.1523"/><text fill="#000000" font-family="sans-serif" font-size="11" font-weight="bold" lengthAdjust="spacing" textLength="88" x="15" y="521.0225">[Validation fails]</text><polygon fill="#181818" points="305.5,544.0742,315.5,548.0742,305.5,552.0742" style="stroke:#181818;stroke-width:1.0;"/><line style="stroke:#181818;stroke-width:1.0;" x1="57.5" x2="311.5" y1="548.0742" y2="548.0742"/><text fill="#000000" font-family="sans-serif" font-size="13" lengthAdjust="spacing" textLength="241" x="64.5" y="542.8115">printMessage(exceptionMessage : String)</text><polygon fill="#181818" points="68.5,558.0742,58.5,562.0742,68.5,566.0742" style="stroke:#181818;stroke-width:1.0;"/><line style="stroke:#181818;stroke-width:1.0;stroke-dasharray:2.0,2.0;" x1="62.5" x2="321.5" y1="562.0742" y2="562.0742"/><!--SRC=[dLHDRy8m3BtdLqJiG7T0sXbjam0DYGCI4jlkNc9Oj3Qjyi5WltvEeQKDBKFBeKeSl-Tdkx7zKhe00naNALWxSSwe3-zm8NAzLZ_87vYjNQmxf4XVeuJpMSeOcPqIgW3j-FJWS8Q5vM3vcqNJkWo6XNPeDY2mTJCOhy3GxI3WZjle_cMFHYYBIz2mFJb6jXx4EwHAWikFcFh4M933Hy-dU7pCYx1PwCAxn9TIQNVFG3Yr0uULhXBsE1fLPucnHyqS2QGGk4T1XKtAKAP17kV2OYpHrTg9Q7VSuopFCj0oMSM4vqJFi56NfcO2ZUf0wggZoZMtNWYqTkDJncbrgEjDTYBbH0IIMcHWwCkStytdKrgiz186Wy-vcwt6_oM5D6ZyJZHa-3GilFtqXHtsX6znTLUA6tJUwC3PGZKAMDjlhn98cJGOhrUdcxQphJtAEijy4sELVaR_0LbUy_A1Nm_JJn_0umwkwksqXWMzJQEqMnwzanOgAbXxo5ICjQME7Gk_n4ca8PSV6Zt5r6BpKMn0fVPcrRWNM0JSoK0LNTCKrTj_PZ2-dW9goTYLpbpEhLy0]--></g></svg>