<?xml version="1.0" encoding="us-ascii" standalone="no"?><svg xmlns="http://www.w3.org/2000/svg" xmlns:xlink="http://www.w3.org/1999/xlink" contentStyleType="text/css" height="1166.4px" preserveAspectRatio="none" style="width:1764px;height:1166px;background:#FFFFFF;" version="1.1" viewBox="0 0 1764 1166" width="1764.8px" zoomAndPan="magnify"><defs/><g><rect fill="#FFFFFF" height="1063.9938" style="stroke:#181818;stroke-width:1.6000000000000003;" width="16" x="84" y="77.7938"/><rect fill="#FFFFFF" height="22.4" style="stroke:#181818;stroke-width:1.6000000000000003;" width="16" x="516" y="972.3125"/><rect fill="#FFFFFF" height="22.4" style="stroke:#181818;stroke-width:1.6000000000000003;" width="16" x="516" y="1093.7875"/><rect fill="#FFFFFF" height="22.4" style="stroke:#181818;stroke-width:1.6000000000000003;" width="16" x="658.4" y="115.0594"/><rect fill="#FFFFFF" height="856.1969" style="stroke:#181818;stroke-width:1.6000000000000003;" width="16" x="861.6" y="187.525"/><rect fill="#FFFFFF" height="496.0594" style="stroke:#181818;stroke-width:1.6000000000000003;" width="16" x="869.6" y="364.9219"/><rect fill="#FFFFFF" height="67.6656" style="stroke:#181818;stroke-width:1.6000000000000003;" width="16" x="877.6" y="435.7875"/><rect fill="#FFFFFF" height="67.6656" style="stroke:#181818;stroke-width:1.6000000000000003;" width="16" x="877.6" y="577.5188"/><rect fill="#FFFFFF" height="22.4" style="stroke:#181818;stroke-width:1.6000000000000003;" width="16" x="1325.6" y="237.5906"/><rect fill="#FFFFFF" height="22.4" style="stroke:#181818;stroke-width:1.6000000000000003;" width="16" x="1604" y="706.45"/><rect fill="#FFFFFF" height="22.4" style="stroke:#181818;stroke-width:1.6000000000000003;" width="16" x="1604" y="778.9156"/><rect fill="none" height="844.9969" style="stroke:#000000;stroke-width:2.4000000000000004;" width="1738.4" x="16" y="283.9906"/><line style="stroke:#181818;stroke-width:0.8000000000000002;stroke-dasharray:5.0,5.0;" x1="91.2" x2="91.2" y1="61.7938" y2="1156.1875"/><line style="stroke:#181818;stroke-width:0.8000000000000002;stroke-dasharray:5.0,5.0;" x1="524" x2="524" y1="61.7938" y2="1156.1875"/><line style="stroke:#181818;stroke-width:0.8000000000000002;stroke-dasharray:5.0,5.0;" x1="666.4" x2="666.4" y1="61.7938" y2="1156.1875"/><line style="stroke:#181818;stroke-width:0.8000000000000002;stroke-dasharray:5.0,5.0;" x1="869.6" x2="869.6" y1="61.7938" y2="1156.1875"/><line style="stroke:#181818;stroke-width:0.8000000000000002;stroke-dasharray:5.0,5.0;" x1="1333.6" x2="1333.6" y1="61.7938" y2="1156.1875"/><line style="stroke:#181818;stroke-width:0.8000000000000002;stroke-dasharray:5.0,5.0;" x1="1612" x2="1612" y1="61.7938" y2="1156.1875"/><rect fill="#E2E2F0" height="52.1938" rx="4" ry="4" style="stroke:#181818;stroke-width:0.8000000000000002;" width="120" x="32" y="8"/><text fill="#000000" font-family="sans-serif" font-size="22.4" lengthAdjust="spacing" textLength="97.6" x="43.2" y="43.3719">ByteCeps</text><rect fill="#E2E2F0" height="52.1938" rx="4" ry="4" style="stroke:#181818;stroke-width:0.8000000000000002;" width="156.8" x="445.6" y="8"/><text fill="#000000" font-family="sans-serif" font-size="22.4" lengthAdjust="spacing" textLength="134.4" x="456.8" y="43.3719">UserInterface</text><rect fill="#E2E2F0" height="52.1938" rx="4" ry="4" style="stroke:#181818;stroke-width:0.8000000000000002;" width="96" x="618.4" y="8"/><text fill="#000000" font-family="sans-serif" font-size="22.4" lengthAdjust="spacing" textLength="73.6" x="629.6" y="43.3719">:Parser</text><rect fill="#E2E2F0" height="52.1938" rx="4" ry="4" style="stroke:#181818;stroke-width:0.8000000000000002;" width="278.4" x="730.4" y="8"/><text fill="#000000" font-family="sans-serif" font-size="22.4" lengthAdjust="spacing" textLength="256" x="741.6" y="43.3719">:WeeklyProgramManager</text><rect fill="#E2E2F0" height="52.1938" rx="4" ry="4" style="stroke:#181818;stroke-width:0.8000000000000002;" width="272" x="1197.6" y="8"/><text fill="#000000" font-family="sans-serif" font-size="22.4" lengthAdjust="spacing" textLength="249.6" x="1208.8" y="43.3719">WeeklyProgramValidator</text><rect fill="#E2E2F0" height="52.1938" rx="4" ry="4" style="stroke:#181818;stroke-width:0.8000000000000002;" width="252.8" x="1485.6" y="8"/><text fill="#000000" font-family="sans-serif" font-size="22.4" lengthAdjust="spacing" textLength="230.4" x="1496.8" y="43.3719">:WorkoutLogsManager</text><rect fill="#FFFFFF" height="1063.9938" style="stroke:#181818;stroke-width:1.6000000000000003;" width="16" x="84" y="77.7938"/><rect fill="#FFFFFF" height="22.4" style="stroke:#181818;stroke-width:1.6000000000000003;" width="16" x="516" y="972.3125"/><rect fill="#FFFFFF" height="22.4" style="stroke:#181818;stroke-width:1.6000000000000003;" width="16" x="516" y="1093.7875"/><rect fill="#FFFFFF" height="22.4" style="stroke:#181818;stroke-width:1.6000000000000003;" width="16" x="658.4" y="115.0594"/><rect fill="#FFFFFF" height="856.1969" style="stroke:#181818;stroke-width:1.6000000000000003;" width="16" x="861.6" y="187.525"/><rect fill="#FFFFFF" height="496.0594" style="stroke:#181818;stroke-width:1.6000000000000003;" width="16" x="869.6" y="364.9219"/><rect fill="#FFFFFF" height="67.6656" style="stroke:#181818;stroke-width:1.6000000000000003;" width="16" x="877.6" y="435.7875"/><rect fill="#FFFFFF" height="67.6656" style="stroke:#181818;stroke-width:1.6000000000000003;" width="16" x="877.6" y="577.5188"/><rect fill="#FFFFFF" height="22.4" style="stroke:#181818;stroke-width:1.6000000000000003;" width="16" x="1325.6" y="237.5906"/><rect fill="#FFFFFF" height="22.4" style="stroke:#181818;stroke-width:1.6000000000000003;" width="16" x="1604" y="706.45"/><rect fill="#FFFFFF" height="22.4" style="stroke:#181818;stroke-width:1.6000000000000003;" width="16" x="1604" y="778.9156"/><polygon fill="#181818" points="639.2,108.6594,655.2,115.0594,639.2,121.4594" style="stroke:#181818;stroke-width:1.6000000000000003;"/><line style="stroke:#181818;stroke-width:1.6000000000000003;" x1="100" x2="648.8" y1="115.0594" y2="115.0594"/><text fill="#000000" font-family="sans-serif" font-size="20.8" lengthAdjust="spacing" textLength="193.6" x="111.2" y="106.6391">parseInput(userInput)</text><polygon fill="#181818" points="117.6,131.0594,101.6,137.4594,117.6,143.8594" style="stroke:#181818;stroke-width:1.6000000000000003;"/><line style="stroke:#181818;stroke-width:1.6000000000000003;stroke-dasharray:2.0,2.0;" x1="108" x2="664.8" y1="137.4594" y2="137.4594"/><polygon fill="#181818" points="842.4,181.125,858.4,187.525,842.4,193.925" style="stroke:#181818;stroke-width:1.6000000000000003;"/><line style="stroke:#181818;stroke-width:1.6000000000000003;" x1="100" x2="852" y1="187.525" y2="187.525"/><text fill="#000000" font-family="sans-serif" font-size="20.8" lengthAdjust="spacing" textLength="144" x="111.2" y="179.1047">execute(parser)</text><polygon fill="#181818" points="1306.4,231.1906,1322.4,237.5906,1306.4,243.9906" style="stroke:#181818;stroke-width:1.6000000000000003;"/><line style="stroke:#181818;stroke-width:1.6000000000000003;" x1="877.6" x2="1316" y1="237.5906" y2="237.5906"/><text fill="#000000" font-family="sans-serif" font-size="20.8" lengthAdjust="spacing" textLength="233.6" x="888.8" y="229.1703">validateCommand(parser)</text><polygon fill="#181818" points="895.2,253.5906,879.2,259.9906,895.2,266.3906" style="stroke:#181818;stroke-width:1.6000000000000003;"/><line style="stroke:#181818;stroke-width:1.6000000000000003;stroke-dasharray:2.0,2.0;" x1="885.6" x2="1332" y1="259.9906" y2="259.9906"/><path d="M16,283.9906 L113.6,283.9906 L113.6,298.8563 L97.6,314.8563 L16,314.8563 L16,283.9906 " fill="#EEEEEE" style="stroke:#000000;stroke-width:2.4000000000000004;"/><rect fill="none" height="844.9969" style="stroke:#000000;stroke-width:2.4000000000000004;" width="1738.4" x="16" y="283.9906"/><text fill="#000000" font-family="sans-serif" font-size="20.8" font-weight="bold" lengthAdjust="spacing" textLength="25.6" x="40" y="308.0359">alt</text><text fill="#000000" font-family="sans-serif" font-size="17.6" font-weight="bold" lengthAdjust="spacing" textLength="248" x="137.6" y="306.1828">[Input validation successful]</text><line style="stroke:#181818;stroke-width:1.6000000000000003;" x1="877.6" x2="952.8" y1="344.1219" y2="344.1219"/><line style="stroke:#181818;stroke-width:1.6000000000000003;" x1="952.8" x2="952.8" y1="344.1219" y2="364.9219"/><line style="stroke:#181818;stroke-width:1.6000000000000003;" x1="887.2" x2="952.8" y1="364.9219" y2="364.9219"/><polygon fill="#181818" points="903.2,358.5219,887.2,364.9219,903.2,371.3219" style="stroke:#181818;stroke-width:1.6000000000000003;"/><text fill="#000000" font-family="sans-serif" font-size="20.8" lengthAdjust="spacing" textLength="166.4" x="896.8" y="335.7016">executeLogAction</text><line style="stroke:#181818;stroke-width:1.6000000000000003;" x1="885.6" x2="960.8" y1="414.9875" y2="414.9875"/><line style="stroke:#181818;stroke-width:1.6000000000000003;" x1="960.8" x2="960.8" y1="414.9875" y2="435.7875"/><line style="stroke:#181818;stroke-width:1.6000000000000003;" x1="895.2" x2="960.8" y1="435.7875" y2="435.7875"/><polygon fill="#181818" points="911.2,429.3875,895.2,435.7875,911.2,442.1875" style="stroke:#181818;stroke-width:1.6000000000000003;"/><text fill="#000000" font-family="sans-serif" font-size="20.8" lengthAdjust="spacing" textLength="284.8" x="904.8" y="406.5672">getDayFromDate(workoutDate)</text><line style="stroke:#181818;stroke-width:1.6000000000000003;stroke-dasharray:2.0,2.0;" x1="893.6" x2="960.8" y1="501.8531" y2="501.8531"/><line style="stroke:#181818;stroke-width:1.6000000000000003;stroke-dasharray:2.0,2.0;" x1="960.8" x2="960.8" y1="501.8531" y2="522.6531"/><line style="stroke:#181818;stroke-width:1.6000000000000003;stroke-dasharray:2.0,2.0;" x1="885.6" x2="960.8" y1="522.6531" y2="522.6531"/><polygon fill="#181818" points="901.6,516.2531,885.6,522.6531,901.6,529.0531" style="stroke:#181818;stroke-width:1.6000000000000003;"/><text fill="#000000" font-family="sans-serif" font-size="20.8" lengthAdjust="spacing" textLength="115.2" x="904.8" y="493.4328">selectedDay</text><line style="stroke:#181818;stroke-width:1.6000000000000003;" x1="885.6" x2="960.8" y1="556.7188" y2="556.7188"/><line style="stroke:#181818;stroke-width:1.6000000000000003;" x1="960.8" x2="960.8" y1="556.7188" y2="577.5188"/><line style="stroke:#181818;stroke-width:1.6000000000000003;" x1="895.2" x2="960.8" y1="577.5188" y2="577.5188"/><polygon fill="#181818" points="911.2,571.1188,895.2,577.5188,911.2,583.9188" style="stroke:#181818;stroke-width:1.6000000000000003;"/><text fill="#000000" font-family="sans-serif" font-size="20.8" lengthAdjust="spacing" textLength="417.6" x="904.8" y="548.2984">getWorkoutName(selectedDay, workoutDate)</text><line style="stroke:#181818;stroke-width:1.6000000000000003;stroke-dasharray:2.0,2.0;" x1="893.6" x2="960.8" y1="643.5844" y2="643.5844"/><line style="stroke:#181818;stroke-width:1.6000000000000003;stroke-dasharray:2.0,2.0;" x1="960.8" x2="960.8" y1="643.5844" y2="664.3844"/><line style="stroke:#181818;stroke-width:1.6000000000000003;stroke-dasharray:2.0,2.0;" x1="885.6" x2="960.8" y1="664.3844" y2="664.3844"/><polygon fill="#181818" points="901.6,657.9844,885.6,664.3844,901.6,670.7844" style="stroke:#181818;stroke-width:1.6000000000000003;"/><text fill="#000000" font-family="sans-serif" font-size="20.8" lengthAdjust="spacing" textLength="126.4" x="904.8" y="635.1641">workoutName</text><polygon fill="#181818" points="1584.8,700.05,1600.8,706.45,1584.8,712.85" style="stroke:#181818;stroke-width:1.6000000000000003;"/><line style="stroke:#181818;stroke-width:1.6000000000000003;" x1="885.6" x2="1594.4" y1="706.45" y2="706.45"/><text fill="#000000" font-family="sans-serif" font-size="20.8" lengthAdjust="spacing" textLength="412.8" x="896.8" y="698.0297">addWorkoutLog(workoutDate, workoutName)</text><polygon fill="#181818" points="903.2,722.45,887.2,728.85,903.2,735.25" style="stroke:#181818;stroke-width:1.6000000000000003;"/><line style="stroke:#181818;stroke-width:1.6000000000000003;stroke-dasharray:2.0,2.0;" x1="893.6" x2="1610.4" y1="728.85" y2="728.85"/><polygon fill="#181818" points="1584.8,772.5156,1600.8,778.9156,1584.8,785.3156" style="stroke:#181818;stroke-width:1.6000000000000003;"/><line style="stroke:#181818;stroke-width:1.6000000000000003;" x1="885.6" x2="1594.4" y1="778.9156" y2="778.9156"/><text fill="#000000" font-family="sans-serif" font-size="20.8" lengthAdjust="spacing" textLength="644.8" x="896.8" y="770.4953">addExerciseLog(workoutDate, exerciseName, weight, sets, repetition)</text><polygon fill="#181818" points="903.2,794.9156,887.2,801.3156,903.2,807.7156" style="stroke:#181818;stroke-width:1.6000000000000003;"/><line style="stroke:#181818;stroke-width:1.6000000000000003;stroke-dasharray:2.0,2.0;" x1="893.6" x2="1610.4" y1="801.3156" y2="801.3156"/><line style="stroke:#181818;stroke-width:1.6000000000000003;stroke-dasharray:2.0,2.0;" x1="885.6" x2="952.8" y1="859.3813" y2="859.3813"/><line style="stroke:#181818;stroke-width:1.6000000000000003;stroke-dasharray:2.0,2.0;" x1="952.8" x2="952.8" y1="859.3813" y2="880.1813"/><line style="stroke:#181818;stroke-width:1.6000000000000003;stroke-dasharray:2.0,2.0;" x1="877.6" x2="952.8" y1="880.1813" y2="880.1813"/><polygon fill="#181818" points="893.6,873.7813,877.6,880.1813,893.6,886.5813" style="stroke:#181818;stroke-width:1.6000000000000003;"/><text fill="#000000" font-family="sans-serif" font-size="20.8" lengthAdjust="spacing" textLength="150.4" x="896.8" y="850.9609">messageToUser</text><polygon fill="#181818" points="117.6,915.8469,101.6,922.2469,117.6,928.6469" style="stroke:#181818;stroke-width:1.6000000000000003;"/><line style="stroke:#181818;stroke-width:1.6000000000000003;stroke-dasharray:2.0,2.0;" x1="108" x2="860" y1="922.2469" y2="922.2469"/><text fill="#000000" font-family="sans-serif" font-size="20.8" lengthAdjust="spacing" textLength="150.4" x="127.2" y="913.8266">messageToUser</text><polygon fill="#181818" points="496.8,965.9125,512.8,972.3125,496.8,978.7125" style="stroke:#181818;stroke-width:1.6000000000000003;"/><line style="stroke:#181818;stroke-width:1.6000000000000003;" x1="100" x2="506.4" y1="972.3125" y2="972.3125"/><text fill="#000000" font-family="sans-serif" font-size="20.8" lengthAdjust="spacing" textLength="288" x="111.2" y="963.8922">printMessage(messageToUser)</text><polygon fill="#181818" points="117.6,988.3125,101.6,994.7125,117.6,1001.1125" style="stroke:#181818;stroke-width:1.6000000000000003;"/><line style="stroke:#181818;stroke-width:1.6000000000000003;stroke-dasharray:2.0,2.0;" x1="108" x2="522.4" y1="994.7125" y2="994.7125"/><line style="stroke:#000000;stroke-width:1.6000000000000003;stroke-dasharray:2.0,2.0;" x1="16" x2="1754.4" y1="1009.1125" y2="1009.1125"/><text fill="#000000" font-family="sans-serif" font-size="17.6" font-weight="bold" lengthAdjust="spacing" textLength="187.2" x="24" y="1028.1047">[Input validation fails]</text><polygon fill="#181818" points="117.6,1037.3219,101.6,1043.7219,117.6,1050.1219" style="stroke:#181818;stroke-width:1.6000000000000003;"/><line style="stroke:#181818;stroke-width:1.6000000000000003;stroke-dasharray:2.0,2.0;" x1="108" x2="868" y1="1043.7219" y2="1043.7219"/><polygon fill="#181818" points="496.8,1087.3875,512.8,1093.7875,496.8,1100.1875" style="stroke:#181818;stroke-width:1.6000000000000003;"/><line style="stroke:#181818;stroke-width:1.6000000000000003;" x1="100" x2="506.4" y1="1093.7875" y2="1093.7875"/><text fill="#000000" font-family="sans-serif" font-size="20.8" lengthAdjust="spacing" textLength="385.6" x="111.2" y="1085.3672">printMessage(exceptionMessage : String)</text><polygon fill="#181818" points="117.6,1109.7875,101.6,1116.1875,117.6,1122.5875" style="stroke:#181818;stroke-width:1.6000000000000003;"/><line style="stroke:#181818;stroke-width:1.6000000000000003;stroke-dasharray:2.0,2.0;" x1="108" x2="522.4" y1="1116.1875" y2="1116.1875"/><!--SRC=[pLPDRzim3BtxLmWzkK02x6mC0xfs0mAiGu7kuyp9Z2T4bWo9RfFz-b5EObkndNHfKCo7W215FhvdMenVALE1Wr983TxV43drgoPSI6iUrHyKxnBV7l6qqSY_JacgIvqax2ObLGM6nCSDuIrMFd9-z-WMXj0jGM8KkSeUm77qwi3x4t6bDm_E5enu3mQAmpFHYH-WLGvatM4PwrQsfY-sy6sH12If9o3iUjqROlwXwoWJLJ0MfgefhHi6R5rtwLtlRVxx-RnN8CdnsE46R9He9d2DalLFcnPS13ekpOG_W8mhbOcdhOctjYp1v2rM1pQXyHHMO3-U8Y8j9iece4aq8kzRKzO8Nqk9tYzhdGX-Zl2S2hLgyXZSo52qgNHIqhFX2gGxs7nsjhpZ-kdpTWY3VNq1vAFG7ZLAmfpncohH15wUvkxx-WebfZtecNXBpizT4vVZFBmu60dol0lqt-kityIGyCWjjEjW1EOesH624yNFvFTfZKugZmE2k0i4XamNLV6RPZnlv6V2OOMamfVrVt0_OuuoKV8jm-Ot6xRLHGQ9qVQN_LZv_YA8DYHl7gSCtMypqYZpGE1uiuPGv8bw62eOPoUeFGulu2KexLzEz5-KUwa2k9POXMPs3XxLH_xxOOfNg75233JvwPNr5m00]--></g></svg>