<?xml version="1.0" encoding="us-ascii" standalone="no"?><svg xmlns="http://www.w3.org/2000/svg" xmlns:xlink="http://www.w3.org/1999/xlink" contentStyleType="text/css" height="729px" preserveAspectRatio="none" style="width:1105px;height:729px;background:#FFFFFF;" version="1.1" viewBox="0 0 1105 729" width="1105px" zoomAndPan="magnify"><defs/><g><rect fill="#FFFFFF" height="664.9961" style="stroke:#181818;stroke-width:1.0;" width="10" x="52.5" y="48.6211"/><rect fill="#FFFFFF" height="14" style="stroke:#181818;stroke-width:1.0;" width="10" x="322.5" y="607.6953"/><rect fill="#FFFFFF" height="14" style="stroke:#181818;stroke-width:1.0;" width="10" x="322.5" y="683.6172"/><rect fill="#FFFFFF" height="14" style="stroke:#181818;stroke-width:1.0;" width="10" x="413.5" y="71.9121"/><rect fill="#FFFFFF" height="535.123" style="stroke:#181818;stroke-width:1.0;" width="10" x="540.5" y="117.2031"/><rect fill="#FFFFFF" height="310.0371" style="stroke:#181818;stroke-width:1.0;" width="10" x="545.5" y="228.0762"/><rect fill="#FFFFFF" height="42.291" style="stroke:#181818;stroke-width:1.0;" width="10" x="550.5" y="272.3672"/><rect fill="#FFFFFF" height="42.291" style="stroke:#181818;stroke-width:1.0;" width="10" x="550.5" y="360.9492"/><rect fill="#FFFFFF" height="14" style="stroke:#181818;stroke-width:1.0;" width="10" x="830.5" y="148.4941"/><rect fill="#FFFFFF" height="14" style="stroke:#181818;stroke-width:1.0;" width="10" x="1004.5" y="441.5313"/><rect fill="#FFFFFF" height="14" style="stroke:#181818;stroke-width:1.0;" width="10" x="1004.5" y="486.8223"/><rect fill="none" height="528.123" style="stroke:#000000;stroke-width:1.5;" width="1088.5" x="10" y="177.4941"/><line style="stroke:#181818;stroke-width:0.5;stroke-dasharray:5.0,5.0;" x1="57" x2="57" y1="38.6211" y2="722.6172"/><line style="stroke:#181818;stroke-width:0.5;stroke-dasharray:5.0,5.0;" x1="327.5" x2="327.5" y1="38.6211" y2="722.6172"/><line style="stroke:#181818;stroke-width:0.5;stroke-dasharray:5.0,5.0;" x1="418.5" x2="418.5" y1="38.6211" y2="722.6172"/><line style="stroke:#181818;stroke-width:0.5;stroke-dasharray:5.0,5.0;" x1="545.5" x2="545.5" y1="38.6211" y2="722.6172"/><line style="stroke:#181818;stroke-width:0.5;stroke-dasharray:5.0,5.0;" x1="835.5" x2="835.5" y1="38.6211" y2="722.6172"/><line style="stroke:#181818;stroke-width:0.5;stroke-dasharray:5.0,5.0;" x1="1009.5" x2="1009.5" y1="38.6211" y2="722.6172"/><rect fill="#E2E2F0" height="32.6211" rx="2.5" ry="2.5" style="stroke:#181818;stroke-width:0.5;" width="75" x="20" y="5"/><text fill="#000000" font-family="sans-serif" font-size="14" lengthAdjust="spacing" textLength="61" x="27" y="27.1074">ByteCeps</text><rect fill="#E2E2F0" height="32.6211" rx="2.5" ry="2.5" style="stroke:#181818;stroke-width:0.5;" width="102" x="276.5" y="5"/><text fill="#000000" font-family="sans-serif" font-size="14" lengthAdjust="spacing" textLength="88" x="283.5" y="27.1074">:UserInterface</text><rect fill="#E2E2F0" height="32.6211" rx="2.5" ry="2.5" style="stroke:#181818;stroke-width:0.5;" width="60" x="388.5" y="5"/><text fill="#000000" font-family="sans-serif" font-size="14" lengthAdjust="spacing" textLength="46" x="395.5" y="27.1074">:Parser</text><rect fill="#E2E2F0" height="32.6211" rx="2.5" ry="2.5" style="stroke:#181818;stroke-width:0.5;" width="174" x="458.5" y="5"/><text fill="#000000" font-family="sans-serif" font-size="14" lengthAdjust="spacing" textLength="160" x="465.5" y="27.1074">:WeeklyProgramManager</text><rect fill="#E2E2F0" height="32.6211" rx="2.5" ry="2.5" style="stroke:#181818;stroke-width:0.5;" width="170" x="750.5" y="5"/><text fill="#000000" font-family="sans-serif" font-size="14" lengthAdjust="spacing" textLength="156" x="757.5" y="27.1074">WeeklyProgramValidator</text><rect fill="#E2E2F0" height="32.6211" rx="2.5" ry="2.5" style="stroke:#181818;stroke-width:0.5;" width="158" x="930.5" y="5"/><text fill="#000000" font-family="sans-serif" font-size="14" lengthAdjust="spacing" textLength="144" x="937.5" y="27.1074">:WorkoutLogsManager</text><rect fill="#FFFFFF" height="664.9961" style="stroke:#181818;stroke-width:1.0;" width="10" x="52.5" y="48.6211"/><rect fill="#FFFFFF" height="14" style="stroke:#181818;stroke-width:1.0;" width="10" x="322.5" y="607.6953"/><rect fill="#FFFFFF" height="14" style="stroke:#181818;stroke-width:1.0;" width="10" x="322.5" y="683.6172"/><rect fill="#FFFFFF" height="14" style="stroke:#181818;stroke-width:1.0;" width="10" x="413.5" y="71.9121"/><rect fill="#FFFFFF" height="535.123" style="stroke:#181818;stroke-width:1.0;" width="10" x="540.5" y="117.2031"/><rect fill="#FFFFFF" height="310.0371" style="stroke:#181818;stroke-width:1.0;" width="10" x="545.5" y="228.0762"/><rect fill="#FFFFFF" height="42.291" style="stroke:#181818;stroke-width:1.0;" width="10" x="550.5" y="272.3672"/><rect fill="#FFFFFF" height="42.291" style="stroke:#181818;stroke-width:1.0;" width="10" x="550.5" y="360.9492"/><rect fill="#FFFFFF" height="14" style="stroke:#181818;stroke-width:1.0;" width="10" x="830.5" y="148.4941"/><rect fill="#FFFFFF" height="14" style="stroke:#181818;stroke-width:1.0;" width="10" x="1004.5" y="441.5313"/><rect fill="#FFFFFF" height="14" style="stroke:#181818;stroke-width:1.0;" width="10" x="1004.5" y="486.8223"/><polygon fill="#181818" points="401.5,67.9121,411.5,71.9121,401.5,75.9121" style="stroke:#181818;stroke-width:1.0;"/><line style="stroke:#181818;stroke-width:1.0;" x1="62.5" x2="407.5" y1="71.9121" y2="71.9121"/><text fill="#000000" font-family="sans-serif" font-size="13" lengthAdjust="spacing" textLength="121" x="69.5" y="66.6494">parseInput(userInput)</text><polygon fill="#181818" points="73.5,81.9121,63.5,85.9121,73.5,89.9121" style="stroke:#181818;stroke-width:1.0;"/><line style="stroke:#181818;stroke-width:1.0;stroke-dasharray:2.0,2.0;" x1="67.5" x2="417.5" y1="85.9121" y2="85.9121"/><polygon fill="#181818" points="528.5,113.2031,538.5,117.2031,528.5,121.2031" style="stroke:#181818;stroke-width:1.0;"/><line style="stroke:#181818;stroke-width:1.0;" x1="62.5" x2="534.5" y1="117.2031" y2="117.2031"/><text fill="#000000" font-family="sans-serif" font-size="13" lengthAdjust="spacing" textLength="90" x="69.5" y="111.9404">execute(parser)</text><polygon fill="#181818" points="818.5,144.4941,828.5,148.4941,818.5,152.4941" style="stroke:#181818;stroke-width:1.0;"/><line style="stroke:#181818;stroke-width:1.0;" x1="550.5" x2="824.5" y1="148.4941" y2="148.4941"/><text fill="#000000" font-family="sans-serif" font-size="13" lengthAdjust="spacing" textLength="146" x="557.5" y="143.2314">validateCommand(parser)</text><polygon fill="#181818" points="561.5,158.4941,551.5,162.4941,561.5,166.4941" style="stroke:#181818;stroke-width:1.0;"/><line style="stroke:#181818;stroke-width:1.0;stroke-dasharray:2.0,2.0;" x1="555.5" x2="834.5" y1="162.4941" y2="162.4941"/><path d="M10,177.4941 L71,177.4941 L71,186.7852 L61,196.7852 L10,196.7852 L10,177.4941 " fill="#EEEEEE" style="stroke:#000000;stroke-width:1.5;"/><rect fill="none" height="528.123" style="stroke:#000000;stroke-width:1.5;" width="1088.5" x="10" y="177.4941"/><text fill="#000000" font-family="sans-serif" font-size="13" font-weight="bold" lengthAdjust="spacing" textLength="16" x="25" y="192.5225">alt</text><text fill="#000000" font-family="sans-serif" font-size="11" font-weight="bold" lengthAdjust="spacing" textLength="155" x="86" y="191.3643">[Input validation successful]</text><line style="stroke:#181818;stroke-width:1.0;" x1="550.5" x2="597.5" y1="215.0762" y2="215.0762"/><line style="stroke:#181818;stroke-width:1.0;" x1="597.5" x2="597.5" y1="215.0762" y2="228.0762"/><line style="stroke:#181818;stroke-width:1.0;" x1="556.5" x2="597.5" y1="228.0762" y2="228.0762"/><polygon fill="#181818" points="566.5,224.0762,556.5,228.0762,566.5,232.0762" style="stroke:#181818;stroke-width:1.0;"/><text fill="#000000" font-family="sans-serif" font-size="13" lengthAdjust="spacing" textLength="104" x="562.5" y="209.8135">executeLogAction</text><line style="stroke:#181818;stroke-width:1.0;" x1="555.5" x2="602.5" y1="259.3672" y2="259.3672"/><line style="stroke:#181818;stroke-width:1.0;" x1="602.5" x2="602.5" y1="259.3672" y2="272.3672"/><line style="stroke:#181818;stroke-width:1.0;" x1="561.5" x2="602.5" y1="272.3672" y2="272.3672"/><polygon fill="#181818" points="571.5,268.3672,561.5,272.3672,571.5,276.3672" style="stroke:#181818;stroke-width:1.0;"/><text fill="#000000" font-family="sans-serif" font-size="13" lengthAdjust="spacing" textLength="178" x="567.5" y="254.1045">getDayFromDate(workoutDate)</text><line style="stroke:#181818;stroke-width:1.0;stroke-dasharray:2.0,2.0;" x1="560.5" x2="602.5" y1="313.6582" y2="313.6582"/><line style="stroke:#181818;stroke-width:1.0;stroke-dasharray:2.0,2.0;" x1="602.5" x2="602.5" y1="313.6582" y2="326.6582"/><line style="stroke:#181818;stroke-width:1.0;stroke-dasharray:2.0,2.0;" x1="555.5" x2="602.5" y1="326.6582" y2="326.6582"/><polygon fill="#181818" points="565.5,322.6582,555.5,326.6582,565.5,330.6582" style="stroke:#181818;stroke-width:1.0;"/><text fill="#000000" font-family="sans-serif" font-size="13" lengthAdjust="spacing" textLength="72" x="567.5" y="308.3955">selectedDay</text><line style="stroke:#181818;stroke-width:1.0;" x1="555.5" x2="602.5" y1="347.9492" y2="347.9492"/><line style="stroke:#181818;stroke-width:1.0;" x1="602.5" x2="602.5" y1="347.9492" y2="360.9492"/><line style="stroke:#181818;stroke-width:1.0;" x1="561.5" x2="602.5" y1="360.9492" y2="360.9492"/><polygon fill="#181818" points="571.5,356.9492,561.5,360.9492,571.5,364.9492" style="stroke:#181818;stroke-width:1.0;"/><text fill="#000000" font-family="sans-serif" font-size="13" lengthAdjust="spacing" textLength="261" x="567.5" y="342.6865">getWorkoutName(selectedDay, workoutDate)</text><line style="stroke:#181818;stroke-width:1.0;stroke-dasharray:2.0,2.0;" x1="560.5" x2="602.5" y1="402.2402" y2="402.2402"/><line style="stroke:#181818;stroke-width:1.0;stroke-dasharray:2.0,2.0;" x1="602.5" x2="602.5" y1="402.2402" y2="415.2402"/><line style="stroke:#181818;stroke-width:1.0;stroke-dasharray:2.0,2.0;" x1="555.5" x2="602.5" y1="415.2402" y2="415.2402"/><polygon fill="#181818" points="565.5,411.2402,555.5,415.2402,565.5,419.2402" style="stroke:#181818;stroke-width:1.0;"/><text fill="#000000" font-family="sans-serif" font-size="13" lengthAdjust="spacing" textLength="79" x="567.5" y="396.9775">workoutName</text><polygon fill="#181818" points="992.5,437.5313,1002.5,441.5313,992.5,445.5313" style="stroke:#181818;stroke-width:1.0;"/><line style="stroke:#181818;stroke-width:1.0;" x1="555.5" x2="998.5" y1="441.5313" y2="441.5313"/><text fill="#000000" font-family="sans-serif" font-size="13" lengthAdjust="spacing" textLength="258" x="562.5" y="436.2686">addWorkoutLog(workoutDate, workoutName)</text><polygon fill="#181818" points="566.5,451.5313,556.5,455.5313,566.5,459.5313" style="stroke:#181818;stroke-width:1.0;"/><line style="stroke:#181818;stroke-width:1.0;stroke-dasharray:2.0,2.0;" x1="560.5" x2="1008.5" y1="455.5313" y2="455.5313"/><polygon fill="#181818" points="992.5,482.8223,1002.5,486.8223,992.5,490.8223" style="stroke:#181818;stroke-width:1.0;"/><line style="stroke:#181818;stroke-width:1.0;" x1="555.5" x2="998.5" y1="486.8223" y2="486.8223"/><text fill="#000000" font-family="sans-serif" font-size="13" lengthAdjust="spacing" textLength="403" x="562.5" y="481.5596">addExerciseLog(workoutDate, exerciseName, weight, sets, repetition)</text><polygon fill="#181818" points="566.5,496.8223,556.5,500.8223,566.5,504.8223" style="stroke:#181818;stroke-width:1.0;"/><line style="stroke:#181818;stroke-width:1.0;stroke-dasharray:2.0,2.0;" x1="560.5" x2="1008.5" y1="500.8223" y2="500.8223"/><line style="stroke:#181818;stroke-width:1.0;stroke-dasharray:2.0,2.0;" x1="555.5" x2="597.5" y1="537.1133" y2="537.1133"/><line style="stroke:#181818;stroke-width:1.0;stroke-dasharray:2.0,2.0;" x1="597.5" x2="597.5" y1="537.1133" y2="550.1133"/><line style="stroke:#181818;stroke-width:1.0;stroke-dasharray:2.0,2.0;" x1="550.5" x2="597.5" y1="550.1133" y2="550.1133"/><polygon fill="#181818" points="560.5,546.1133,550.5,550.1133,560.5,554.1133" style="stroke:#181818;stroke-width:1.0;"/><text fill="#000000" font-family="sans-serif" font-size="13" lengthAdjust="spacing" textLength="94" x="562.5" y="531.8506">messageToUser</text><polygon fill="#181818" points="73.5,572.4043,63.5,576.4043,73.5,580.4043" style="stroke:#181818;stroke-width:1.0;"/><line style="stroke:#181818;stroke-width:1.0;stroke-dasharray:2.0,2.0;" x1="67.5" x2="539.5" y1="576.4043" y2="576.4043"/><text fill="#000000" font-family="sans-serif" font-size="13" lengthAdjust="spacing" textLength="94" x="79.5" y="571.1416">messageToUser</text><polygon fill="#181818" points="310.5,603.6953,320.5,607.6953,310.5,611.6953" style="stroke:#181818;stroke-width:1.0;"/><line style="stroke:#181818;stroke-width:1.0;" x1="62.5" x2="316.5" y1="607.6953" y2="607.6953"/><text fill="#000000" font-family="sans-serif" font-size="13" lengthAdjust="spacing" textLength="180" x="69.5" y="602.4326">printMessage(messageToUser)</text><polygon fill="#181818" points="73.5,617.6953,63.5,621.6953,73.5,625.6953" style="stroke:#181818;stroke-width:1.0;"/><line style="stroke:#181818;stroke-width:1.0;stroke-dasharray:2.0,2.0;" x1="67.5" x2="326.5" y1="621.6953" y2="621.6953"/><line style="stroke:#000000;stroke-width:1.0;stroke-dasharray:2.0,2.0;" x1="10" x2="1098.5" y1="630.6953" y2="630.6953"/><text fill="#000000" font-family="sans-serif" font-size="11" font-weight="bold" lengthAdjust="spacing" textLength="117" x="15" y="642.5654">[Input validation fails]</text><polygon fill="#181818" points="73.5,648.3262,63.5,652.3262,73.5,656.3262" style="stroke:#181818;stroke-width:1.0;"/><line style="stroke:#181818;stroke-width:1.0;stroke-dasharray:2.0,2.0;" x1="67.5" x2="544.5" y1="652.3262" y2="652.3262"/><polygon fill="#181818" points="310.5,679.6172,320.5,683.6172,310.5,687.6172" style="stroke:#181818;stroke-width:1.0;"/><line style="stroke:#181818;stroke-width:1.0;" x1="62.5" x2="316.5" y1="683.6172" y2="683.6172"/><text fill="#000000" font-family="sans-serif" font-size="13" lengthAdjust="spacing" textLength="241" x="69.5" y="678.3545">printMessage(exceptionMessage : String)</text><polygon fill="#181818" points="73.5,693.6172,63.5,697.6172,73.5,701.6172" style="stroke:#181818;stroke-width:1.0;"/><line style="stroke:#181818;stroke-width:1.0;stroke-dasharray:2.0,2.0;" x1="67.5" x2="326.5" y1="697.6172" y2="697.6172"/><!--SRC=[pLRVYzim37xFNs7wb8CMzXp6u7QtGM4t3cu_dZL7pKmTEzZANRk_VdBQ9d6JjBUkZFMX2DdIf- -B8iMlbQd0GIca1kzlYPpwKHCkfJLFwXUADublhtZQQkH_foJLfKuITfEIgW93ulsMy0uh7pbdsLUFRca8tGeapWHu4NcERZ-2uzFPaVSxubfl7vqjk8e7C50StubkV0EjSY3hZjDOjxOrVRA5RvCa84az0s5N_y4GYtTTHPceWh4qLKrftJ1WwwOBxsfluzyk5hq4IOwdBZTWeqGpWHkK_4pIfWGNWOvBC-4F8EDAPU9vP-ATBKimUOlLWKreF8KLs8-7Y4YBYRG9Q1ADo8VIb3N2rrAYzwjQ9u9_9tXE7RLgSXlSof2qoNHMqelX2gHxs7vqjhpd_EdBhWc3VNC5v9FG7ZLAmfpnconH1rwVvlxz-WmbfZtekVYNd5-w8gx7UJWu60dol3leFzTvluWXuP4fjAzW1EOasH624yalvFTXWqugZmE2k3y839akgk8dpRdVoC-5mmf9XJVh_-1-GHzbekGfm-ON6xRLLHg9qGx3VYnzVn546v8tZrE67dOHQHHv972yMSDHv8bg62eOHoUeFGu7y0gKzgyd-YVAlLO1t4YiGZ5x1xVg4t-IcE8lr3WZ1fhy_Chw3G00]--></g></svg>