<?xml version="1.0" encoding="us-ascii" standalone="no"?><svg xmlns="http://www.w3.org/2000/svg" xmlns:xlink="http://www.w3.org/1999/xlink" contentStyleType="text/css" height="601px" preserveAspectRatio="none" style="width:550px;height:601px;background:#FFFFFF;" version="1.1" viewBox="0 0 550 601" width="550px" zoomAndPan="magnify"><defs/><g><!--cluster ByteCeps App--><g id="cluster_ByteCeps App"><rect fill="none" height="488" style="stroke:#181818;stroke-width:1.0;" width="537" x="7" y="107.5"/><path d="M115,107.5 L115,119.1211 L105,129.1211 L7,129.1211 " fill="none" style="stroke:#181818;stroke-width:1.0;"/><text fill="#000000" font-family="sans-serif" font-size="14" font-weight="bold" lengthAdjust="spacing" textLength="98" x="10" y="123.6074">ByteCeps App</text></g><!--entity ByteCeps--><g id="elem_ByteCeps"><rect fill="#F1F1F1" height="38.6211" rx="2.5" ry="2.5" style="stroke:#181818;stroke-width:0.5;" width="81" x="205.5" y="144.5"/><text fill="#000000" font-family="sans-serif" font-size="14" lengthAdjust="spacing" textLength="61" x="215.5" y="169.6074">ByteCeps</text></g><!--entity UserInterface--><g id="elem_UserInterface"><rect fill="#F1F1F1" height="38.6211" rx="2.5" ry="2.5" style="stroke:#181818;stroke-width:0.5;" width="104" x="66" y="144.5"/><text fill="#000000" font-family="sans-serif" font-size="14" lengthAdjust="spacing" textLength="84" x="76" y="169.6074">UserInterface</text></g><!--entity Parser--><g id="elem_Parser"><rect fill="#F1F1F1" height="38.6211" rx="2.5" ry="2.5" style="stroke:#181818;stroke-width:0.5;" width="62" x="215" y="243.5"/><text fill="#000000" font-family="sans-serif" font-size="14" lengthAdjust="spacing" textLength="42" x="225" y="268.6074">Parser</text></g><!--entity ExerciseManager--><g id="elem_ExerciseManager"><rect fill="#F1F1F1" height="38.6211" rx="2.5" ry="2.5" style="stroke:#181818;stroke-width:0.5;" width="129" x="60.5" y="342.5"/><text fill="#000000" font-family="sans-serif" font-size="14" lengthAdjust="spacing" textLength="109" x="70.5" y="367.6074">ExerciseManager</text></g><!--entity WorkoutManager--><g id="elem_WorkoutManager"><rect fill="#F1F1F1" height="38.6211" rx="2.5" ry="2.5" style="stroke:#181818;stroke-width:0.5;" width="129" x="224.5" y="342.5"/><text fill="#000000" font-family="sans-serif" font-size="14" lengthAdjust="spacing" textLength="109" x="234.5" y="367.6074">WorkoutManager</text></g><!--entity WeeklyProgramManager--><g id="elem_WeeklyProgramManager"><rect fill="#F1F1F1" height="38.6211" rx="2.5" ry="2.5" style="stroke:#181818;stroke-width:0.5;" width="176" x="23" y="441.5"/><text fill="#000000" font-family="sans-serif" font-size="14" lengthAdjust="spacing" textLength="156" x="33" y="466.6074">WeeklyProgramManager</text></g><!--entity WorkoutLogsManager--><g id="elem_WorkoutLogsManager"><rect fill="#F1F1F1" height="38.6211" rx="2.5" ry="2.5" style="stroke:#181818;stroke-width:0.5;" width="160" x="234" y="441.5"/><text fill="#000000" font-family="sans-serif" font-size="14" lengthAdjust="spacing" textLength="140" x="244" y="466.6074">WorkoutLogsManager</text></g><!--entity HelpMenuManager--><g id="elem_HelpMenuManager"><rect fill="#F1F1F1" height="38.6211" rx="2.5" ry="2.5" style="stroke:#181818;stroke-width:0.5;" width="139" x="388.5" y="342.5"/><text fill="#000000" font-family="sans-serif" font-size="14" lengthAdjust="spacing" textLength="119" x="398.5" y="367.6074">HelpMenuManager</text></g><!--entity Storage--><g id="elem_Storage"><rect fill="#F1F1F1" height="38.6211" rx="2.5" ry="2.5" style="stroke:#181818;stroke-width:0.5;" width="70" x="337" y="540.5"/><text fill="#000000" font-family="sans-serif" font-size="14" lengthAdjust="spacing" textLength="50" x="347" y="565.6074">Storage</text></g><!--entity User--><g id="elem_User"><ellipse cx="118" cy="14" fill="#F1F1F1" rx="8" ry="8" style="stroke:#181818;stroke-width:0.5;"/><path d="M118,22 L118,49 M105,30 L131,30 M118,49 L105,64 M118,49 L131,64 " fill="none" style="stroke:#181818;stroke-width:0.5;"/><text fill="#000000" font-family="sans-serif" font-size="14" lengthAdjust="spacing" textLength="29" x="103.5" y="80.6074">User</text></g><!--link User to UserInterface--><g id="link_User_UserInterface"><path d="M118,84.63 C118,104.74 118,122.39 118,138.41 " fill="none" id="User-to-UserInterface" style="stroke:#181818;stroke-width:1.0;"/><polygon fill="#181818" points="118,144.41,122,135.41,118,139.41,114,135.41,118,144.41" style="stroke:#181818;stroke-width:1.0;"/></g><!--link UserInterface to ByteCeps--><g id="link_UserInterface_ByteCeps"><path d="M170,164 C181.78,164 187.55,164 199.33,164 " fill="none" id="UserInterface-to-ByteCeps" style="stroke:#181818;stroke-width:1.0;"/><polygon fill="#181818" points="205.33,164,196.33,160,200.33,164,196.33,168,205.33,164" style="stroke:#181818;stroke-width:1.0;"/></g><!--link ByteCeps to Parser--><g id="link_ByteCeps_Parser"><path d="M246,183.7 C246,200.88 246,220.2 246,237.35 " fill="none" id="ByteCeps-to-Parser" style="stroke:#181818;stroke-width:1.0;"/><polygon fill="#181818" points="246,243.35,250,234.35,246,238.35,242,234.35,246,243.35" style="stroke:#181818;stroke-width:1.0;"/></g><!--link Parser to ExerciseManager--><g id="link_Parser_ExerciseManager"><path d="M222.67,282.7 C201.24,299.88 174.342,321.4478 152.942,338.5978 " fill="none" id="Parser-to-ExerciseManager" style="stroke:#181818;stroke-width:1.0;"/><polygon fill="#181818" points="148.26,342.35,157.7845,339.8431,152.1617,339.2232,152.7816,333.6004,148.26,342.35" style="stroke:#181818;stroke-width:1.0;"/></g><!--link Parser to WorkoutManager--><g id="link_Parser_WorkoutManager"><path d="M254.29,282.7 C261.91,299.88 270.6991,319.7145 278.2991,336.8645 " fill="none" id="Parser-to-WorkoutManager" style="stroke:#181818;stroke-width:1.0;"/><polygon fill="#181818" points="280.73,342.35,280.7407,332.5011,278.7043,337.7787,273.4267,335.7423,280.73,342.35" style="stroke:#181818;stroke-width:1.0;"/></g><!--link Parser to WeeklyProgramManager--><g id="link_Parser_WeeklyProgramManager"><path d="M214.67,265.67 C168.08,270.03 81.88,285.78 43,342.5 C20.08,375.94 54.0823,413.5895 81.8723,437.2595 " fill="none" id="Parser-to-WeeklyProgramManager" style="stroke:#181818;stroke-width:1.0;"/><polygon fill="#181818" points="86.44,441.15,82.1821,432.2691,82.6336,437.9079,76.9948,438.3594,86.44,441.15" style="stroke:#181818;stroke-width:1.0;"/></g><!--link Parser to HelpMenuManager--><g id="link_Parser_HelpMenuManager"><path d="M277.28,278.31 C314.48,295.33 371.2137,321.2943 412.0537,339.9743 " fill="none" id="Parser-to-HelpMenuManager" style="stroke:#181818;stroke-width:1.0;"/><polygon fill="#181818" points="417.51,342.47,410.9893,335.0889,412.9631,340.3903,407.6617,342.364,417.51,342.47" style="stroke:#181818;stroke-width:1.0;"/></g><!--link ExerciseManager to WeeklyProgramManager--><g id="link_ExerciseManager_WeeklyProgramManager"><path d="M122.3,381.7 C119.82,398.88 117.0287,418.2618 114.5487,435.4118 " fill="none" id="ExerciseManager-to-WeeklyProgramManager" style="stroke:#181818;stroke-width:1.0;"/><polygon fill="#181818" points="113.69,441.35,118.9369,433.0151,114.4056,436.4015,111.0192,431.8702,113.69,441.35" style="stroke:#181818;stroke-width:1.0;"/></g><!--link WorkoutManager to WeeklyProgramManager--><g id="link_WorkoutManager_WeeklyProgramManager"><path d="M254.68,381.7 C223.16,398.88 181.9692,421.3303 150.4792,438.4803 " fill="none" id="WorkoutManager-to-WeeklyProgramManager" style="stroke:#181818;stroke-width:1.0;"/><polygon fill="#181818" points="145.21,441.35,155.027,440.5582,149.601,438.9586,151.2007,433.5326,145.21,441.35" style="stroke:#181818;stroke-width:1.0;"/></g><!--link WeeklyProgramManager to WorkoutLogsManager--><g id="link_WeeklyProgramManager_WorkoutLogsManager"><path d="M199.02,461 C210.55,461 216.08,461 227.6,461 " fill="none" id="WeeklyProgramManager-to-WorkoutLogsManager" style="stroke:#181818;stroke-width:1.0;"/><polygon fill="#181818" points="233.6,461,224.6,457,228.6,461,224.6,465,233.6,461" style="stroke:#181818;stroke-width:1.0;"/></g><!--link WorkoutLogsManager to Storage--><g id="link_WorkoutLogsManager_Storage"><path d="M325.18,480.7 C335.45,497.88 347.5097,518.0511 357.7697,535.2011 " fill="none" id="WorkoutLogsManager-to-Storage" style="stroke:#181818;stroke-width:1.0;"/><polygon fill="#181818" points="360.85,540.35,359.6621,530.573,358.283,536.0592,352.7969,534.6802,360.85,540.35" style="stroke:#181818;stroke-width:1.0;"/></g><!--link WeeklyProgramManager to Storage--><g id="link_WeeklyProgramManager_Storage"><path d="M161.01,480.59 C212.53,499.73 285.8556,526.9904 331.1556,543.8204 " fill="none" id="WeeklyProgramManager-to-Storage" style="stroke:#181818;stroke-width:1.0;"/><polygon fill="#181818" points="336.78,545.91,329.7365,539.026,332.093,544.1687,326.9504,546.5252,336.78,545.91" style="stroke:#181818;stroke-width:1.0;"/></g><!--link ExerciseManager to Storage--><g id="link_ExerciseManager_Storage"><path d="M189.54,378.56 C272.04,398.75 405.11,432.47 412,441.5 C434.88,471.48 411.4934,510.6593 392.0534,535.4393 " fill="none" id="ExerciseManager-to-Storage" style="stroke:#181818;stroke-width:1.0;"/><polygon fill="#181818" points="388.35,540.16,397.0522,535.5479,391.4362,536.2261,390.758,530.61,388.35,540.16" style="stroke:#181818;stroke-width:1.0;"/></g><!--link WorkoutManager to Storage--><g id="link_WorkoutManager_Storage"><path d="M353.62,379.65 C385.21,391.4 420.35,410.7 439,441.5 C459.79,475.85 427.4315,512.7959 400.6515,536.1559 " fill="none" id="WorkoutManager-to-Storage" style="stroke:#181818;stroke-width:1.0;"/><polygon fill="#181818" points="396.13,540.1,405.5417,537.1982,399.8979,536.8133,400.2829,531.1695,396.13,540.1" style="stroke:#181818;stroke-width:1.0;"/></g><!--SRC=[VL91QiCm4Bph5S8zv1GeVK31JGiD9108eUUDl7P4RCb8QngtzEzLhCIL73K-sDRCx6fdf8Cia9TQqrwV6BD7gLemq71HWxKvaP7xZd0fjDhAB-IFWSHINwDx6oceQse6WhJXEuk6pLmtpXy-3vAGpKgdHdv-igpCsCoLanIo1KMyS_Ad6ChfK2F9nMePupiPhpTWXhr2x1K8OcJhXe8AOt2XcmPKOPaVBNlf2HVOMfwtRVRD30e2LJbtLoA0pWQNYj2K8330B-Fy0MydD49QN8Do0uJCXpP7tL62G3pM_SReoitrRzrAL_QMVCUwNQFgRfan0bG57s76VZmoPE1_XqjmDiZdnVnvOZLQyRbnWZ6UCS2XxXA5_tXe6aR8JUA8g5GWeM3gUhBFdIxnhlU42T3RJvp7BUGxNyyWtInK91sCvOcXhnpx1G00]--></g></svg>