<?xml version="1.0" encoding="us-ascii" standalone="no"?><svg xmlns="http://www.w3.org/2000/svg" xmlns:xlink="http://www.w3.org/1999/xlink" contentStyleType="text/css" height="613px" preserveAspectRatio="none" style="width:966px;height:613px;background:#FFFFFF;" version="1.1" viewBox="0 0 966 613" width="966px" zoomAndPan="magnify"><defs/><g><rect fill="#FFFFFF" height="14" style="stroke:#181818;stroke-width:1.0;" width="10" x="271.5" y="491.1133"/><rect fill="#FFFFFF" height="14" style="stroke:#181818;stroke-width:1.0;" width="10" x="271.5" y="567.0352"/><rect fill="#FFFFFF" height="14" style="stroke:#181818;stroke-width:1.0;" width="10" x="360.5" y="71.9121"/><rect fill="#FFFFFF" height="418.541" style="stroke:#181818;stroke-width:1.0;" width="10" x="487.5" y="117.2031"/><rect fill="#FFFFFF" height="193.4551" style="stroke:#181818;stroke-width:1.0;" width="10" x="492.5" y="228.0762"/><rect fill="#FFFFFF" height="42.291" style="stroke:#181818;stroke-width:1.0;" width="10" x="497.5" y="334.9492"/><rect fill="#FFFFFF" height="14" style="stroke:#181818;stroke-width:1.0;" width="10" x="722.5" y="148.4941"/><rect fill="#FFFFFF" height="31.291" style="stroke:#181818;stroke-width:1.0;" width="10" x="881" y="264.3672"/><rect fill="none" height="411.541" style="stroke:#000000;stroke-width:1.5;" width="949.5" x="10" y="177.4941"/><line style="stroke:#181818;stroke-width:0.5;stroke-dasharray:5.0,5.0;" x1="57" x2="57" y1="38.6211" y2="606.0352"/><line style="stroke:#181818;stroke-width:0.5;stroke-dasharray:5.0,5.0;" x1="276.5" x2="276.5" y1="38.6211" y2="606.0352"/><line style="stroke:#181818;stroke-width:0.5;stroke-dasharray:5.0,5.0;" x1="365.5" x2="365.5" y1="38.6211" y2="606.0352"/><line style="stroke:#181818;stroke-width:0.5;stroke-dasharray:5.0,5.0;" x1="492.5" x2="492.5" y1="38.6211" y2="606.0352"/><line style="stroke:#181818;stroke-width:0.5;stroke-dasharray:5.0,5.0;" x1="727.5" x2="727.5" y1="38.6211" y2="606.0352"/><line style="stroke:#181818;stroke-width:0.5;stroke-dasharray:5.0,5.0;" x1="885.5" x2="885.5" y1="38.6211" y2="606.0352"/><rect fill="#E2E2F0" height="32.6211" rx="2.5" ry="2.5" style="stroke:#181818;stroke-width:0.5;" width="75" x="20" y="5"/><text fill="#000000" font-family="sans-serif" font-size="14" lengthAdjust="spacing" textLength="61" x="27" y="27.1074">ByteCeps</text><rect fill="#E2E2F0" height="32.6211" rx="2.5" ry="2.5" style="stroke:#181818;stroke-width:0.5;" width="98" x="227.5" y="5"/><text fill="#000000" font-family="sans-serif" font-size="14" lengthAdjust="spacing" textLength="84" x="234.5" y="27.1074">UserInterface</text><rect fill="#E2E2F0" height="32.6211" rx="2.5" ry="2.5" style="stroke:#181818;stroke-width:0.5;" width="60" x="335.5" y="5"/><text fill="#000000" font-family="sans-serif" font-size="14" lengthAdjust="spacing" textLength="46" x="342.5" y="27.1074">:Parser</text><rect fill="#E2E2F0" height="32.6211" rx="2.5" ry="2.5" style="stroke:#181818;stroke-width:0.5;" width="174" x="405.5" y="5"/><text fill="#000000" font-family="sans-serif" font-size="14" lengthAdjust="spacing" textLength="160" x="412.5" y="27.1074">:WeeklyProgramManager</text><rect fill="#E2E2F0" height="32.6211" rx="2.5" ry="2.5" style="stroke:#181818;stroke-width:0.5;" width="170" x="642.5" y="5"/><text fill="#000000" font-family="sans-serif" font-size="14" lengthAdjust="spacing" textLength="156" x="649.5" y="27.1074">WeeklyProgramValidator</text><rect fill="#E2E2F0" height="32.6211" rx="2.5" ry="2.5" style="stroke:#181818;stroke-width:0.5;" width="127" x="822.5" y="5"/><text fill="#000000" font-family="sans-serif" font-size="14" lengthAdjust="spacing" textLength="113" x="829.5" y="27.1074">:WorkoutManager</text><rect fill="#FFFFFF" height="14" style="stroke:#181818;stroke-width:1.0;" width="10" x="271.5" y="491.1133"/><rect fill="#FFFFFF" height="14" style="stroke:#181818;stroke-width:1.0;" width="10" x="271.5" y="567.0352"/><rect fill="#FFFFFF" height="14" style="stroke:#181818;stroke-width:1.0;" width="10" x="360.5" y="71.9121"/><rect fill="#FFFFFF" height="418.541" style="stroke:#181818;stroke-width:1.0;" width="10" x="487.5" y="117.2031"/><rect fill="#FFFFFF" height="193.4551" style="stroke:#181818;stroke-width:1.0;" width="10" x="492.5" y="228.0762"/><rect fill="#FFFFFF" height="42.291" style="stroke:#181818;stroke-width:1.0;" width="10" x="497.5" y="334.9492"/><rect fill="#FFFFFF" height="14" style="stroke:#181818;stroke-width:1.0;" width="10" x="722.5" y="148.4941"/><rect fill="#FFFFFF" height="31.291" style="stroke:#181818;stroke-width:1.0;" width="10" x="881" y="264.3672"/><polygon fill="#181818" points="348.5,67.9121,358.5,71.9121,348.5,75.9121" style="stroke:#181818;stroke-width:1.0;"/><line style="stroke:#181818;stroke-width:1.0;" x1="57.5" x2="354.5" y1="71.9121" y2="71.9121"/><text fill="#000000" font-family="sans-serif" font-size="13" lengthAdjust="spacing" textLength="121" x="64.5" y="66.6494">parseInput(userInput)</text><polygon fill="#181818" points="68.5,81.9121,58.5,85.9121,68.5,89.9121" style="stroke:#181818;stroke-width:1.0;"/><line style="stroke:#181818;stroke-width:1.0;stroke-dasharray:2.0,2.0;" x1="62.5" x2="364.5" y1="85.9121" y2="85.9121"/><polygon fill="#181818" points="475.5,113.2031,485.5,117.2031,475.5,121.2031" style="stroke:#181818;stroke-width:1.0;"/><line style="stroke:#181818;stroke-width:1.0;" x1="57.5" x2="481.5" y1="117.2031" y2="117.2031"/><text fill="#000000" font-family="sans-serif" font-size="13" lengthAdjust="spacing" textLength="90" x="64.5" y="111.9404">execute(parser)</text><polygon fill="#181818" points="710.5,144.4941,720.5,148.4941,710.5,152.4941" style="stroke:#181818;stroke-width:1.0;"/><line style="stroke:#181818;stroke-width:1.0;" x1="497.5" x2="716.5" y1="148.4941" y2="148.4941"/><text fill="#000000" font-family="sans-serif" font-size="13" lengthAdjust="spacing" textLength="146" x="504.5" y="143.2314">validateCommand(parser)</text><polygon fill="#181818" points="508.5,158.4941,498.5,162.4941,508.5,166.4941" style="stroke:#181818;stroke-width:1.0;"/><line style="stroke:#181818;stroke-width:1.0;stroke-dasharray:2.0,2.0;" x1="502.5" x2="726.5" y1="162.4941" y2="162.4941"/><path d="M10,177.4941 L71,177.4941 L71,186.7852 L61,196.7852 L10,196.7852 L10,177.4941 " fill="#EEEEEE" style="stroke:#000000;stroke-width:1.5;"/><rect fill="none" height="411.541" style="stroke:#000000;stroke-width:1.5;" width="949.5" x="10" y="177.4941"/><text fill="#000000" font-family="sans-serif" font-size="13" font-weight="bold" lengthAdjust="spacing" textLength="16" x="25" y="192.5225">alt</text><text fill="#000000" font-family="sans-serif" font-size="11" font-weight="bold" lengthAdjust="spacing" textLength="155" x="86" y="191.3643">[Input validation successful]</text><line style="stroke:#181818;stroke-width:1.0;" x1="497.5" x2="544.5" y1="215.0762" y2="215.0762"/><line style="stroke:#181818;stroke-width:1.0;" x1="544.5" x2="544.5" y1="215.0762" y2="228.0762"/><line style="stroke:#181818;stroke-width:1.0;" x1="503.5" x2="544.5" y1="228.0762" y2="228.0762"/><polygon fill="#181818" points="513.5,224.0762,503.5,228.0762,513.5,232.0762" style="stroke:#181818;stroke-width:1.0;"/><text fill="#000000" font-family="sans-serif" font-size="13" lengthAdjust="spacing" textLength="167" x="509.5" y="209.8135">executeAssignAction(parser)</text><polygon fill="#181818" points="869,260.3672,879,264.3672,869,268.3672" style="stroke:#181818;stroke-width:1.0;"/><line style="stroke:#181818;stroke-width:1.0;" x1="502.5" x2="875" y1="264.3672" y2="264.3672"/><text fill="#000000" font-family="sans-serif" font-size="13" lengthAdjust="spacing" textLength="128" x="509.5" y="259.1045">retrieve(workoutName)</text><polygon fill="#181818" points="513.5,291.6582,503.5,295.6582,513.5,299.6582" style="stroke:#181818;stroke-width:1.0;"/><line style="stroke:#181818;stroke-width:1.0;stroke-dasharray:2.0,2.0;" x1="507.5" x2="885" y1="295.6582" y2="295.6582"/><text fill="#000000" font-family="sans-serif" font-size="13" lengthAdjust="spacing" textLength="45" x="519.5" y="290.3955">workout</text><line style="stroke:#181818;stroke-width:1.0;" x1="502.5" x2="549.5" y1="321.9492" y2="321.9492"/><line style="stroke:#181818;stroke-width:1.0;" x1="549.5" x2="549.5" y1="321.9492" y2="334.9492"/><line style="stroke:#181818;stroke-width:1.0;" x1="508.5" x2="549.5" y1="334.9492" y2="334.9492"/><polygon fill="#181818" points="518.5,330.9492,508.5,334.9492,518.5,338.9492" style="stroke:#181818;stroke-width:1.0;"/><text fill="#000000" font-family="sans-serif" font-size="13" lengthAdjust="spacing" textLength="206" x="514.5" y="316.6865">assignWorkoutToDay(workout, day)</text><line style="stroke:#181818;stroke-width:1.0;stroke-dasharray:2.0,2.0;" x1="507.5" x2="549.5" y1="376.2402" y2="376.2402"/><line style="stroke:#181818;stroke-width:1.0;stroke-dasharray:2.0,2.0;" x1="549.5" x2="549.5" y1="376.2402" y2="389.2402"/><line style="stroke:#181818;stroke-width:1.0;stroke-dasharray:2.0,2.0;" x1="502.5" x2="549.5" y1="389.2402" y2="389.2402"/><polygon fill="#181818" points="512.5,385.2402,502.5,389.2402,512.5,393.2402" style="stroke:#181818;stroke-width:1.0;"/><text fill="#000000" font-family="sans-serif" font-size="13" lengthAdjust="spacing" textLength="94" x="514.5" y="370.9775">messageToUser</text><line style="stroke:#181818;stroke-width:1.0;stroke-dasharray:2.0,2.0;" x1="502.5" x2="544.5" y1="420.5313" y2="420.5313"/><line style="stroke:#181818;stroke-width:1.0;stroke-dasharray:2.0,2.0;" x1="544.5" x2="544.5" y1="420.5313" y2="433.5313"/><line style="stroke:#181818;stroke-width:1.0;stroke-dasharray:2.0,2.0;" x1="497.5" x2="544.5" y1="433.5313" y2="433.5313"/><polygon fill="#181818" points="507.5,429.5313,497.5,433.5313,507.5,437.5313" style="stroke:#181818;stroke-width:1.0;"/><text fill="#000000" font-family="sans-serif" font-size="13" lengthAdjust="spacing" textLength="94" x="509.5" y="415.2686">messageToUser</text><polygon fill="#181818" points="68.5,455.8223,58.5,459.8223,68.5,463.8223" style="stroke:#181818;stroke-width:1.0;"/><line style="stroke:#181818;stroke-width:1.0;stroke-dasharray:2.0,2.0;" x1="62.5" x2="486.5" y1="459.8223" y2="459.8223"/><text fill="#000000" font-family="sans-serif" font-size="13" lengthAdjust="spacing" textLength="94" x="74.5" y="454.5596">messageToUser</text><polygon fill="#181818" points="259.5,487.1133,269.5,491.1133,259.5,495.1133" style="stroke:#181818;stroke-width:1.0;"/><line style="stroke:#181818;stroke-width:1.0;" x1="57.5" x2="265.5" y1="491.1133" y2="491.1133"/><text fill="#000000" font-family="sans-serif" font-size="13" lengthAdjust="spacing" textLength="180" x="64.5" y="485.8506">printMessage(messageToUser)</text><polygon fill="#181818" points="68.5,501.1133,58.5,505.1133,68.5,509.1133" style="stroke:#181818;stroke-width:1.0;"/><line style="stroke:#181818;stroke-width:1.0;stroke-dasharray:2.0,2.0;" x1="62.5" x2="275.5" y1="505.1133" y2="505.1133"/><line style="stroke:#000000;stroke-width:1.0;stroke-dasharray:2.0,2.0;" x1="10" x2="959.5" y1="514.1133" y2="514.1133"/><text fill="#000000" font-family="sans-serif" font-size="11" font-weight="bold" lengthAdjust="spacing" textLength="117" x="15" y="525.9834">[Input validation fails]</text><polygon fill="#181818" points="68.5,531.7441,58.5,535.7441,68.5,539.7441" style="stroke:#181818;stroke-width:1.0;"/><line style="stroke:#181818;stroke-width:1.0;stroke-dasharray:2.0,2.0;" x1="62.5" x2="491.5" y1="535.7441" y2="535.7441"/><polygon fill="#181818" points="259.5,563.0352,269.5,567.0352,259.5,571.0352" style="stroke:#181818;stroke-width:1.0;"/><line style="stroke:#181818;stroke-width:1.0;" x1="57.5" x2="265.5" y1="567.0352" y2="567.0352"/><text fill="#000000" font-family="sans-serif" font-size="13" lengthAdjust="spacing" textLength="195" x="64.5" y="561.7725">printMessage(exceptionMessage)</text><polygon fill="#181818" points="68.5,577.0352,58.5,581.0352,68.5,585.0352" style="stroke:#181818;stroke-width:1.0;"/><line style="stroke:#181818;stroke-width:1.0;stroke-dasharray:2.0,2.0;" x1="62.5" x2="275.5" y1="581.0352" y2="581.0352"/><!--SRC=[jLJBRi8m4BpxAonEgLIadgEg4gKN3bH8fUrvwop8mh4Zsw6aNryxX8137g1I3f6rZvcTmLwpuJ833Ibb0eoPMAlvLsvnnfHyupz87uYfIumj1BglvipcgI34XIrdF0DfwNDXSOgP2OBl1lLCMjGhO1XaHl42jCkE6j5Fn8qe5bgj7UCS9AoRDK751mYUW5Mw2QFqHkMs1Y27yUZuwSWTqymVPZBBRPINixhJ7G5c-HOidanPzp-EnoS09C6-ufAiLL9CSOVCEHsL8-Y0jDs4ZhWdQVSafjlz4QSgJK4cDTUHhCFDBYwllhs51bvqm18GbfOc7qRZIbAJCuR6h791gFlrw1moSs8CNyi9yx2rM8yvQEumSNYZOghHFGJSOlIzpxn2YkTaZNjOqOHHEkwJLi6NhS5jwy2-qZiQKoXTg-2MwWMAWwPxca1n2mTx-LFtvxlpKlbrqQBpbdJ_n5Q_-3RyqtKGR4ItVpINThxlY8BEXklX9lMf8D8OeYahx4PXyFmLhe0BSx7G-1hdBZK0TmmpFqmL-8C7GnR8P7XT_G80]--></g></svg>