<?xml version="1.0" encoding="us-ascii" standalone="no"?><svg xmlns="http://www.w3.org/2000/svg" xmlns:xlink="http://www.w3.org/1999/xlink" contentStyleType="text/css" height="858px" preserveAspectRatio="none" style="width:1150px;height:858px;background:#FFFFFF;" version="1.1" viewBox="0 0 1150 858" width="1150px" zoomAndPan="magnify"><defs/><g><rect fill="#FFFFFF" height="14" style="stroke:#181818;stroke-width:1.0;" width="10" x="317.5" y="750.1504"/><rect fill="#FFFFFF" height="14" style="stroke:#181818;stroke-width:1.0;" width="10" x="317.5" y="812.0723"/><rect fill="#FFFFFF" height="14" style="stroke:#181818;stroke-width:1.0;" width="10" x="406.5" y="71.9121"/><rect fill="#FFFFFF" height="723.8691" style="stroke:#181818;stroke-width:1.0;" width="10" x="510" y="117.2031"/><rect fill="#FFBBBB" height="452.4922" style="stroke:#181818;stroke-width:1.0;" width="10" x="515" y="228.0762"/><rect fill="#FFFFFF" height="150.1641" style="stroke:#181818;stroke-width:1.0;" width="10" x="520" y="486.1133"/><rect fill="#FFFFFF" height="14" style="stroke:#181818;stroke-width:1.0;" width="10" x="703" y="148.4941"/><rect fill="#FFFFFF" height="577.7051" style="stroke:#181818;stroke-width:1.0;" width="10" x="840" y="264.3672"/><rect fill="#FFFFFF" height="104.873" style="stroke:#181818;stroke-width:1.0;" width="10" x="845" y="303.6582"/><rect fill="#FFFFFF" height="68.582" style="stroke:#181818;stroke-width:1.0;" width="10" x="1012" y="339.9492"/><rect fill="#FFFFFF" height="31.291" style="stroke:#181818;stroke-width:1.0;" width="10" x="1093" y="522.4043"/><rect fill="#FFFFFF" height="14" style="stroke:#181818;stroke-width:1.0;" width="10" x="1093" y="584.9863"/><rect fill="none" height="656.5781" style="stroke:#000000;stroke-width:1.5;" width="1133.5" x="10" y="177.4941"/><line style="stroke:#181818;stroke-width:0.5;stroke-dasharray:5.0,5.0;" x1="57" x2="57" y1="38.6211" y2="851.0723"/><line style="stroke:#181818;stroke-width:0.5;stroke-dasharray:5.0,5.0;" x1="322.5" x2="322.5" y1="38.6211" y2="851.0723"/><line style="stroke:#181818;stroke-width:0.5;stroke-dasharray:5.0,5.0;" x1="411.5" x2="411.5" y1="38.6211" y2="851.0723"/><line style="stroke:#181818;stroke-width:0.5;stroke-dasharray:5.0,5.0;" x1="514.5" x2="514.5" y1="38.6211" y2="851.0723"/><line style="stroke:#181818;stroke-width:0.5;stroke-dasharray:5.0,5.0;" x1="707.5" x2="707.5" y1="38.6211" y2="851.0723"/><line style="stroke:#181818;stroke-width:0.5;stroke-dasharray:5.0,5.0;" x1="844.5" x2="844.5" y1="38.6211" y2="851.0723"/><line style="stroke:#181818;stroke-width:0.5;stroke-dasharray:5.0,5.0;" x1="1016.5" x2="1016.5" y1="38.6211" y2="851.0723"/><line style="stroke:#181818;stroke-width:0.5;stroke-dasharray:5.0,5.0;" x1="1097.5" x2="1097.5" y1="38.6211" y2="851.0723"/><rect fill="#E2E2F0" height="32.6211" rx="2.5" ry="2.5" style="stroke:#181818;stroke-width:0.5;" width="75" x="20" y="5"/><text fill="#000000" font-family="sans-serif" font-size="14" lengthAdjust="spacing" textLength="61" x="27" y="27.1074">ByteCeps</text><rect fill="#E2E2F0" height="32.6211" rx="2.5" ry="2.5" style="stroke:#181818;stroke-width:0.5;" width="98" x="273.5" y="5"/><text fill="#000000" font-family="sans-serif" font-size="14" lengthAdjust="spacing" textLength="84" x="280.5" y="27.1074">UserInterface</text><rect fill="#E2E2F0" height="32.6211" rx="2.5" ry="2.5" style="stroke:#181818;stroke-width:0.5;" width="60" x="381.5" y="5"/><text fill="#000000" font-family="sans-serif" font-size="14" lengthAdjust="spacing" textLength="46" x="388.5" y="27.1074">:Parser</text><rect fill="#E2E2F0" height="32.6211" rx="2.5" ry="2.5" style="stroke:#181818;stroke-width:0.5;" width="127" x="451.5" y="5"/><text fill="#000000" font-family="sans-serif" font-size="14" lengthAdjust="spacing" textLength="113" x="458.5" y="27.1074">:WorkoutManager</text><rect fill="#E2E2F0" height="32.6211" rx="2.5" ry="2.5" style="stroke:#181818;stroke-width:0.5;" width="127" x="644.5" y="5"/><text fill="#000000" font-family="sans-serif" font-size="14" lengthAdjust="spacing" textLength="113" x="651.5" y="27.1074">:WorkoutValidator</text><rect fill="#E2E2F0" height="32.6211" rx="2.5" ry="2.5" style="stroke:#181818;stroke-width:0.5;" width="127" x="781.5" y="5"/><text fill="#000000" font-family="sans-serif" font-size="14" lengthAdjust="spacing" textLength="113" x="788.5" y="27.1074">:ExerciseManager</text><rect fill="#E2E2F0" height="32.6211" rx="2.5" ry="2.5" style="stroke:#181818;stroke-width:0.5;" width="71" x="981.5" y="5"/><text fill="#000000" font-family="sans-serif" font-size="14" lengthAdjust="spacing" textLength="57" x="988.5" y="27.1074">:Exercise</text><rect fill="#E2E2F0" height="32.6211" rx="2.5" ry="2.5" style="stroke:#181818;stroke-width:0.5;" width="71" x="1062.5" y="5"/><text fill="#000000" font-family="sans-serif" font-size="14" lengthAdjust="spacing" textLength="57" x="1069.5" y="27.1074">:Workout</text><rect fill="#FFFFFF" height="14" style="stroke:#181818;stroke-width:1.0;" width="10" x="317.5" y="750.1504"/><rect fill="#FFFFFF" height="14" style="stroke:#181818;stroke-width:1.0;" width="10" x="317.5" y="812.0723"/><rect fill="#FFFFFF" height="14" style="stroke:#181818;stroke-width:1.0;" width="10" x="406.5" y="71.9121"/><rect fill="#FFFFFF" height="723.8691" style="stroke:#181818;stroke-width:1.0;" width="10" x="510" y="117.2031"/><rect fill="#FFBBBB" height="452.4922" style="stroke:#181818;stroke-width:1.0;" width="10" x="515" y="228.0762"/><rect fill="#FFFFFF" height="150.1641" style="stroke:#181818;stroke-width:1.0;" width="10" x="520" y="486.1133"/><rect fill="#FFFFFF" height="14" style="stroke:#181818;stroke-width:1.0;" width="10" x="703" y="148.4941"/><rect fill="#FFFFFF" height="577.7051" style="stroke:#181818;stroke-width:1.0;" width="10" x="840" y="264.3672"/><rect fill="#FFFFFF" height="104.873" style="stroke:#181818;stroke-width:1.0;" width="10" x="845" y="303.6582"/><rect fill="#FFFFFF" height="68.582" style="stroke:#181818;stroke-width:1.0;" width="10" x="1012" y="339.9492"/><rect fill="#FFFFFF" height="31.291" style="stroke:#181818;stroke-width:1.0;" width="10" x="1093" y="522.4043"/><rect fill="#FFFFFF" height="14" style="stroke:#181818;stroke-width:1.0;" width="10" x="1093" y="584.9863"/><polygon fill="#181818" points="394.5,67.9121,404.5,71.9121,394.5,75.9121" style="stroke:#181818;stroke-width:1.0;"/><line style="stroke:#181818;stroke-width:1.0;" x1="57.5" x2="400.5" y1="71.9121" y2="71.9121"/><text fill="#000000" font-family="sans-serif" font-size="13" lengthAdjust="spacing" textLength="121" x="64.5" y="66.6494">parseInput(userInput)</text><polygon fill="#181818" points="68.5,81.9121,58.5,85.9121,68.5,89.9121" style="stroke:#181818;stroke-width:1.0;"/><line style="stroke:#181818;stroke-width:1.0;stroke-dasharray:2.0,2.0;" x1="62.5" x2="410.5" y1="85.9121" y2="85.9121"/><polygon fill="#181818" points="498,113.2031,508,117.2031,498,121.2031" style="stroke:#181818;stroke-width:1.0;"/><line style="stroke:#181818;stroke-width:1.0;" x1="57.5" x2="504" y1="117.2031" y2="117.2031"/><text fill="#000000" font-family="sans-serif" font-size="13" lengthAdjust="spacing" textLength="90" x="64.5" y="111.9404">execute(parser)</text><polygon fill="#181818" points="691,144.4941,701,148.4941,691,152.4941" style="stroke:#181818;stroke-width:1.0;"/><line style="stroke:#181818;stroke-width:1.0;" x1="520" x2="697" y1="148.4941" y2="148.4941"/><text fill="#000000" font-family="sans-serif" font-size="13" lengthAdjust="spacing" textLength="148" x="527" y="143.2314">validateCommand(Parser)</text><polygon fill="#181818" points="531,158.4941,521,162.4941,531,166.4941" style="stroke:#181818;stroke-width:1.0;"/><line style="stroke:#181818;stroke-width:1.0;stroke-dasharray:2.0,2.0;" x1="525" x2="707" y1="162.4941" y2="162.4941"/><path d="M10,177.4941 L71,177.4941 L71,186.7852 L61,196.7852 L10,196.7852 L10,177.4941 " fill="#EEEEEE" style="stroke:#000000;stroke-width:1.5;"/><rect fill="none" height="656.5781" style="stroke:#000000;stroke-width:1.5;" width="1133.5" x="10" y="177.4941"/><text fill="#000000" font-family="sans-serif" font-size="13" font-weight="bold" lengthAdjust="spacing" textLength="16" x="25" y="192.5225">alt</text><text fill="#000000" font-family="sans-serif" font-size="11" font-weight="bold" lengthAdjust="spacing" textLength="126" x="86" y="191.3643">[Validation successful]</text><line style="stroke:#181818;stroke-width:1.0;" x1="520" x2="567" y1="215.0762" y2="215.0762"/><line style="stroke:#181818;stroke-width:1.0;" x1="567" x2="567" y1="215.0762" y2="228.0762"/><line style="stroke:#181818;stroke-width:1.0;" x1="526" x2="567" y1="228.0762" y2="228.0762"/><polygon fill="#181818" points="536,224.0762,526,228.0762,536,232.0762" style="stroke:#181818;stroke-width:1.0;"/><text fill="#000000" font-family="sans-serif" font-size="13" lengthAdjust="spacing" textLength="169" x="532" y="209.8135">executeAssignAction(Parser)</text><polygon fill="#181818" points="828,260.3672,838,264.3672,828,268.3672" style="stroke:#181818;stroke-width:1.0;"/><line style="stroke:#181818;stroke-width:1.0;" x1="525" x2="834" y1="264.3672" y2="264.3672"/><text fill="#000000" font-family="sans-serif" font-size="13" lengthAdjust="spacing" textLength="104" x="532" y="259.1045">retrieve('Pushups')</text><line style="stroke:#181818;stroke-width:1.0;" x1="850" x2="897" y1="290.6582" y2="290.6582"/><line style="stroke:#181818;stroke-width:1.0;" x1="897" x2="897" y1="290.6582" y2="303.6582"/><line style="stroke:#181818;stroke-width:1.0;" x1="856" x2="897" y1="303.6582" y2="303.6582"/><polygon fill="#181818" points="866,299.6582,856,303.6582,866,307.6582" style="stroke:#181818;stroke-width:1.0;"/><text fill="#000000" font-family="sans-serif" font-size="13" lengthAdjust="spacing" textLength="104" x="862" y="285.3955">retrieve('Pushups')</text><polygon fill="#181818" points="1000,335.9492,1010,339.9492,1000,343.9492" style="stroke:#181818;stroke-width:1.0;"/><line style="stroke:#181818;stroke-width:1.0;" x1="855" x2="1006" y1="339.9492" y2="339.9492"/><text fill="#000000" font-family="sans-serif" font-size="13" lengthAdjust="spacing" textLength="133" x="862" y="334.6865">findByName('Pushups')</text><polygon fill="#181818" points="866,367.2402,856,371.2402,866,375.2402" style="stroke:#181818;stroke-width:1.0;"/><line style="stroke:#181818;stroke-width:1.0;stroke-dasharray:2.0,2.0;" x1="860" x2="1011" y1="371.2402" y2="371.2402"/><text fill="#000000" font-family="sans-serif" font-size="13" lengthAdjust="spacing" textLength="133" x="872" y="365.9775">return existingExercise</text><line style="stroke:#181818;stroke-width:1.0;stroke-dasharray:2.0,2.0;" x1="855" x2="897" y1="407.5313" y2="407.5313"/><line style="stroke:#181818;stroke-width:1.0;stroke-dasharray:2.0,2.0;" x1="897" x2="897" y1="407.5313" y2="420.5313"/><line style="stroke:#181818;stroke-width:1.0;stroke-dasharray:2.0,2.0;" x1="850" x2="897" y1="420.5313" y2="420.5313"/><polygon fill="#181818" points="860,416.5313,850,420.5313,860,424.5313" style="stroke:#181818;stroke-width:1.0;"/><text fill="#000000" font-family="sans-serif" font-size="13" lengthAdjust="spacing" textLength="96" x="862" y="402.2686">existingExercise</text><polygon fill="#181818" points="536,442.8223,526,446.8223,536,450.8223" style="stroke:#181818;stroke-width:1.0;"/><line style="stroke:#181818;stroke-width:1.0;stroke-dasharray:2.0,2.0;" x1="530" x2="839" y1="446.8223" y2="446.8223"/><text fill="#000000" font-family="sans-serif" font-size="13" lengthAdjust="spacing" textLength="133" x="542" y="441.5596">return existingExercise</text><line style="stroke:#181818;stroke-width:1.0;" x1="525" x2="572" y1="473.1133" y2="473.1133"/><line style="stroke:#181818;stroke-width:1.0;" x1="572" x2="572" y1="473.1133" y2="486.1133"/><line style="stroke:#181818;stroke-width:1.0;" x1="531" x2="572" y1="486.1133" y2="486.1133"/><polygon fill="#181818" points="541,482.1133,531,486.1133,541,490.1133" style="stroke:#181818;stroke-width:1.0;"/><text fill="#000000" font-family="sans-serif" font-size="13" lengthAdjust="spacing" textLength="97" x="537" y="467.8506">retrieve('LegDay')</text><polygon fill="#181818" points="1081,518.4043,1091,522.4043,1081,526.4043" style="stroke:#181818;stroke-width:1.0;"/><line style="stroke:#181818;stroke-width:1.0;" x1="530" x2="1087" y1="522.4043" y2="522.4043"/><text fill="#000000" font-family="sans-serif" font-size="13" lengthAdjust="spacing" textLength="126" x="537" y="517.1416">findByName('LegDay')</text><polygon fill="#181818" points="541,549.6953,531,553.6953,541,557.6953" style="stroke:#181818;stroke-width:1.0;"/><line style="stroke:#181818;stroke-width:1.0;stroke-dasharray:2.0,2.0;" x1="535" x2="1097" y1="553.6953" y2="553.6953"/><text fill="#000000" font-family="sans-serif" font-size="13" lengthAdjust="spacing" textLength="131" x="547" y="548.4326">return existingWorkout</text><polygon fill="#181818" points="1081,580.9863,1091,584.9863,1081,588.9863" style="stroke:#181818;stroke-width:1.0;"/><line style="stroke:#181818;stroke-width:1.0;" x1="530" x2="1087" y1="584.9863" y2="584.9863"/><text fill="#000000" font-family="sans-serif" font-size="13" lengthAdjust="spacing" textLength="176" x="537" y="579.7236">addExercise(existingExercise)</text><polygon fill="#181818" points="541,594.9863,531,598.9863,541,602.9863" style="stroke:#181818;stroke-width:1.0;"/><line style="stroke:#181818;stroke-width:1.0;stroke-dasharray:2.0,2.0;" x1="535" x2="1097" y1="598.9863" y2="598.9863"/><line style="stroke:#181818;stroke-width:1.0;stroke-dasharray:2.0,2.0;" x1="530" x2="572" y1="635.2773" y2="635.2773"/><line style="stroke:#181818;stroke-width:1.0;stroke-dasharray:2.0,2.0;" x1="572" x2="572" y1="635.2773" y2="648.2773"/><line style="stroke:#181818;stroke-width:1.0;stroke-dasharray:2.0,2.0;" x1="525" x2="572" y1="648.2773" y2="648.2773"/><polygon fill="#181818" points="535,644.2773,525,648.2773,535,652.2773" style="stroke:#181818;stroke-width:1.0;"/><text fill="#000000" font-family="sans-serif" font-size="13" lengthAdjust="spacing" textLength="131" x="537" y="630.0146">return existingWorkout</text><line style="stroke:#181818;stroke-width:1.0;stroke-dasharray:2.0,2.0;" x1="525" x2="567" y1="679.5684" y2="679.5684"/><line style="stroke:#181818;stroke-width:1.0;stroke-dasharray:2.0,2.0;" x1="567" x2="567" y1="679.5684" y2="692.5684"/><line style="stroke:#181818;stroke-width:1.0;stroke-dasharray:2.0,2.0;" x1="520" x2="567" y1="692.5684" y2="692.5684"/><polygon fill="#181818" points="530,688.5684,520,692.5684,530,696.5684" style="stroke:#181818;stroke-width:1.0;"/><text fill="#000000" font-family="sans-serif" font-size="13" lengthAdjust="spacing" textLength="131" x="532" y="674.3057">return messageToUser</text><polygon fill="#181818" points="68.5,714.8594,58.5,718.8594,68.5,722.8594" style="stroke:#181818;stroke-width:1.0;"/><line style="stroke:#181818;stroke-width:1.0;stroke-dasharray:2.0,2.0;" x1="62.5" x2="509" y1="718.8594" y2="718.8594"/><text fill="#000000" font-family="sans-serif" font-size="13" lengthAdjust="spacing" textLength="94" x="74.5" y="713.5967">messageToUser</text><polygon fill="#181818" points="305.5,746.1504,315.5,750.1504,305.5,754.1504" style="stroke:#181818;stroke-width:1.0;"/><line style="stroke:#181818;stroke-width:1.0;" x1="57.5" x2="311.5" y1="750.1504" y2="750.1504"/><text fill="#000000" font-family="sans-serif" font-size="13" lengthAdjust="spacing" textLength="180" x="64.5" y="744.8877">printMessage(messageToUser)</text><polygon fill="#181818" points="68.5,760.1504,58.5,764.1504,68.5,768.1504" style="stroke:#181818;stroke-width:1.0;"/><line style="stroke:#181818;stroke-width:1.0;stroke-dasharray:2.0,2.0;" x1="62.5" x2="321.5" y1="764.1504" y2="764.1504"/><line style="stroke:#A80036;stroke-width:2.0;" x1="1089" x2="1107" y1="755.1504" y2="773.1504"/><line style="stroke:#A80036;stroke-width:2.0;" x1="1089" x2="1107" y1="773.1504" y2="755.1504"/><line style="stroke:#A80036;stroke-width:2.0;" x1="1008" x2="1026" y1="755.1504" y2="773.1504"/><line style="stroke:#A80036;stroke-width:2.0;" x1="1008" x2="1026" y1="773.1504" y2="755.1504"/><line style="stroke:#000000;stroke-width:1.0;stroke-dasharray:2.0,2.0;" x1="10" x2="1143.5" y1="773.1504" y2="773.1504"/><text fill="#000000" font-family="sans-serif" font-size="11" font-weight="bold" lengthAdjust="spacing" textLength="88" x="15" y="785.0205">[Validation fails]</text><polygon fill="#181818" points="305.5,808.0723,315.5,812.0723,305.5,816.0723" style="stroke:#181818;stroke-width:1.0;"/><line style="stroke:#181818;stroke-width:1.0;" x1="57.5" x2="311.5" y1="812.0723" y2="812.0723"/><text fill="#000000" font-family="sans-serif" font-size="13" lengthAdjust="spacing" textLength="241" x="64.5" y="806.8096">printMessage(exceptionMessage : String)</text><polygon fill="#181818" points="68.5,822.0723,58.5,826.0723,68.5,830.0723" style="stroke:#181818;stroke-width:1.0;"/><line style="stroke:#181818;stroke-width:1.0;stroke-dasharray:2.0,2.0;" x1="62.5" x2="321.5" y1="826.0723" y2="826.0723"/><!--SRC=[lLLDRzim3BthLmZT8TuXmCx1C21fLo30EWJekfqvcV64shAXZo3UhnzjnuwbogxN0VF1a4c-H_A9biopL1LeABZ8mPYjjLh-T1RtebIFyZVo3ymC8SRMET9RIs5TaJD6PYk5h41Plgijtc9bE1Z-P51xpiQmLnRr4GHwdflD0JHvRnfSjmpyFqhzN3hx00goIvnlYiT_XrocOCiECNm5mP_Fg8KqE6OFR1C8BpHUmhXMnXeD-FhJfKc-uLMpsAlAsSIr-j3gFGDXvGaizcAqi8_hTV-TOXWnCFkoK0Oyew3DJDfCUiGT2CW2974DWX7DgLlZRLaKeDBa4D9TrRt2rh62njLVGGnost_AKd7ZX41ZZev6ZDFpihgfJhV6o4njHKCpbDbGJ7JEtztVx-YPoXEC0YNIIEEF9qnM1sT-kSgiWWJXz3JEaEQ_C1FbKQfqLt-5udLIZwtTl6Y5JYlIMXehLHQ53eL46QBGqKp4Meou9pE-c8kfaXSFrdLNlc1s1_LgTfxcMOCTcIKSCorgROmRIJOSFwzL1cdQgvE4ShsnnB-gvPzRNFHBpsGfwCWXoxUolRsMvPX8yTGTy3vZ6zmVrTw5I5U1bie-TE691mkazo_Idd6m3Dd3-dtSnKitULbpNzNETlrFC3SuFfkF87Epk1Ky2wmQtCL0eZpI_wIoDxQrcUyBLShOvAv5hiu_]--></g></svg>