<?xml version="1.0" encoding="us-ascii" standalone="no"?><svg xmlns="http://www.w3.org/2000/svg" xmlns:xlink="http://www.w3.org/1999/xlink" contentStyleType="text/css" height="772.2px" preserveAspectRatio="none" style="width:1035px;height:772px;background:#FFFFFF;" version="1.1" viewBox="0 0 1035 772" width="1035px" zoomAndPan="magnify"><defs/><g><rect fill="#FFFFFF" height="12.6" style="stroke:#181818;stroke-width:0.9;" width="9" x="285.75" y="675.1354"/><rect fill="#FFFFFF" height="12.6" style="stroke:#181818;stroke-width:0.9;" width="9" x="285.75" y="730.865"/><rect fill="#FFFFFF" height="12.6" style="stroke:#181818;stroke-width:0.9;" width="9" x="365.85" y="64.7209"/><rect fill="#FFFFFF" height="651.4822" style="stroke:#181818;stroke-width:0.9;" width="9" x="459" y="105.4828"/><rect fill="#FFBBBB" height="407.243" style="stroke:#181818;stroke-width:0.9;" width="9" x="463.5" y="205.2686"/><rect fill="#FFFFFF" height="135.1477" style="stroke:#181818;stroke-width:0.9;" width="9" x="468" y="437.502"/><rect fill="#FFFFFF" height="12.6" style="stroke:#181818;stroke-width:0.9;" width="9" x="632.7" y="133.6447"/><rect fill="#FFFFFF" height="519.9346" style="stroke:#181818;stroke-width:0.9;" width="9" x="756" y="237.9305"/><rect fill="#FFFFFF" height="94.3857" style="stroke:#181818;stroke-width:0.9;" width="9" x="760.5" y="273.2924"/><rect fill="#FFFFFF" height="61.7238" style="stroke:#181818;stroke-width:0.9;" width="9" x="910.8" y="305.9543"/><rect fill="#FFFFFF" height="28.1619" style="stroke:#181818;stroke-width:0.9;" width="9" x="983.7" y="470.1639"/><rect fill="#FFFFFF" height="12.6" style="stroke:#181818;stroke-width:0.9;" width="9" x="983.7" y="526.4877"/><rect fill="none" height="590.9203" style="stroke:#000000;stroke-width:1.35;" width="1020.15" x="9" y="159.7447"/><line style="stroke:#181818;stroke-width:0.45;stroke-dasharray:5.0,5.0;" x1="51.3" x2="51.3" y1="34.759" y2="765.965"/><line style="stroke:#181818;stroke-width:0.45;stroke-dasharray:5.0,5.0;" x1="290.25" x2="290.25" y1="34.759" y2="765.965"/><line style="stroke:#181818;stroke-width:0.45;stroke-dasharray:5.0,5.0;" x1="370.35" x2="370.35" y1="34.759" y2="765.965"/><line style="stroke:#181818;stroke-width:0.45;stroke-dasharray:5.0,5.0;" x1="463.05" x2="463.05" y1="34.759" y2="765.965"/><line style="stroke:#181818;stroke-width:0.45;stroke-dasharray:5.0,5.0;" x1="636.75" x2="636.75" y1="34.759" y2="765.965"/><line style="stroke:#181818;stroke-width:0.45;stroke-dasharray:5.0,5.0;" x1="760.05" x2="760.05" y1="34.759" y2="765.965"/><line style="stroke:#181818;stroke-width:0.45;stroke-dasharray:5.0,5.0;" x1="914.85" x2="914.85" y1="34.759" y2="765.965"/><line style="stroke:#181818;stroke-width:0.45;stroke-dasharray:5.0,5.0;" x1="987.75" x2="987.75" y1="34.759" y2="765.965"/><rect fill="#E2E2F0" height="29.359" rx="2.25" ry="2.25" style="stroke:#181818;stroke-width:0.45;" width="67.5" x="18" y="4.5"/><text fill="#000000" font-family="sans-serif" font-size="12.6" lengthAdjust="spacing" textLength="54.9" x="24.3" y="24.3967">ByteCeps</text><rect fill="#E2E2F0" height="29.359" rx="2.25" ry="2.25" style="stroke:#181818;stroke-width:0.45;" width="88.2" x="246.15" y="4.5"/><text fill="#000000" font-family="sans-serif" font-size="12.6" lengthAdjust="spacing" textLength="75.6" x="252.45" y="24.3967">UserInterface</text><rect fill="#E2E2F0" height="29.359" rx="2.25" ry="2.25" style="stroke:#181818;stroke-width:0.45;" width="54" x="343.35" y="4.5"/><text fill="#000000" font-family="sans-serif" font-size="12.6" lengthAdjust="spacing" textLength="41.4" x="349.65" y="24.3967">:Parser</text><rect fill="#E2E2F0" height="29.359" rx="2.25" ry="2.25" style="stroke:#181818;stroke-width:0.45;" width="114.3" x="406.35" y="4.5"/><text fill="#000000" font-family="sans-serif" font-size="12.6" lengthAdjust="spacing" textLength="101.7" x="412.65" y="24.3967">:WorkoutManager</text><rect fill="#E2E2F0" height="29.359" rx="2.25" ry="2.25" style="stroke:#181818;stroke-width:0.45;" width="114.3" x="580.05" y="4.5"/><text fill="#000000" font-family="sans-serif" font-size="12.6" lengthAdjust="spacing" textLength="101.7" x="586.35" y="24.3967">:WorkoutValidator</text><rect fill="#E2E2F0" height="29.359" rx="2.25" ry="2.25" style="stroke:#181818;stroke-width:0.45;" width="114.3" x="703.35" y="4.5"/><text fill="#000000" font-family="sans-serif" font-size="12.6" lengthAdjust="spacing" textLength="101.7" x="709.65" y="24.3967">:ExerciseManager</text><rect fill="#E2E2F0" height="29.359" rx="2.25" ry="2.25" style="stroke:#181818;stroke-width:0.45;" width="63.9" x="883.35" y="4.5"/><text fill="#000000" font-family="sans-serif" font-size="12.6" lengthAdjust="spacing" textLength="51.3" x="889.65" y="24.3967">:Exercise</text><rect fill="#E2E2F0" height="29.359" rx="2.25" ry="2.25" style="stroke:#181818;stroke-width:0.45;" width="63.9" x="956.25" y="4.5"/><text fill="#000000" font-family="sans-serif" font-size="12.6" lengthAdjust="spacing" textLength="51.3" x="962.55" y="24.3967">:Workout</text><rect fill="#FFFFFF" height="12.6" style="stroke:#181818;stroke-width:0.9;" width="9" x="285.75" y="675.1354"/><rect fill="#FFFFFF" height="12.6" style="stroke:#181818;stroke-width:0.9;" width="9" x="285.75" y="730.865"/><rect fill="#FFFFFF" height="12.6" style="stroke:#181818;stroke-width:0.9;" width="9" x="365.85" y="64.7209"/><rect fill="#FFFFFF" height="651.4822" style="stroke:#181818;stroke-width:0.9;" width="9" x="459" y="105.4828"/><rect fill="#FFBBBB" height="407.243" style="stroke:#181818;stroke-width:0.9;" width="9" x="463.5" y="205.2686"/><rect fill="#FFFFFF" height="135.1477" style="stroke:#181818;stroke-width:0.9;" width="9" x="468" y="437.502"/><rect fill="#FFFFFF" height="12.6" style="stroke:#181818;stroke-width:0.9;" width="9" x="632.7" y="133.6447"/><rect fill="#FFFFFF" height="519.9346" style="stroke:#181818;stroke-width:0.9;" width="9" x="756" y="237.9305"/><rect fill="#FFFFFF" height="94.3857" style="stroke:#181818;stroke-width:0.9;" width="9" x="760.5" y="273.2924"/><rect fill="#FFFFFF" height="61.7238" style="stroke:#181818;stroke-width:0.9;" width="9" x="910.8" y="305.9543"/><rect fill="#FFFFFF" height="28.1619" style="stroke:#181818;stroke-width:0.9;" width="9" x="983.7" y="470.1639"/><rect fill="#FFFFFF" height="12.6" style="stroke:#181818;stroke-width:0.9;" width="9" x="983.7" y="526.4877"/><polygon fill="#181818" points="355.05,61.1209,364.05,64.7209,355.05,68.3209" style="stroke:#181818;stroke-width:0.9;"/><line style="stroke:#181818;stroke-width:0.9;" x1="51.75" x2="360.45" y1="64.7209" y2="64.7209"/><text fill="#000000" font-family="sans-serif" font-size="11.7" lengthAdjust="spacing" textLength="108.9" x="58.05" y="59.9845">parseInput(userInput)</text><polygon fill="#181818" points="61.65,73.7209,52.65,77.3209,61.65,80.9209" style="stroke:#181818;stroke-width:0.9;"/><line style="stroke:#181818;stroke-width:0.9;stroke-dasharray:2.0,2.0;" x1="56.25" x2="369.45" y1="77.3209" y2="77.3209"/><polygon fill="#181818" points="448.2,101.8828,457.2,105.4828,448.2,109.0828" style="stroke:#181818;stroke-width:0.9;"/><line style="stroke:#181818;stroke-width:0.9;" x1="51.75" x2="453.6" y1="105.4828" y2="105.4828"/><text fill="#000000" font-family="sans-serif" font-size="11.7" lengthAdjust="spacing" textLength="81" x="58.05" y="100.7464">execute(parser)</text><polygon fill="#181818" points="621.9,130.0447,630.9,133.6447,621.9,137.2447" style="stroke:#181818;stroke-width:0.9;"/><line style="stroke:#181818;stroke-width:0.9;" x1="468" x2="627.3" y1="133.6447" y2="133.6447"/><text fill="#000000" font-family="sans-serif" font-size="11.7" lengthAdjust="spacing" textLength="133.2" x="474.3" y="128.9083">validateCommand(Parser)</text><polygon fill="#181818" points="477.9,142.6447,468.9,146.2447,477.9,149.8447" style="stroke:#181818;stroke-width:0.9;"/><line style="stroke:#181818;stroke-width:0.9;stroke-dasharray:2.0,2.0;" x1="472.5" x2="636.3" y1="146.2447" y2="146.2447"/><path d="M9,159.7447 L63.9,159.7447 L63.9,168.1066 L54.9,177.1066 L9,177.1066 L9,159.7447 " fill="#EEEEEE" style="stroke:#000000;stroke-width:1.35;"/><rect fill="none" height="590.9203" style="stroke:#000000;stroke-width:1.35;" width="1020.15" x="9" y="159.7447"/><text fill="#000000" font-family="sans-serif" font-size="11.7" font-weight="bold" lengthAdjust="spacing" textLength="14.4" x="22.5" y="173.2702">alt</text><text fill="#000000" font-family="sans-serif" font-size="9.9" font-weight="bold" lengthAdjust="spacing" textLength="113.4" x="77.4" y="172.2278">[Validation successful]</text><line style="stroke:#181818;stroke-width:0.9;" x1="468" x2="510.3" y1="193.5686" y2="193.5686"/><line style="stroke:#181818;stroke-width:0.9;" x1="510.3" x2="510.3" y1="193.5686" y2="205.2686"/><line style="stroke:#181818;stroke-width:0.9;" x1="473.4" x2="510.3" y1="205.2686" y2="205.2686"/><polygon fill="#181818" points="482.4,201.6686,473.4,205.2686,482.4,208.8686" style="stroke:#181818;stroke-width:0.9;"/><text fill="#000000" font-family="sans-serif" font-size="11.7" lengthAdjust="spacing" textLength="152.1" x="478.8" y="188.8321">executeAssignAction(Parser)</text><polygon fill="#181818" points="745.2,234.3305,754.2,237.9305,745.2,241.5305" style="stroke:#181818;stroke-width:0.9;"/><line style="stroke:#181818;stroke-width:0.9;" x1="472.5" x2="750.6" y1="237.9305" y2="237.9305"/><text fill="#000000" font-family="sans-serif" font-size="11.7" lengthAdjust="spacing" textLength="93.6" x="478.8" y="233.194">retrieve('Pushups')</text><line style="stroke:#181818;stroke-width:0.9;" x1="765" x2="807.3" y1="261.5924" y2="261.5924"/><line style="stroke:#181818;stroke-width:0.9;" x1="807.3" x2="807.3" y1="261.5924" y2="273.2924"/><line style="stroke:#181818;stroke-width:0.9;" x1="770.4" x2="807.3" y1="273.2924" y2="273.2924"/><polygon fill="#181818" points="779.4,269.6924,770.4,273.2924,779.4,276.8924" style="stroke:#181818;stroke-width:0.9;"/><text fill="#000000" font-family="sans-serif" font-size="11.7" lengthAdjust="spacing" textLength="93.6" x="775.8" y="256.856">retrieve('Pushups')</text><polygon fill="#181818" points="900,302.3543,909,305.9543,900,309.5543" style="stroke:#181818;stroke-width:0.9;"/><line style="stroke:#181818;stroke-width:0.9;" x1="769.5" x2="905.4" y1="305.9543" y2="305.9543"/><text fill="#000000" font-family="sans-serif" font-size="11.7" lengthAdjust="spacing" textLength="119.7" x="775.8" y="301.2179">findByName('Pushups')</text><polygon fill="#181818" points="779.4,330.5162,770.4,334.1162,779.4,337.7162" style="stroke:#181818;stroke-width:0.9;"/><line style="stroke:#181818;stroke-width:0.9;stroke-dasharray:2.0,2.0;" x1="774" x2="909.9" y1="334.1162" y2="334.1162"/><text fill="#000000" font-family="sans-serif" font-size="11.7" lengthAdjust="spacing" textLength="119.7" x="784.8" y="329.3798">return existingExercise</text><line style="stroke:#181818;stroke-width:0.9;stroke-dasharray:2.0,2.0;" x1="769.5" x2="807.3" y1="366.7781" y2="366.7781"/><line style="stroke:#181818;stroke-width:0.9;stroke-dasharray:2.0,2.0;" x1="807.3" x2="807.3" y1="366.7781" y2="378.4781"/><line style="stroke:#181818;stroke-width:0.9;stroke-dasharray:2.0,2.0;" x1="765" x2="807.3" y1="378.4781" y2="378.4781"/><polygon fill="#181818" points="774,374.8781,765,378.4781,774,382.0781" style="stroke:#181818;stroke-width:0.9;"/><text fill="#000000" font-family="sans-serif" font-size="11.7" lengthAdjust="spacing" textLength="86.4" x="775.8" y="362.0417">existingExercise</text><polygon fill="#181818" points="482.4,398.54,473.4,402.14,482.4,405.74" style="stroke:#181818;stroke-width:0.9;"/><line style="stroke:#181818;stroke-width:0.9;stroke-dasharray:2.0,2.0;" x1="477" x2="755.1" y1="402.14" y2="402.14"/><text fill="#000000" font-family="sans-serif" font-size="11.7" lengthAdjust="spacing" textLength="119.7" x="487.8" y="397.4036">return existingExercise</text><line style="stroke:#181818;stroke-width:0.9;" x1="472.5" x2="514.8" y1="425.802" y2="425.802"/><line style="stroke:#181818;stroke-width:0.9;" x1="514.8" x2="514.8" y1="425.802" y2="437.502"/><line style="stroke:#181818;stroke-width:0.9;" x1="477.9" x2="514.8" y1="437.502" y2="437.502"/><polygon fill="#181818" points="486.9,433.902,477.9,437.502,486.9,441.102" style="stroke:#181818;stroke-width:0.9;"/><text fill="#000000" font-family="sans-serif" font-size="11.7" lengthAdjust="spacing" textLength="87.3" x="483.3" y="421.0655">retrieve('LegDay')</text><polygon fill="#181818" points="972.9,466.5639,981.9,470.1639,972.9,473.7639" style="stroke:#181818;stroke-width:0.9;"/><line style="stroke:#181818;stroke-width:0.9;" x1="477" x2="978.3" y1="470.1639" y2="470.1639"/><text fill="#000000" font-family="sans-serif" font-size="11.7" lengthAdjust="spacing" textLength="113.4" x="483.3" y="465.4274">findByName('LegDay')</text><polygon fill="#181818" points="486.9,494.7258,477.9,498.3258,486.9,501.9258" style="stroke:#181818;stroke-width:0.9;"/><line style="stroke:#181818;stroke-width:0.9;stroke-dasharray:2.0,2.0;" x1="481.5" x2="987.3" y1="498.3258" y2="498.3258"/><text fill="#000000" font-family="sans-serif" font-size="11.7" lengthAdjust="spacing" textLength="117.9" x="492.3" y="493.5894">return existingWorkout</text><polygon fill="#181818" points="972.9,522.8877,981.9,526.4877,972.9,530.0877" style="stroke:#181818;stroke-width:0.9;"/><line style="stroke:#181818;stroke-width:0.9;" x1="477" x2="978.3" y1="526.4877" y2="526.4877"/><text fill="#000000" font-family="sans-serif" font-size="11.7" lengthAdjust="spacing" textLength="158.4" x="483.3" y="521.7513">addExercise(existingExercise)</text><polygon fill="#181818" points="486.9,535.4877,477.9,539.0877,486.9,542.6877" style="stroke:#181818;stroke-width:0.9;"/><line style="stroke:#181818;stroke-width:0.9;stroke-dasharray:2.0,2.0;" x1="481.5" x2="987.3" y1="539.0877" y2="539.0877"/><line style="stroke:#181818;stroke-width:0.9;stroke-dasharray:2.0,2.0;" x1="477" x2="514.8" y1="571.7496" y2="571.7496"/><line style="stroke:#181818;stroke-width:0.9;stroke-dasharray:2.0,2.0;" x1="514.8" x2="514.8" y1="571.7496" y2="583.4496"/><line style="stroke:#181818;stroke-width:0.9;stroke-dasharray:2.0,2.0;" x1="472.5" x2="514.8" y1="583.4496" y2="583.4496"/><polygon fill="#181818" points="481.5,579.8496,472.5,583.4496,481.5,587.0496" style="stroke:#181818;stroke-width:0.9;"/><text fill="#000000" font-family="sans-serif" font-size="11.7" lengthAdjust="spacing" textLength="117.9" x="483.3" y="567.0132">return existingWorkout</text><line style="stroke:#181818;stroke-width:0.9;stroke-dasharray:2.0,2.0;" x1="472.5" x2="510.3" y1="611.6115" y2="611.6115"/><line style="stroke:#181818;stroke-width:0.9;stroke-dasharray:2.0,2.0;" x1="510.3" x2="510.3" y1="611.6115" y2="623.3115"/><line style="stroke:#181818;stroke-width:0.9;stroke-dasharray:2.0,2.0;" x1="468" x2="510.3" y1="623.3115" y2="623.3115"/><polygon fill="#181818" points="477,619.7115,468,623.3115,477,626.9115" style="stroke:#181818;stroke-width:0.9;"/><text fill="#000000" font-family="sans-serif" font-size="11.7" lengthAdjust="spacing" textLength="117.9" x="478.8" y="606.8751">return messageToUser</text><polygon fill="#181818" points="61.65,643.3734,52.65,646.9734,61.65,650.5734" style="stroke:#181818;stroke-width:0.9;"/><line style="stroke:#181818;stroke-width:0.9;stroke-dasharray:2.0,2.0;" x1="56.25" x2="458.1" y1="646.9734" y2="646.9734"/><text fill="#000000" font-family="sans-serif" font-size="11.7" lengthAdjust="spacing" textLength="84.6" x="67.05" y="642.237">messageToUser</text><polygon fill="#181818" points="274.95,671.5354,283.95,675.1354,274.95,678.7354" style="stroke:#181818;stroke-width:0.9;"/><line style="stroke:#181818;stroke-width:0.9;" x1="51.75" x2="280.35" y1="675.1354" y2="675.1354"/><text fill="#000000" font-family="sans-serif" font-size="11.7" lengthAdjust="spacing" textLength="162" x="58.05" y="670.3989">printMessage(messageToUser)</text><polygon fill="#181818" points="61.65,684.1354,52.65,687.7354,61.65,691.3354" style="stroke:#181818;stroke-width:0.9;"/><line style="stroke:#181818;stroke-width:0.9;stroke-dasharray:2.0,2.0;" x1="56.25" x2="289.35" y1="687.7354" y2="687.7354"/><line style="stroke:#000000;stroke-width:0.9;stroke-dasharray:2.0,2.0;" x1="9" x2="1029.15" y1="695.8354" y2="695.8354"/><text fill="#000000" font-family="sans-serif" font-size="9.9" font-weight="bold" lengthAdjust="spacing" textLength="79.2" x="13.5" y="706.5185">[Validation fails]</text><polygon fill="#181818" points="274.95,727.265,283.95,730.865,274.95,734.465" style="stroke:#181818;stroke-width:0.9;"/><line style="stroke:#181818;stroke-width:0.9;" x1="51.75" x2="280.35" y1="730.865" y2="730.865"/><text fill="#000000" font-family="sans-serif" font-size="11.7" lengthAdjust="spacing" textLength="216.9" x="58.05" y="726.1286">printMessage(exceptionMessage : String)</text><polygon fill="#181818" points="61.65,739.865,52.65,743.465,61.65,747.065" style="stroke:#181818;stroke-width:0.9;"/><line style="stroke:#181818;stroke-width:0.9;stroke-dasharray:2.0,2.0;" x1="56.25" x2="289.35" y1="743.465" y2="743.465"/><!--SRC=[lLLDRzim3BthLmZT8TuXmCx1C23f1n1W7G9qxSwQp7X2RTaGfI3PhozjnuwbogxR0VF1a4c-nqUAbl1PwKeOKN2P2yIrjKRzTXQsijGFwY_mBmpx4BId7EXjbBIko1aZirLILK9RlZbPk8OAkK3-Y60yPstOQWjcBoHudglLJXZoNjMuTXduVvNckNJsNcYHdUDyKpp-IUGg5RPi4VrN47nx12CLmf0zi8qWlD2uXA5MnkeUyEMtSv5ynQjwiTMLiubh-aEhpqn8gmx2GjUC1lPrkUo-KmWZUcQ_BPG1ZY1fCvCcanbm1mra0PAu-eOHpQ5TmtLP54AdoIwaktJt0bl610tLNq1CvBRxLANcwAG4nBsZ4UFql5OtLkaQKMLwBMkQNcPDCL8v_tHtjw5dB4ym2fJ808q_721Px1p-SHKkWWJXzDJEaEQ_C1FbNkbqS_eXYhT9FRPcyw8AdT7KQuLMwImAxOL46QBGmKp4IeouHpE-ceinoRC7wx8hto6x4QV5v3nDimOxCaauP9fLsX0tQ5b__BobJAHfrvqaRDS79RvBop-NEEkNdiXIq953bfzbStlDop6Iuh4zu7t69hWxghqBaQu2exIzRyCJ3nQqthz8EyRUqcSFzViu1Zd2yCJT2vNZR85mb53LkBE1IdsWlqHd7nIxcbOBEcLiT2yY5-8B]--></g></svg>