<?xml version="1.0" encoding="us-ascii" standalone="no"?><svg xmlns="http://www.w3.org/2000/svg" xmlns:xlink="http://www.w3.org/1999/xlink" contentStyleType="text/css" height="613px" preserveAspectRatio="none" style="width:968px;height:613px;background:#FFFFFF;" version="1.1" viewBox="0 0 968 613" width="968px" zoomAndPan="magnify"><defs/><g><rect fill="#FFFFFF" height="14" style="stroke:#181818;stroke-width:1.0;" width="10" x="271.5" y="491.1133"/><rect fill="#FFFFFF" height="14" style="stroke:#181818;stroke-width:1.0;" width="10" x="271.5" y="567.0352"/><rect fill="#FFFFFF" height="14" style="stroke:#181818;stroke-width:1.0;" width="10" x="362.5" y="71.9121"/><rect fill="#FFFFFF" height="418.541" style="stroke:#181818;stroke-width:1.0;" width="10" x="489.5" y="117.2031"/><rect fill="#FFFFFF" height="193.4551" style="stroke:#181818;stroke-width:1.0;" width="10" x="494.5" y="228.0762"/><rect fill="#FFFFFF" height="42.291" style="stroke:#181818;stroke-width:1.0;" width="10" x="499.5" y="334.9492"/><rect fill="#FFFFFF" height="14" style="stroke:#181818;stroke-width:1.0;" width="10" x="724.5" y="148.4941"/><rect fill="#FFFFFF" height="31.291" style="stroke:#181818;stroke-width:1.0;" width="10" x="883" y="264.3672"/><rect fill="none" height="411.541" style="stroke:#000000;stroke-width:1.5;" width="951.5" x="10" y="177.4941"/><line style="stroke:#181818;stroke-width:0.5;stroke-dasharray:5.0,5.0;" x1="57" x2="57" y1="38.6211" y2="606.0352"/><line style="stroke:#181818;stroke-width:0.5;stroke-dasharray:5.0,5.0;" x1="276.5" x2="276.5" y1="38.6211" y2="606.0352"/><line style="stroke:#181818;stroke-width:0.5;stroke-dasharray:5.0,5.0;" x1="367.5" x2="367.5" y1="38.6211" y2="606.0352"/><line style="stroke:#181818;stroke-width:0.5;stroke-dasharray:5.0,5.0;" x1="494.5" x2="494.5" y1="38.6211" y2="606.0352"/><line style="stroke:#181818;stroke-width:0.5;stroke-dasharray:5.0,5.0;" x1="729.5" x2="729.5" y1="38.6211" y2="606.0352"/><line style="stroke:#181818;stroke-width:0.5;stroke-dasharray:5.0,5.0;" x1="887.5" x2="887.5" y1="38.6211" y2="606.0352"/><rect fill="#E2E2F0" height="32.6211" rx="2.5" ry="2.5" style="stroke:#181818;stroke-width:0.5;" width="75" x="20" y="5"/><text fill="#000000" font-family="sans-serif" font-size="14" lengthAdjust="spacing" textLength="61" x="27" y="27.1074">ByteCeps</text><rect fill="#E2E2F0" height="32.6211" rx="2.5" ry="2.5" style="stroke:#181818;stroke-width:0.5;" width="102" x="225.5" y="5"/><text fill="#000000" font-family="sans-serif" font-size="14" lengthAdjust="spacing" textLength="88" x="232.5" y="27.1074">:UserInterface</text><rect fill="#E2E2F0" height="32.6211" rx="2.5" ry="2.5" style="stroke:#181818;stroke-width:0.5;" width="60" x="337.5" y="5"/><text fill="#000000" font-family="sans-serif" font-size="14" lengthAdjust="spacing" textLength="46" x="344.5" y="27.1074">:Parser</text><rect fill="#E2E2F0" height="32.6211" rx="2.5" ry="2.5" style="stroke:#181818;stroke-width:0.5;" width="174" x="407.5" y="5"/><text fill="#000000" font-family="sans-serif" font-size="14" lengthAdjust="spacing" textLength="160" x="414.5" y="27.1074">:WeeklyProgramManager</text><rect fill="#E2E2F0" height="32.6211" rx="2.5" ry="2.5" style="stroke:#181818;stroke-width:0.5;" width="170" x="644.5" y="5"/><text fill="#000000" font-family="sans-serif" font-size="14" lengthAdjust="spacing" textLength="156" x="651.5" y="27.1074">WeeklyProgramValidator</text><rect fill="#E2E2F0" height="32.6211" rx="2.5" ry="2.5" style="stroke:#181818;stroke-width:0.5;" width="127" x="824.5" y="5"/><text fill="#000000" font-family="sans-serif" font-size="14" lengthAdjust="spacing" textLength="113" x="831.5" y="27.1074">:WorkoutManager</text><rect fill="#FFFFFF" height="14" style="stroke:#181818;stroke-width:1.0;" width="10" x="271.5" y="491.1133"/><rect fill="#FFFFFF" height="14" style="stroke:#181818;stroke-width:1.0;" width="10" x="271.5" y="567.0352"/><rect fill="#FFFFFF" height="14" style="stroke:#181818;stroke-width:1.0;" width="10" x="362.5" y="71.9121"/><rect fill="#FFFFFF" height="418.541" style="stroke:#181818;stroke-width:1.0;" width="10" x="489.5" y="117.2031"/><rect fill="#FFFFFF" height="193.4551" style="stroke:#181818;stroke-width:1.0;" width="10" x="494.5" y="228.0762"/><rect fill="#FFFFFF" height="42.291" style="stroke:#181818;stroke-width:1.0;" width="10" x="499.5" y="334.9492"/><rect fill="#FFFFFF" height="14" style="stroke:#181818;stroke-width:1.0;" width="10" x="724.5" y="148.4941"/><rect fill="#FFFFFF" height="31.291" style="stroke:#181818;stroke-width:1.0;" width="10" x="883" y="264.3672"/><polygon fill="#181818" points="350.5,67.9121,360.5,71.9121,350.5,75.9121" style="stroke:#181818;stroke-width:1.0;"/><line style="stroke:#181818;stroke-width:1.0;" x1="57.5" x2="356.5" y1="71.9121" y2="71.9121"/><text fill="#000000" font-family="sans-serif" font-size="13" lengthAdjust="spacing" textLength="121" x="64.5" y="66.6494">parseInput(userInput)</text><polygon fill="#181818" points="68.5,81.9121,58.5,85.9121,68.5,89.9121" style="stroke:#181818;stroke-width:1.0;"/><line style="stroke:#181818;stroke-width:1.0;stroke-dasharray:2.0,2.0;" x1="62.5" x2="366.5" y1="85.9121" y2="85.9121"/><polygon fill="#181818" points="477.5,113.2031,487.5,117.2031,477.5,121.2031" style="stroke:#181818;stroke-width:1.0;"/><line style="stroke:#181818;stroke-width:1.0;" x1="57.5" x2="483.5" y1="117.2031" y2="117.2031"/><text fill="#000000" font-family="sans-serif" font-size="13" lengthAdjust="spacing" textLength="90" x="64.5" y="111.9404">execute(parser)</text><polygon fill="#181818" points="712.5,144.4941,722.5,148.4941,712.5,152.4941" style="stroke:#181818;stroke-width:1.0;"/><line style="stroke:#181818;stroke-width:1.0;" x1="499.5" x2="718.5" y1="148.4941" y2="148.4941"/><text fill="#000000" font-family="sans-serif" font-size="13" lengthAdjust="spacing" textLength="146" x="506.5" y="143.2314">validateCommand(parser)</text><polygon fill="#181818" points="510.5,158.4941,500.5,162.4941,510.5,166.4941" style="stroke:#181818;stroke-width:1.0;"/><line style="stroke:#181818;stroke-width:1.0;stroke-dasharray:2.0,2.0;" x1="504.5" x2="728.5" y1="162.4941" y2="162.4941"/><path d="M10,177.4941 L71,177.4941 L71,186.7852 L61,196.7852 L10,196.7852 L10,177.4941 " fill="#EEEEEE" style="stroke:#000000;stroke-width:1.5;"/><rect fill="none" height="411.541" style="stroke:#000000;stroke-width:1.5;" width="951.5" x="10" y="177.4941"/><text fill="#000000" font-family="sans-serif" font-size="13" font-weight="bold" lengthAdjust="spacing" textLength="16" x="25" y="192.5225">alt</text><text fill="#000000" font-family="sans-serif" font-size="11" font-weight="bold" lengthAdjust="spacing" textLength="155" x="86" y="191.3643">[Input validation successful]</text><line style="stroke:#181818;stroke-width:1.0;" x1="499.5" x2="546.5" y1="215.0762" y2="215.0762"/><line style="stroke:#181818;stroke-width:1.0;" x1="546.5" x2="546.5" y1="215.0762" y2="228.0762"/><line style="stroke:#181818;stroke-width:1.0;" x1="505.5" x2="546.5" y1="228.0762" y2="228.0762"/><polygon fill="#181818" points="515.5,224.0762,505.5,228.0762,515.5,232.0762" style="stroke:#181818;stroke-width:1.0;"/><text fill="#000000" font-family="sans-serif" font-size="13" lengthAdjust="spacing" textLength="167" x="511.5" y="209.8135">executeAssignAction(parser)</text><polygon fill="#181818" points="871,260.3672,881,264.3672,871,268.3672" style="stroke:#181818;stroke-width:1.0;"/><line style="stroke:#181818;stroke-width:1.0;" x1="504.5" x2="877" y1="264.3672" y2="264.3672"/><text fill="#000000" font-family="sans-serif" font-size="13" lengthAdjust="spacing" textLength="128" x="511.5" y="259.1045">retrieve(workoutName)</text><polygon fill="#181818" points="515.5,291.6582,505.5,295.6582,515.5,299.6582" style="stroke:#181818;stroke-width:1.0;"/><line style="stroke:#181818;stroke-width:1.0;stroke-dasharray:2.0,2.0;" x1="509.5" x2="887" y1="295.6582" y2="295.6582"/><text fill="#000000" font-family="sans-serif" font-size="13" lengthAdjust="spacing" textLength="45" x="521.5" y="290.3955">workout</text><line style="stroke:#181818;stroke-width:1.0;" x1="504.5" x2="551.5" y1="321.9492" y2="321.9492"/><line style="stroke:#181818;stroke-width:1.0;" x1="551.5" x2="551.5" y1="321.9492" y2="334.9492"/><line style="stroke:#181818;stroke-width:1.0;" x1="510.5" x2="551.5" y1="334.9492" y2="334.9492"/><polygon fill="#181818" points="520.5,330.9492,510.5,334.9492,520.5,338.9492" style="stroke:#181818;stroke-width:1.0;"/><text fill="#000000" font-family="sans-serif" font-size="13" lengthAdjust="spacing" textLength="206" x="516.5" y="316.6865">assignWorkoutToDay(workout, day)</text><line style="stroke:#181818;stroke-width:1.0;stroke-dasharray:2.0,2.0;" x1="509.5" x2="551.5" y1="376.2402" y2="376.2402"/><line style="stroke:#181818;stroke-width:1.0;stroke-dasharray:2.0,2.0;" x1="551.5" x2="551.5" y1="376.2402" y2="389.2402"/><line style="stroke:#181818;stroke-width:1.0;stroke-dasharray:2.0,2.0;" x1="504.5" x2="551.5" y1="389.2402" y2="389.2402"/><polygon fill="#181818" points="514.5,385.2402,504.5,389.2402,514.5,393.2402" style="stroke:#181818;stroke-width:1.0;"/><text fill="#000000" font-family="sans-serif" font-size="13" lengthAdjust="spacing" textLength="94" x="516.5" y="370.9775">messageToUser</text><line style="stroke:#181818;stroke-width:1.0;stroke-dasharray:2.0,2.0;" x1="504.5" x2="546.5" y1="420.5313" y2="420.5313"/><line style="stroke:#181818;stroke-width:1.0;stroke-dasharray:2.0,2.0;" x1="546.5" x2="546.5" y1="420.5313" y2="433.5313"/><line style="stroke:#181818;stroke-width:1.0;stroke-dasharray:2.0,2.0;" x1="499.5" x2="546.5" y1="433.5313" y2="433.5313"/><polygon fill="#181818" points="509.5,429.5313,499.5,433.5313,509.5,437.5313" style="stroke:#181818;stroke-width:1.0;"/><text fill="#000000" font-family="sans-serif" font-size="13" lengthAdjust="spacing" textLength="94" x="511.5" y="415.2686">messageToUser</text><polygon fill="#181818" points="68.5,455.8223,58.5,459.8223,68.5,463.8223" style="stroke:#181818;stroke-width:1.0;"/><line style="stroke:#181818;stroke-width:1.0;stroke-dasharray:2.0,2.0;" x1="62.5" x2="488.5" y1="459.8223" y2="459.8223"/><text fill="#000000" font-family="sans-serif" font-size="13" lengthAdjust="spacing" textLength="94" x="74.5" y="454.5596">messageToUser</text><polygon fill="#181818" points="259.5,487.1133,269.5,491.1133,259.5,495.1133" style="stroke:#181818;stroke-width:1.0;"/><line style="stroke:#181818;stroke-width:1.0;" x1="57.5" x2="265.5" y1="491.1133" y2="491.1133"/><text fill="#000000" font-family="sans-serif" font-size="13" lengthAdjust="spacing" textLength="180" x="64.5" y="485.8506">printMessage(messageToUser)</text><polygon fill="#181818" points="68.5,501.1133,58.5,505.1133,68.5,509.1133" style="stroke:#181818;stroke-width:1.0;"/><line style="stroke:#181818;stroke-width:1.0;stroke-dasharray:2.0,2.0;" x1="62.5" x2="275.5" y1="505.1133" y2="505.1133"/><line style="stroke:#000000;stroke-width:1.0;stroke-dasharray:2.0,2.0;" x1="10" x2="961.5" y1="514.1133" y2="514.1133"/><text fill="#000000" font-family="sans-serif" font-size="11" font-weight="bold" lengthAdjust="spacing" textLength="117" x="15" y="525.9834">[Input validation fails]</text><polygon fill="#181818" points="68.5,531.7441,58.5,535.7441,68.5,539.7441" style="stroke:#181818;stroke-width:1.0;"/><line style="stroke:#181818;stroke-width:1.0;stroke-dasharray:2.0,2.0;" x1="62.5" x2="493.5" y1="535.7441" y2="535.7441"/><polygon fill="#181818" points="259.5,563.0352,269.5,567.0352,259.5,571.0352" style="stroke:#181818;stroke-width:1.0;"/><line style="stroke:#181818;stroke-width:1.0;" x1="57.5" x2="265.5" y1="567.0352" y2="567.0352"/><text fill="#000000" font-family="sans-serif" font-size="13" lengthAdjust="spacing" textLength="195" x="64.5" y="561.7725">printMessage(exceptionMessage)</text><polygon fill="#181818" points="68.5,577.0352,58.5,581.0352,68.5,585.0352" style="stroke:#181818;stroke-width:1.0;"/><line style="stroke:#181818;stroke-width:1.0;stroke-dasharray:2.0,2.0;" x1="62.5" x2="275.5" y1="581.0352" y2="581.0352"/><!--SRC=[jLJ1Ri8m3BttAonEJ5gbdQjf4cCN3an8OzlPImsAI9CgIHdTroyfK4XfAMYCGsKvzdj-ZyHcnMME6ZDW0eqPMQlvLs5fmfHyupy43v6fIumj1RclvimMcOWYbxQSyHobXUVIqfXo4oG7oRiXFP6Mz08P3G0D19b6zGorEnqqifz4Ar7Ej5gwAQOeSTci2Ie-KF0KhT9D6ALNgh0rGBGV6UAd0tS2kGycCY_iiAXcTT5TXCpoDLewchBkVupZ8u0efNF55Lchf0HeGyovFwn6q05fkmaTUK_Ixaa2wsr8OvLbADEQwq3MuMONbrVVtWA15nsm4GeBbSdxqRYIO0h6o9X58I9mlpCw-ymS6SENSiGyR2tMO_QQsqyStgW4DBd7GMiQVczFNZ6ZKxB6FTpHX5c8pqdRmLUjmMthmBxIEqZSG_MkxU3cwWNBlQPxIB6yXODd-JFtvxjuhlowQD5vIxf_OgjVV1l-yJe8DgBRFvfBEzrs38FEXklX9lL7GQOnH5DMs4t2qEahN20NvcAXoJNENMe0RHZbVfXTuWyUz5aWq_vrzGi0]--></g></svg>