<?xml version="1.0" encoding="us-ascii" standalone="no"?><svg xmlns="http://www.w3.org/2000/svg" xmlns:xlink="http://www.w3.org/1999/xlink" contentStyleType="text/css" height="748px" preserveAspectRatio="none" style="width:670px;height:748px;background:#FFFFFF;" version="1.1" viewBox="0 0 670 748" width="670px" zoomAndPan="magnify"><defs/><g><rect fill="#FFFFFF" height="684.0352" style="stroke:#181818;stroke-width:1.0;" width="10" x="52.5" y="48.6211"/><rect fill="#FFFFFF" height="14" style="stroke:#181818;stroke-width:1.0;" width="10" x="261.5" y="709.6563"/><rect fill="#FFFFFF" height="599.4531" style="stroke:#181818;stroke-width:1.0;" width="10" x="412" y="71.9121"/><rect fill="#FFFFFF" height="211.1641" style="stroke:#181818;stroke-width:1.0;" width="10" x="417" y="111.2031"/><rect fill="#FFFFFF" height="25" style="stroke:#181818;stroke-width:1.0;" width="10" x="422" y="181.7852"/><rect fill="#FFFFFF" height="25" style="stroke:#181818;stroke-width:1.0;" width="10" x="422" y="253.0762"/><rect fill="#FFFFFF" height="25" style="stroke:#181818;stroke-width:1.0;" width="10" x="417" y="416.5801"/><rect fill="#FFFFFF" height="25" style="stroke:#181818;stroke-width:1.0;" width="10" x="417" y="608.0742"/><rect fill="#FFFFFF" height="33.6211" style="stroke:#181818;stroke-width:1.0;" width="10" x="626.5" y="489.8711"/><rect fill="#FFFFFF" height="14" style="stroke:#181818;stroke-width:1.0;" width="10" x="626.5" y="554.7832"/><rect fill="none" height="548.1621" style="stroke:#000000;stroke-width:1.5;" width="653" x="10" y="131.2031"/><line style="stroke:#181818;stroke-width:0.5;stroke-dasharray:5.0,5.0;" x1="57" x2="57" y1="38.6211" y2="741.6563"/><line style="stroke:#181818;stroke-width:0.5;stroke-dasharray:5.0,5.0;" x1="266" x2="266" y1="38.6211" y2="741.6563"/><line style="stroke:#181818;stroke-width:0.5;stroke-dasharray:5.0,5.0;" x1="417" x2="417" y1="38.6211" y2="741.6563"/><line style="stroke:#181818;stroke-width:0.5;stroke-dasharray:5.0,5.0;" x1="631" x2="631" y1="488.3906" y2="741.6563"/><rect fill="#E2E2F0" height="32.6211" rx="2.5" ry="2.5" style="stroke:#181818;stroke-width:0.5;" width="75" x="20" y="5"/><text fill="#000000" font-family="sans-serif" font-size="14" lengthAdjust="spacing" textLength="61" x="27" y="27.1074">ByteCeps</text><rect fill="#E2E2F0" height="32.6211" rx="2.5" ry="2.5" style="stroke:#181818;stroke-width:0.5;" width="107" x="213" y="5"/><text fill="#000000" font-family="sans-serif" font-size="14" lengthAdjust="spacing" textLength="93" x="220" y="27.1074">:UserInterFace</text><rect fill="#E2E2F0" height="32.6211" rx="2.5" ry="2.5" style="stroke:#181818;stroke-width:0.5;" width="174" x="330" y="5"/><text fill="#000000" font-family="sans-serif" font-size="14" lengthAdjust="spacing" textLength="160" x="337" y="27.1074">:WeeklyProgramManager</text><rect fill="#FFFFFF" height="684.0352" style="stroke:#181818;stroke-width:1.0;" width="10" x="52.5" y="48.6211"/><rect fill="#FFFFFF" height="14" style="stroke:#181818;stroke-width:1.0;" width="10" x="261.5" y="709.6563"/><rect fill="#FFFFFF" height="599.4531" style="stroke:#181818;stroke-width:1.0;" width="10" x="412" y="71.9121"/><rect fill="#FFFFFF" height="211.1641" style="stroke:#181818;stroke-width:1.0;" width="10" x="417" y="111.2031"/><rect fill="#FFFFFF" height="25" style="stroke:#181818;stroke-width:1.0;" width="10" x="422" y="181.7852"/><rect fill="#FFFFFF" height="25" style="stroke:#181818;stroke-width:1.0;" width="10" x="422" y="253.0762"/><rect fill="#FFFFFF" height="25" style="stroke:#181818;stroke-width:1.0;" width="10" x="417" y="416.5801"/><rect fill="#FFFFFF" height="25" style="stroke:#181818;stroke-width:1.0;" width="10" x="417" y="608.0742"/><rect fill="#FFFFFF" height="33.6211" style="stroke:#181818;stroke-width:1.0;" width="10" x="626.5" y="489.8711"/><rect fill="#FFFFFF" height="14" style="stroke:#181818;stroke-width:1.0;" width="10" x="626.5" y="554.7832"/><polygon fill="#181818" points="400,67.9121,410,71.9121,400,75.9121" style="stroke:#181818;stroke-width:1.0;"/><line style="stroke:#181818;stroke-width:1.0;" x1="62.5" x2="406" y1="71.9121" y2="71.9121"/><text fill="#000000" font-family="sans-serif" font-size="13" lengthAdjust="spacing" textLength="90" x="69.5" y="66.6494">execute(parser)</text><line style="stroke:#181818;stroke-width:1.0;" x1="422" x2="469" y1="98.2031" y2="98.2031"/><line style="stroke:#181818;stroke-width:1.0;" x1="469" x2="469" y1="98.2031" y2="111.2031"/><line style="stroke:#181818;stroke-width:1.0;" x1="428" x2="469" y1="111.2031" y2="111.2031"/><polygon fill="#181818" points="438,107.2031,428,111.2031,438,115.2031" style="stroke:#181818;stroke-width:1.0;"/><text fill="#000000" font-family="sans-serif" font-size="13" lengthAdjust="spacing" textLength="157" x="434" y="92.9404">executeClearAction(parser)</text><path d="M10,131.2031 L71,131.2031 L71,140.4941 L61,150.4941 L10,150.4941 L10,131.2031 " fill="#EEEEEE" style="stroke:#000000;stroke-width:1.5;"/><rect fill="none" height="548.1621" style="stroke:#000000;stroke-width:1.5;" width="653" x="10" y="131.2031"/><text fill="#000000" font-family="sans-serif" font-size="13" font-weight="bold" lengthAdjust="spacing" textLength="16" x="25" y="146.2314">alt</text><text fill="#000000" font-family="sans-serif" font-size="11" font-weight="bold" lengthAdjust="spacing" textLength="189" x="86" y="145.0732">[No specific day specified by user]</text><line style="stroke:#181818;stroke-width:1.0;" x1="427" x2="474" y1="168.7852" y2="168.7852"/><line style="stroke:#181818;stroke-width:1.0;" x1="474" x2="474" y1="168.7852" y2="181.7852"/><line style="stroke:#181818;stroke-width:1.0;" x1="433" x2="474" y1="181.7852" y2="181.7852"/><polygon fill="#181818" points="443,177.7852,433,181.7852,443,185.7852" style="stroke:#181818;stroke-width:1.0;"/><text fill="#000000" font-family="sans-serif" font-size="13" lengthAdjust="spacing" textLength="98" x="439" y="163.5225">clearActivitySet()</text><line style="stroke:#181818;stroke-width:1.0;stroke-dasharray:2.0,2.0;" x1="432" x2="474" y1="205.7852" y2="205.7852"/><line style="stroke:#181818;stroke-width:1.0;stroke-dasharray:2.0,2.0;" x1="474" x2="474" y1="205.7852" y2="218.7852"/><line style="stroke:#181818;stroke-width:1.0;stroke-dasharray:2.0,2.0;" x1="427" x2="474" y1="218.7852" y2="218.7852"/><polygon fill="#181818" points="437,214.7852,427,218.7852,437,222.7852" style="stroke:#181818;stroke-width:1.0;"/><line style="stroke:#181818;stroke-width:1.0;" x1="427" x2="474" y1="240.0762" y2="240.0762"/><line style="stroke:#181818;stroke-width:1.0;" x1="474" x2="474" y1="240.0762" y2="253.0762"/><line style="stroke:#181818;stroke-width:1.0;" x1="433" x2="474" y1="253.0762" y2="253.0762"/><polygon fill="#181818" points="443,249.0762,433,253.0762,443,257.0762" style="stroke:#181818;stroke-width:1.0;"/><text fill="#000000" font-family="sans-serif" font-size="13" lengthAdjust="spacing" textLength="85" x="439" y="234.8135">initializeDays()</text><line style="stroke:#181818;stroke-width:1.0;stroke-dasharray:2.0,2.0;" x1="432" x2="474" y1="277.0762" y2="277.0762"/><line style="stroke:#181818;stroke-width:1.0;stroke-dasharray:2.0,2.0;" x1="474" x2="474" y1="277.0762" y2="290.0762"/><line style="stroke:#181818;stroke-width:1.0;stroke-dasharray:2.0,2.0;" x1="427" x2="474" y1="290.0762" y2="290.0762"/><polygon fill="#181818" points="437,286.0762,427,290.0762,437,294.0762" style="stroke:#181818;stroke-width:1.0;"/><line style="stroke:#181818;stroke-width:1.0;stroke-dasharray:2.0,2.0;" x1="427" x2="469" y1="321.3672" y2="321.3672"/><line style="stroke:#181818;stroke-width:1.0;stroke-dasharray:2.0,2.0;" x1="469" x2="469" y1="321.3672" y2="334.3672"/><line style="stroke:#181818;stroke-width:1.0;stroke-dasharray:2.0,2.0;" x1="422" x2="469" y1="334.3672" y2="334.3672"/><polygon fill="#181818" points="432,330.3672,422,334.3672,432,338.3672" style="stroke:#181818;stroke-width:1.0;"/><text fill="#000000" font-family="sans-serif" font-size="13" lengthAdjust="spacing" textLength="94" x="434" y="316.1045">messageToUser</text><polygon fill="#181818" points="73.5,356.6582,63.5,360.6582,73.5,364.6582" style="stroke:#181818;stroke-width:1.0;"/><line style="stroke:#181818;stroke-width:1.0;stroke-dasharray:2.0,2.0;" x1="67.5" x2="411" y1="360.6582" y2="360.6582"/><text fill="#000000" font-family="sans-serif" font-size="13" lengthAdjust="spacing" textLength="94" x="79.5" y="355.3955">messageToUser</text><line style="stroke:#000000;stroke-width:1.0;stroke-dasharray:2.0,2.0;" x1="10" x2="663" y1="369.6582" y2="369.6582"/><text fill="#000000" font-family="sans-serif" font-size="11" font-weight="bold" lengthAdjust="spacing" textLength="165" x="15" y="381.5283">[Specific day entered by user]</text><line style="stroke:#181818;stroke-width:1.0;" x1="422" x2="469" y1="403.5801" y2="403.5801"/><line style="stroke:#181818;stroke-width:1.0;" x1="469" x2="469" y1="403.5801" y2="416.5801"/><line style="stroke:#181818;stroke-width:1.0;" x1="428" x2="469" y1="416.5801" y2="416.5801"/><polygon fill="#181818" points="438,412.5801,428,416.5801,438,420.5801" style="stroke:#181818;stroke-width:1.0;"/><text fill="#000000" font-family="sans-serif" font-size="13" lengthAdjust="spacing" textLength="121" x="434" y="398.3174">remove(selectedDay)</text><line style="stroke:#181818;stroke-width:1.0;stroke-dasharray:2.0,2.0;" x1="427" x2="469" y1="440.5801" y2="440.5801"/><line style="stroke:#181818;stroke-width:1.0;stroke-dasharray:2.0,2.0;" x1="469" x2="469" y1="440.5801" y2="453.5801"/><line style="stroke:#181818;stroke-width:1.0;stroke-dasharray:2.0,2.0;" x1="422" x2="469" y1="453.5801" y2="453.5801"/><polygon fill="#181818" points="432,449.5801,422,453.5801,432,457.5801" style="stroke:#181818;stroke-width:1.0;"/><polygon fill="#181818" points="598,475.8711,608,479.8711,598,483.8711" style="stroke:#181818;stroke-width:1.0;"/><line style="stroke:#181818;stroke-width:1.0;" x1="422" x2="604" y1="479.8711" y2="479.8711"/><text fill="#000000" font-family="sans-serif" font-size="13" lengthAdjust="spacing" textLength="164" x="429" y="474.6084">new Day(selectedDayString)</text><rect fill="#E2E2F0" height="32.6211" rx="2.5" ry="2.5" style="stroke:#181818;stroke-width:0.5;" width="43" x="610" y="456.5801"/><text fill="#000000" font-family="sans-serif" font-size="14" lengthAdjust="spacing" textLength="29" x="617" y="478.6875">:Day</text><polygon fill="#181818" points="433,519.4922,423,523.4922,433,527.4922" style="stroke:#181818;stroke-width:1.0;"/><line style="stroke:#181818;stroke-width:1.0;stroke-dasharray:2.0,2.0;" x1="427" x2="630.5" y1="523.4922" y2="523.4922"/><text fill="#000000" font-family="sans-serif" font-size="13" lengthAdjust="spacing" textLength="46" x="439" y="518.2295">newDay</text><polygon fill="#181818" points="614.5,550.7832,624.5,554.7832,614.5,558.7832" style="stroke:#181818;stroke-width:1.0;"/><line style="stroke:#181818;stroke-width:1.0;" x1="422" x2="620.5" y1="554.7832" y2="554.7832"/><text fill="#000000" font-family="sans-serif" font-size="13" lengthAdjust="spacing" textLength="149" x="429" y="549.5205">setAssignedWorkout(null)</text><polygon fill="#181818" points="433,564.7832,423,568.7832,433,572.7832" style="stroke:#181818;stroke-width:1.0;"/><line style="stroke:#181818;stroke-width:1.0;stroke-dasharray:2.0,2.0;" x1="427" x2="630.5" y1="568.7832" y2="568.7832"/><line style="stroke:#181818;stroke-width:1.0;" x1="422" x2="469" y1="595.0742" y2="595.0742"/><line style="stroke:#181818;stroke-width:1.0;" x1="469" x2="469" y1="595.0742" y2="608.0742"/><line style="stroke:#181818;stroke-width:1.0;" x1="428" x2="469" y1="608.0742" y2="608.0742"/><polygon fill="#181818" points="438,604.0742,428,608.0742,438,612.0742" style="stroke:#181818;stroke-width:1.0;"/><text fill="#000000" font-family="sans-serif" font-size="13" lengthAdjust="spacing" textLength="75" x="434" y="589.8115">add(newDay)</text><line style="stroke:#181818;stroke-width:1.0;stroke-dasharray:2.0,2.0;" x1="427" x2="469" y1="632.0742" y2="632.0742"/><line style="stroke:#181818;stroke-width:1.0;stroke-dasharray:2.0,2.0;" x1="469" x2="469" y1="632.0742" y2="645.0742"/><line style="stroke:#181818;stroke-width:1.0;stroke-dasharray:2.0,2.0;" x1="422" x2="469" y1="645.0742" y2="645.0742"/><polygon fill="#181818" points="432,641.0742,422,645.0742,432,649.0742" style="stroke:#181818;stroke-width:1.0;"/><polygon fill="#181818" points="73.5,667.3652,63.5,671.3652,73.5,675.3652" style="stroke:#181818;stroke-width:1.0;"/><line style="stroke:#181818;stroke-width:1.0;stroke-dasharray:2.0,2.0;" x1="67.5" x2="416" y1="671.3652" y2="671.3652"/><text fill="#000000" font-family="sans-serif" font-size="13" lengthAdjust="spacing" textLength="94" x="79.5" y="666.1025">messageToUser</text><polygon fill="#181818" points="249.5,705.6563,259.5,709.6563,249.5,713.6563" style="stroke:#181818;stroke-width:1.0;"/><line style="stroke:#181818;stroke-width:1.0;" x1="62.5" x2="255.5" y1="709.6563" y2="709.6563"/><text fill="#000000" font-family="sans-serif" font-size="13" lengthAdjust="spacing" textLength="180" x="69.5" y="704.3936">printMessage(messageToUser)</text><polygon fill="#181818" points="73.5,719.6563,63.5,723.6563,73.5,727.6563" style="stroke:#181818;stroke-width:1.0;"/><line style="stroke:#181818;stroke-width:1.0;stroke-dasharray:2.0,2.0;" x1="67.5" x2="265.5" y1="723.6563" y2="723.6563"/><!--SRC=[rPL1J-im3CVl_HJMJkM0zCuz80sUa3Y0a0RY7D8_KxGihM9tK3uz3h2-5cZVO1oWXofnRV_-Rfo4LoxK9ferMM-OvoBHtJQ2Crk5XNi4_ScuSs5fFVGTdPLcxRDCpUAigqqGEcu59wXvO9mLrunu5WJnr5ZCo31rbZkrlF6-0LQ-lOpLKddd9fWbuYpBI1zZnMsCu1yeMRSJEZmQ2wU2y02hHUKAK_Z1CDyODJcDfTo5Tk9XubmfLVWys7YXYuguXdLtpb9fskq49Tssr6Y-PyyloxHRVHidxGAI7tJvTf8u2Hud5rrmYVqvKmMwuCGPhrtyrxJyAykRuD0Qp3gyggxxhV1DrEs- -WW3pw15lpEHjlDtzMN4kjeWPtXOGQbhzuDNpaOaDnMPZhPPeOETkZO551HmdqRzMXTwkeRb1nNhjywOeWydVw9cxWVqAkgR_okG8NDcjmmeRwgugXh9G-FzllBsq3LUiYdB_ANiNxhJf_RS9p08PVRkRXnSkWNLscHo_aB91xGtTzJmiawV1fQ1xjTrxSaSHcTF]--></g></svg>