<?xml version="1.0" encoding="us-ascii" standalone="no"?><svg xmlns="http://www.w3.org/2000/svg" xmlns:xlink="http://www.w3.org/1999/xlink" contentStyleType="text/css" height="670px" preserveAspectRatio="none" style="width:866px;height:670px;background:#FFFFFF;" version="1.1" viewBox="0 0 866 670" width="866px" zoomAndPan="magnify"><defs/><g><rect fill="#FFFFFF" height="14" style="stroke:#181818;stroke-width:1.0;" width="10" x="317.5" y="562.4043"/><rect fill="#FFFFFF" height="14" style="stroke:#181818;stroke-width:1.0;" width="10" x="317.5" y="624.3262"/><rect fill="#FFFFFF" height="14" style="stroke:#181818;stroke-width:1.0;" width="10" x="406.5" y="71.9121"/><rect fill="#FFFFFF" height="536.123" style="stroke:#181818;stroke-width:1.0;" width="10" x="510" y="117.2031"/><rect fill="#FFBBBB" height="264.7461" style="stroke:#181818;stroke-width:1.0;" width="10" x="515" y="228.0762"/><rect fill="#FFFFFF" height="104.873" style="stroke:#181818;stroke-width:1.0;" width="10" x="520" y="272.3672"/><rect fill="#FFFFFF" height="25" style="stroke:#181818;stroke-width:1.0;" width="10" x="520" y="423.5313"/><rect fill="#FFFFFF" height="14" style="stroke:#181818;stroke-width:1.0;" width="10" x="700" y="148.4941"/><rect fill="#FFFFFF" height="31.291" style="stroke:#181818;stroke-width:1.0;" width="10" x="809" y="308.6582"/><rect fill="none" height="468.832" style="stroke:#000000;stroke-width:1.5;" width="849.5" x="10" y="177.4941"/><line style="stroke:#181818;stroke-width:0.5;stroke-dasharray:5.0,5.0;" x1="57" x2="57" y1="38.6211" y2="663.3262"/><line style="stroke:#181818;stroke-width:0.5;stroke-dasharray:5.0,5.0;" x1="322.5" x2="322.5" y1="38.6211" y2="663.3262"/><line style="stroke:#181818;stroke-width:0.5;stroke-dasharray:5.0,5.0;" x1="411.5" x2="411.5" y1="38.6211" y2="663.3262"/><line style="stroke:#181818;stroke-width:0.5;stroke-dasharray:5.0,5.0;" x1="514.5" x2="514.5" y1="38.6211" y2="663.3262"/><line style="stroke:#181818;stroke-width:0.5;stroke-dasharray:5.0,5.0;" x1="704.5" x2="704.5" y1="38.6211" y2="663.3262"/><line style="stroke:#181818;stroke-width:0.5;stroke-dasharray:5.0,5.0;" x1="813.5" x2="813.5" y1="38.6211" y2="663.3262"/><rect fill="#E2E2F0" height="32.6211" rx="2.5" ry="2.5" style="stroke:#181818;stroke-width:0.5;" width="75" x="20" y="5"/><text fill="#000000" font-family="sans-serif" font-size="14" lengthAdjust="spacing" textLength="61" x="27" y="27.1074">ByteCeps</text><rect fill="#E2E2F0" height="32.6211" rx="2.5" ry="2.5" style="stroke:#181818;stroke-width:0.5;" width="98" x="273.5" y="5"/><text fill="#000000" font-family="sans-serif" font-size="14" lengthAdjust="spacing" textLength="84" x="280.5" y="27.1074">UserInterface</text><rect fill="#E2E2F0" height="32.6211" rx="2.5" ry="2.5" style="stroke:#181818;stroke-width:0.5;" width="60" x="381.5" y="5"/><text fill="#000000" font-family="sans-serif" font-size="14" lengthAdjust="spacing" textLength="46" x="388.5" y="27.1074">:Parser</text><rect fill="#E2E2F0" height="32.6211" rx="2.5" ry="2.5" style="stroke:#181818;stroke-width:0.5;" width="127" x="451.5" y="5"/><text fill="#000000" font-family="sans-serif" font-size="14" lengthAdjust="spacing" textLength="113" x="458.5" y="27.1074">:WorkoutManager</text><rect fill="#E2E2F0" height="32.6211" rx="2.5" ry="2.5" style="stroke:#181818;stroke-width:0.5;" width="127" x="641.5" y="5"/><text fill="#000000" font-family="sans-serif" font-size="14" lengthAdjust="spacing" textLength="113" x="648.5" y="27.1074">:WorkoutValidator</text><rect fill="#E2E2F0" height="32.6211" rx="2.5" ry="2.5" style="stroke:#181818;stroke-width:0.5;" width="71" x="778.5" y="5"/><text fill="#000000" font-family="sans-serif" font-size="14" lengthAdjust="spacing" textLength="57" x="785.5" y="27.1074">:Workout</text><rect fill="#FFFFFF" height="14" style="stroke:#181818;stroke-width:1.0;" width="10" x="317.5" y="562.4043"/><rect fill="#FFFFFF" height="14" style="stroke:#181818;stroke-width:1.0;" width="10" x="317.5" y="624.3262"/><rect fill="#FFFFFF" height="14" style="stroke:#181818;stroke-width:1.0;" width="10" x="406.5" y="71.9121"/><rect fill="#FFFFFF" height="536.123" style="stroke:#181818;stroke-width:1.0;" width="10" x="510" y="117.2031"/><rect fill="#FFBBBB" height="264.7461" style="stroke:#181818;stroke-width:1.0;" width="10" x="515" y="228.0762"/><rect fill="#FFFFFF" height="104.873" style="stroke:#181818;stroke-width:1.0;" width="10" x="520" y="272.3672"/><rect fill="#FFFFFF" height="25" style="stroke:#181818;stroke-width:1.0;" width="10" x="520" y="423.5313"/><rect fill="#FFFFFF" height="14" style="stroke:#181818;stroke-width:1.0;" width="10" x="700" y="148.4941"/><rect fill="#FFFFFF" height="31.291" style="stroke:#181818;stroke-width:1.0;" width="10" x="809" y="308.6582"/><polygon fill="#181818" points="394.5,67.9121,404.5,71.9121,394.5,75.9121" style="stroke:#181818;stroke-width:1.0;"/><line style="stroke:#181818;stroke-width:1.0;" x1="57.5" x2="400.5" y1="71.9121" y2="71.9121"/><text fill="#000000" font-family="sans-serif" font-size="13" lengthAdjust="spacing" textLength="121" x="64.5" y="66.6494">parseInput(userInput)</text><polygon fill="#181818" points="68.5,81.9121,58.5,85.9121,68.5,89.9121" style="stroke:#181818;stroke-width:1.0;"/><line style="stroke:#181818;stroke-width:1.0;stroke-dasharray:2.0,2.0;" x1="62.5" x2="410.5" y1="85.9121" y2="85.9121"/><polygon fill="#181818" points="498,113.2031,508,117.2031,498,121.2031" style="stroke:#181818;stroke-width:1.0;"/><line style="stroke:#181818;stroke-width:1.0;" x1="57.5" x2="504" y1="117.2031" y2="117.2031"/><text fill="#000000" font-family="sans-serif" font-size="13" lengthAdjust="spacing" textLength="90" x="64.5" y="111.9404">execute(parser)</text><polygon fill="#181818" points="688,144.4941,698,148.4941,688,152.4941" style="stroke:#181818;stroke-width:1.0;"/><line style="stroke:#181818;stroke-width:1.0;" x1="520" x2="694" y1="148.4941" y2="148.4941"/><text fill="#000000" font-family="sans-serif" font-size="13" lengthAdjust="spacing" textLength="148" x="527" y="143.2314">validateCommand(Parser)</text><polygon fill="#181818" points="531,158.4941,521,162.4941,531,166.4941" style="stroke:#181818;stroke-width:1.0;"/><line style="stroke:#181818;stroke-width:1.0;stroke-dasharray:2.0,2.0;" x1="525" x2="704" y1="162.4941" y2="162.4941"/><path d="M10,177.4941 L71,177.4941 L71,186.7852 L61,196.7852 L10,196.7852 L10,177.4941 " fill="#EEEEEE" style="stroke:#000000;stroke-width:1.5;"/><rect fill="none" height="468.832" style="stroke:#000000;stroke-width:1.5;" width="849.5" x="10" y="177.4941"/><text fill="#000000" font-family="sans-serif" font-size="13" font-weight="bold" lengthAdjust="spacing" textLength="16" x="25" y="192.5225">alt</text><text fill="#000000" font-family="sans-serif" font-size="11" font-weight="bold" lengthAdjust="spacing" textLength="126" x="86" y="191.3643">[Validation successful]</text><line style="stroke:#181818;stroke-width:1.0;" x1="520" x2="567" y1="215.0762" y2="215.0762"/><line style="stroke:#181818;stroke-width:1.0;" x1="567" x2="567" y1="215.0762" y2="228.0762"/><line style="stroke:#181818;stroke-width:1.0;" x1="526" x2="567" y1="228.0762" y2="228.0762"/><polygon fill="#181818" points="536,224.0762,526,228.0762,536,232.0762" style="stroke:#181818;stroke-width:1.0;"/><text fill="#000000" font-family="sans-serif" font-size="13" lengthAdjust="spacing" textLength="166" x="532" y="209.8135">executeDeleteAction(Parser)</text><line style="stroke:#181818;stroke-width:1.0;" x1="525" x2="572" y1="259.3672" y2="259.3672"/><line style="stroke:#181818;stroke-width:1.0;" x1="572" x2="572" y1="259.3672" y2="272.3672"/><line style="stroke:#181818;stroke-width:1.0;" x1="531" x2="572" y1="272.3672" y2="272.3672"/><polygon fill="#181818" points="541,268.3672,531,272.3672,541,276.3672" style="stroke:#181818;stroke-width:1.0;"/><text fill="#000000" font-family="sans-serif" font-size="13" lengthAdjust="spacing" textLength="97" x="537" y="254.1045">retrieve('LegDay')</text><polygon fill="#181818" points="797,304.6582,807,308.6582,797,312.6582" style="stroke:#181818;stroke-width:1.0;"/><line style="stroke:#181818;stroke-width:1.0;" x1="530" x2="803" y1="308.6582" y2="308.6582"/><text fill="#000000" font-family="sans-serif" font-size="13" lengthAdjust="spacing" textLength="126" x="537" y="303.3955">findByName('LegDay')</text><polygon fill="#181818" points="541,335.9492,531,339.9492,541,343.9492" style="stroke:#181818;stroke-width:1.0;"/><line style="stroke:#181818;stroke-width:1.0;stroke-dasharray:2.0,2.0;" x1="535" x2="813" y1="339.9492" y2="339.9492"/><text fill="#000000" font-family="sans-serif" font-size="13" lengthAdjust="spacing" textLength="131" x="547" y="334.6865">return existingWorkout</text><line style="stroke:#181818;stroke-width:1.0;stroke-dasharray:2.0,2.0;" x1="530" x2="572" y1="376.2402" y2="376.2402"/><line style="stroke:#181818;stroke-width:1.0;stroke-dasharray:2.0,2.0;" x1="572" x2="572" y1="376.2402" y2="389.2402"/><line style="stroke:#181818;stroke-width:1.0;stroke-dasharray:2.0,2.0;" x1="525" x2="572" y1="389.2402" y2="389.2402"/><polygon fill="#181818" points="535,385.2402,525,389.2402,535,393.2402" style="stroke:#181818;stroke-width:1.0;"/><text fill="#000000" font-family="sans-serif" font-size="13" lengthAdjust="spacing" textLength="94" x="537" y="370.9775">existingWorkout</text><line style="stroke:#181818;stroke-width:1.0;" x1="525" x2="572" y1="410.5313" y2="410.5313"/><line style="stroke:#181818;stroke-width:1.0;" x1="572" x2="572" y1="410.5313" y2="423.5313"/><line style="stroke:#181818;stroke-width:1.0;" x1="531" x2="572" y1="423.5313" y2="423.5313"/><polygon fill="#181818" points="541,419.5313,531,423.5313,541,427.5313" style="stroke:#181818;stroke-width:1.0;"/><text fill="#000000" font-family="sans-serif" font-size="13" lengthAdjust="spacing" textLength="137" x="537" y="405.2686">delete(existingWorkout)</text><line style="stroke:#181818;stroke-width:1.0;stroke-dasharray:2.0,2.0;" x1="530" x2="572" y1="447.5313" y2="447.5313"/><line style="stroke:#181818;stroke-width:1.0;stroke-dasharray:2.0,2.0;" x1="572" x2="572" y1="447.5313" y2="460.5313"/><line style="stroke:#181818;stroke-width:1.0;stroke-dasharray:2.0,2.0;" x1="525" x2="572" y1="460.5313" y2="460.5313"/><polygon fill="#181818" points="535,456.5313,525,460.5313,535,464.5313" style="stroke:#181818;stroke-width:1.0;"/><line style="stroke:#181818;stroke-width:1.0;stroke-dasharray:2.0,2.0;" x1="525" x2="567" y1="491.8223" y2="491.8223"/><line style="stroke:#181818;stroke-width:1.0;stroke-dasharray:2.0,2.0;" x1="567" x2="567" y1="491.8223" y2="504.8223"/><line style="stroke:#181818;stroke-width:1.0;stroke-dasharray:2.0,2.0;" x1="520" x2="567" y1="504.8223" y2="504.8223"/><polygon fill="#181818" points="530,500.8223,520,504.8223,530,508.8223" style="stroke:#181818;stroke-width:1.0;"/><text fill="#000000" font-family="sans-serif" font-size="13" lengthAdjust="spacing" textLength="131" x="532" y="486.5596">return messageToUser</text><polygon fill="#181818" points="68.5,527.1133,58.5,531.1133,68.5,535.1133" style="stroke:#181818;stroke-width:1.0;"/><line style="stroke:#181818;stroke-width:1.0;stroke-dasharray:2.0,2.0;" x1="62.5" x2="509" y1="531.1133" y2="531.1133"/><text fill="#000000" font-family="sans-serif" font-size="13" lengthAdjust="spacing" textLength="94" x="74.5" y="525.8506">messageToUser</text><polygon fill="#181818" points="305.5,558.4043,315.5,562.4043,305.5,566.4043" style="stroke:#181818;stroke-width:1.0;"/><line style="stroke:#181818;stroke-width:1.0;" x1="57.5" x2="311.5" y1="562.4043" y2="562.4043"/><text fill="#000000" font-family="sans-serif" font-size="13" lengthAdjust="spacing" textLength="180" x="64.5" y="557.1416">printMessage(messageToUser)</text><polygon fill="#181818" points="68.5,572.4043,58.5,576.4043,68.5,580.4043" style="stroke:#181818;stroke-width:1.0;"/><line style="stroke:#181818;stroke-width:1.0;stroke-dasharray:2.0,2.0;" x1="62.5" x2="321.5" y1="576.4043" y2="576.4043"/><line style="stroke:#000000;stroke-width:1.0;stroke-dasharray:2.0,2.0;" x1="10" x2="859.5" y1="585.4043" y2="585.4043"/><text fill="#000000" font-family="sans-serif" font-size="11" font-weight="bold" lengthAdjust="spacing" textLength="88" x="15" y="597.2744">[Validation fails]</text><polygon fill="#181818" points="305.5,620.3262,315.5,624.3262,305.5,628.3262" style="stroke:#181818;stroke-width:1.0;"/><line style="stroke:#181818;stroke-width:1.0;" x1="57.5" x2="311.5" y1="624.3262" y2="624.3262"/><text fill="#000000" font-family="sans-serif" font-size="13" lengthAdjust="spacing" textLength="241" x="64.5" y="619.0635">printMessage(exceptionMessage : String)</text><polygon fill="#181818" points="68.5,634.3262,58.5,638.3262,68.5,642.3262" style="stroke:#181818;stroke-width:1.0;"/><line style="stroke:#181818;stroke-width:1.0;stroke-dasharray:2.0,2.0;" x1="62.5" x2="321.5" y1="638.3262" y2="638.3262"/><!--SRC=[dLHDRuCm3BtdLqJTOUnGQUTgcjHkcbHfdIhjw-m55qKB0IMc6llrCr0eKChOSa29u_Vy_4ZYFxLDmK4ibG7lbqHEVsI4QvNOP_sDybhu9iLJRf2_JYlAOYC4XqahdO8bkSe9xp3r4hnyzUWwcqLWRGdT3XHsTcQBBJZUdHMuQjhRVq_SPvBH1Yn4XxnkQ3Z_3OmEWP8AqQo6azkiGXHgvVps84SkP5fCrZRDACZAJdXs9K2HtWDXBRk4tSpdzJh4VaR3t6s0A-0NAhOzA2kv5dUlLT53CbVJ6jFigpdU9N4CDWosVRgZ3qVOV41GM_mH8y1GlTI9bJvJ2htVPKP87gVQplLvZmO9bwfWQKGM56VwbXSF3oiUOceTXtnASO_1vID6zv1VZjAFipBTJjjmbJz1_1jXcsdGs49PvYmReJrf6xLnBSy7w1fXmxvEeVklcs7vku9UaRzREdJGHfKACTc1WwyndqUEl2Jb6pJDXZCbNglBVyfOt-BEgyQlXDEMDbLsq47rdEg-XZLZ4scAz-LtSGADn_Pjt84sVh90_5AO5hX3W3jzvZjZet-ANOohHHiASVu_dxwLFm00]--></g></svg>