<?xml version="1.0" encoding="us-ascii" standalone="no"?><svg xmlns="http://www.w3.org/2000/svg" xmlns:xlink="http://www.w3.org/1999/xlink" contentStyleType="text/css" height="373px" preserveAspectRatio="none" style="width:1016px;height:373px;background:#FFFFFF;" version="1.1" viewBox="0 0 1016 373" width="1016px" zoomAndPan="magnify"><defs/><g><rect fill="#FFFFFF" height="309.3281" style="stroke:#181818;stroke-width:1.0;" width="10" x="123.5" y="48.6211"/><rect fill="#FFFFFF" height="262.0371" style="stroke:#181818;stroke-width:1.0;" width="10" x="128.5" y="79.9121"/><rect fill="#FFFFFF" height="31.291" style="stroke:#181818;stroke-width:1.0;" width="10" x="563.5" y="116.2031"/><rect fill="#FFFFFF" height="31.291" style="stroke:#181818;stroke-width:1.0;" width="10" x="672.5" y="231.3672"/><rect fill="#FFFFFF" height="14" style="stroke:#181818;stroke-width:1.0;" width="10" x="851.5" y="293.9492"/><rect fill="none" height="160.4551" style="stroke:#000000;stroke-width:1.5;" width="1000" x="10" y="162.4941"/><rect fill="none" height="127.1641" style="stroke:#000000;stroke-width:1.5;" width="980" x="20" y="188.7852"/><line style="stroke:#181818;stroke-width:0.5;stroke-dasharray:5.0,5.0;" x1="128" x2="128" y1="38.6211" y2="366.9492"/><line style="stroke:#181818;stroke-width:0.5;stroke-dasharray:5.0,5.0;" x1="568" x2="568" y1="38.6211" y2="366.9492"/><line style="stroke:#181818;stroke-width:0.5;stroke-dasharray:5.0,5.0;" x1="677" x2="677" y1="38.6211" y2="366.9492"/><line style="stroke:#181818;stroke-width:0.5;stroke-dasharray:5.0,5.0;" x1="856" x2="856" y1="38.6211" y2="366.9492"/><rect fill="#E2E2F0" height="32.6211" rx="2.5" ry="2.5" style="stroke:#181818;stroke-width:0.5;" width="197" x="30" y="5"/><text fill="#000000" font-family="sans-serif" font-size="14" lengthAdjust="spacing" textLength="183" x="37" y="27.1074">CascadingDeletionProcessor</text><rect fill="#E2E2F0" height="32.6211" rx="2.5" ry="2.5" style="stroke:#181818;stroke-width:0.5;" width="127" x="505" y="5"/><text fill="#000000" font-family="sans-serif" font-size="14" lengthAdjust="spacing" textLength="113" x="512" y="27.1074">:WorkoutManager</text><rect fill="#E2E2F0" height="32.6211" rx="2.5" ry="2.5" style="stroke:#181818;stroke-width:0.5;" width="71" x="642" y="5"/><text fill="#000000" font-family="sans-serif" font-size="14" lengthAdjust="spacing" textLength="57" x="649" y="27.1074">:Workout</text><rect fill="#E2E2F0" height="32.6211" rx="2.5" ry="2.5" style="stroke:#181818;stroke-width:0.5;" width="267" x="723" y="5"/><text fill="#000000" font-family="sans-serif" font-size="14" lengthAdjust="spacing" textLength="253" x="730" y="27.1074">workoutExerciseList:ArrayList&lt;Exercise&gt;</text><rect fill="#FFFFFF" height="309.3281" style="stroke:#181818;stroke-width:1.0;" width="10" x="123.5" y="48.6211"/><rect fill="#FFFFFF" height="262.0371" style="stroke:#181818;stroke-width:1.0;" width="10" x="128.5" y="79.9121"/><rect fill="#FFFFFF" height="31.291" style="stroke:#181818;stroke-width:1.0;" width="10" x="563.5" y="116.2031"/><rect fill="#FFFFFF" height="31.291" style="stroke:#181818;stroke-width:1.0;" width="10" x="672.5" y="231.3672"/><rect fill="#FFFFFF" height="14" style="stroke:#181818;stroke-width:1.0;" width="10" x="851.5" y="293.9492"/><line style="stroke:#181818;stroke-width:1.0;" x1="133.5" x2="180.5" y1="66.9121" y2="66.9121"/><line style="stroke:#181818;stroke-width:1.0;" x1="180.5" x2="180.5" y1="66.9121" y2="79.9121"/><line style="stroke:#181818;stroke-width:1.0;" x1="139.5" x2="180.5" y1="79.9121" y2="79.9121"/><polygon fill="#181818" points="149.5,75.9121,139.5,79.9121,149.5,83.9121" style="stroke:#181818;stroke-width:1.0;"/><text fill="#000000" font-family="sans-serif" font-size="13" lengthAdjust="spacing" textLength="416" x="145.5" y="61.6494">removeDeletedExerciseFromWorkouts(exerciseName, workoutManager)</text><polygon fill="#181818" points="551.5,112.2031,561.5,116.2031,551.5,120.2031" style="stroke:#181818;stroke-width:1.0;"/><line style="stroke:#181818;stroke-width:1.0;" x1="138.5" x2="557.5" y1="116.2031" y2="116.2031"/><text fill="#000000" font-family="sans-serif" font-size="13" lengthAdjust="spacing" textLength="89" x="145.5" y="110.9404">getActivityList()</text><polygon fill="#181818" points="149.5,143.4941,139.5,147.4941,149.5,151.4941" style="stroke:#181818;stroke-width:1.0;"/><line style="stroke:#181818;stroke-width:1.0;stroke-dasharray:2.0,2.0;" x1="143.5" x2="567.5" y1="147.4941" y2="147.4941"/><text fill="#000000" font-family="sans-serif" font-size="13" lengthAdjust="spacing" textLength="66" x="155.5" y="142.2314">workoutList</text><path d="M10,162.4941 L83,162.4941 L83,171.7852 L73,181.7852 L10,181.7852 L10,162.4941 " fill="#EEEEEE" style="stroke:#000000;stroke-width:1.5;"/><rect fill="none" height="160.4551" style="stroke:#000000;stroke-width:1.5;" width="1000" x="10" y="162.4941"/><text fill="#000000" font-family="sans-serif" font-size="13" font-weight="bold" lengthAdjust="spacing" textLength="28" x="25" y="177.5225">loop</text><text fill="#000000" font-family="sans-serif" font-size="11" font-weight="bold" lengthAdjust="spacing" textLength="192" x="98" y="176.3643">[for every workout in workoutList]</text><path d="M20,188.7852 L85,188.7852 L85,198.0762 L75,208.0762 L20,208.0762 L20,188.7852 " fill="#EEEEEE" style="stroke:#000000;stroke-width:1.5;"/><rect fill="none" height="127.1641" style="stroke:#000000;stroke-width:1.5;" width="980" x="20" y="188.7852"/><text fill="#000000" font-family="sans-serif" font-size="13" font-weight="bold" lengthAdjust="spacing" textLength="20" x="35" y="203.8135">opt</text><text fill="#000000" font-family="sans-serif" font-size="11" font-weight="bold" lengthAdjust="spacing" textLength="177" x="100" y="202.6553">[deleted exercise is in workout]</text><polygon fill="#181818" points="660.5,227.3672,670.5,231.3672,660.5,235.3672" style="stroke:#181818;stroke-width:1.0;"/><line style="stroke:#181818;stroke-width:1.0;" x1="138.5" x2="666.5" y1="231.3672" y2="231.3672"/><text fill="#000000" font-family="sans-serif" font-size="13" lengthAdjust="spacing" textLength="98" x="145.5" y="226.1045">getExerciseList()</text><polygon fill="#181818" points="149.5,258.6582,139.5,262.6582,149.5,266.6582" style="stroke:#181818;stroke-width:1.0;"/><line style="stroke:#181818;stroke-width:1.0;stroke-dasharray:2.0,2.0;" x1="143.5" x2="676.5" y1="262.6582" y2="262.6582"/><text fill="#000000" font-family="sans-serif" font-size="13" lengthAdjust="spacing" textLength="125" x="155.5" y="257.3955">workoutExerciseList()</text><polygon fill="#181818" points="839.5,289.9492,849.5,293.9492,839.5,297.9492" style="stroke:#181818;stroke-width:1.0;"/><line style="stroke:#181818;stroke-width:1.0;" x1="138.5" x2="845.5" y1="293.9492" y2="293.9492"/><text fill="#000000" font-family="sans-serif" font-size="13" lengthAdjust="spacing" textLength="306" x="145.5" y="288.6865">removeIf(exercise -&gt; exercise.equals(exerciseName))</text><polygon fill="#181818" points="149.5,303.9492,139.5,307.9492,149.5,311.9492" style="stroke:#181818;stroke-width:1.0;"/><line style="stroke:#181818;stroke-width:1.0;stroke-dasharray:2.0,2.0;" x1="143.5" x2="855.5" y1="307.9492" y2="307.9492"/><line style="stroke:#181818;stroke-width:1.0;stroke-dasharray:2.0,2.0;" x1="138.5" x2="180.5" y1="340.9492" y2="340.9492"/><line style="stroke:#181818;stroke-width:1.0;stroke-dasharray:2.0,2.0;" x1="180.5" x2="180.5" y1="340.9492" y2="353.9492"/><line style="stroke:#181818;stroke-width:1.0;stroke-dasharray:2.0,2.0;" x1="133.5" x2="180.5" y1="353.9492" y2="353.9492"/><polygon fill="#181818" points="143.5,349.9492,133.5,353.9492,143.5,357.9492" style="stroke:#181818;stroke-width:1.0;"/><!--SRC=[TLBBQiCm4BphAvQS4cXApwO4GXyGQ4kXXvwtyYOiiILNMYTDlxwo7RbI7W8RivgPdTcrtx9fq64DkaBlboAElrgXbRRcWty9xfGV8LuE5OMtOorjNIaLoiAQ6pG23-WrbcmsZrIHi3NlpchotZf03ph3JefFwxQsbLSqk24twI1vwJ8-1UQ8_L1y-Y6dsTCBUocMpk6X-xgFvKKlG0b8AOLQU8T2mQI6-G8q5E2ejZlger0PsS_EriVcVXf5th2c6zXdvcUffj91CmyN6cn8bXs6fNSuJIWdWpYXpZk7HMpOHoZf6bTLrZQm3ZkW7Rb3P06RJ032iOr0EUGT1mJi4sWFwqu_fMEd8KewzX0b0azjZHUHd8Uved8UJ_rR2GBfEiVLhTRZXY31tD9tYrM-lTa5mzal4c-pHeFrIoRFk6HArJtwo4cmMlq1]--></g></svg>