<?xml version="1.0" encoding="us-ascii" standalone="no"?><svg xmlns="http://www.w3.org/2000/svg" xmlns:xlink="http://www.w3.org/1999/xlink" contentStyleType="text/css" height="614px" preserveAspectRatio="none" style="width:1623px;height:614px;background:#FFFFFF;" version="1.1" viewBox="0 0 1623 614" width="1623px" zoomAndPan="magnify"><defs/><g><rect fill="#FFFFFF" height="549.7344" style="stroke:#181818;stroke-width:1.0;" width="10" x="123.5" y="48.6211"/><rect fill="#FFFFFF" height="502.4434" style="stroke:#181818;stroke-width:1.0;" width="10" x="128.5" y="79.9121"/><rect fill="#FFFFFF" height="31.291" style="stroke:#181818;stroke-width:1.0;" width="10" x="601.5" y="116.2031"/><rect fill="#FFFFFF" height="14" style="stroke:#181818;stroke-width:1.0;" width="10" x="864.5" y="368.8613"/><rect fill="#FFFFFF" height="14" style="stroke:#181818;stroke-width:1.0;" width="10" x="864.5" y="534.3555"/><rect fill="#FFFFFF" height="31.291" style="stroke:#181818;stroke-width:1.0;" width="10" x="1097" y="279.9883"/><rect fill="#FFFFFF" height="33.6211" style="stroke:#181818;stroke-width:1.0;" width="10" x="1326.5" y="188.7852"/><rect fill="#FFFFFF" height="33.6211" style="stroke:#181818;stroke-width:1.0;" width="10" x="1546" y="424.1523"/><rect fill="#FFFFFF" height="14" style="stroke:#181818;stroke-width:1.0;" width="10" x="1546" y="489.0645"/><rect fill="none" height="325.9492" style="stroke:#000000;stroke-width:1.5;" width="1607.5" x="10" y="237.4063"/><rect fill="none" height="230.0762" style="stroke:#000000;stroke-width:1.5;" width="1587.5" x="20" y="326.2793"/><line style="stroke:#181818;stroke-width:0.5;stroke-dasharray:5.0,5.0;" x1="128" x2="128" y1="38.6211" y2="607.3555"/><line style="stroke:#181818;stroke-width:0.5;stroke-dasharray:5.0,5.0;" x1="606.5" x2="606.5" y1="38.6211" y2="607.3555"/><line style="stroke:#181818;stroke-width:0.5;stroke-dasharray:5.0,5.0;" x1="869.5" x2="869.5" y1="38.6211" y2="607.3555"/><line style="stroke:#181818;stroke-width:0.5;stroke-dasharray:5.0,5.0;" x1="1101.5" x2="1101.5" y1="38.6211" y2="607.3555"/><line style="stroke:#181818;stroke-width:0.5;stroke-dasharray:5.0,5.0;" x1="1331.5" x2="1331.5" y1="187.3047" y2="607.3555"/><line style="stroke:#181818;stroke-width:0.5;stroke-dasharray:5.0,5.0;" x1="1550.5" x2="1550.5" y1="422.6719" y2="607.3555"/><rect fill="#E2E2F0" height="32.6211" rx="2.5" ry="2.5" style="stroke:#181818;stroke-width:0.5;" width="197" x="30" y="5"/><text fill="#000000" font-family="sans-serif" font-size="14" lengthAdjust="spacing" textLength="183" x="37" y="27.1074">CascadingDeletionProcessor</text><rect fill="#E2E2F0" height="32.6211" rx="2.5" ry="2.5" style="stroke:#181818;stroke-width:0.5;" width="174" x="519.5" y="5"/><text fill="#000000" font-family="sans-serif" font-size="14" lengthAdjust="spacing" textLength="160" x="526.5" y="27.1074">:WeeklyProgramManager</text><rect fill="#E2E2F0" height="32.6211" rx="2.5" ry="2.5" style="stroke:#181818;stroke-width:0.5;" width="332" x="703.5" y="5"/><text fill="#000000" font-family="sans-serif" font-size="14" lengthAdjust="spacing" textLength="318" x="710.5" y="27.1074">newWorkoutsInProgram:LinkedHashSet&lt;Workout&gt;</text><rect fill="#E2E2F0" height="32.6211" rx="2.5" ry="2.5" style="stroke:#181818;stroke-width:0.5;" width="113" x="1045.5" y="5"/><text fill="#000000" font-family="sans-serif" font-size="14" lengthAdjust="spacing" textLength="99" x="1052.5" y="27.1074">currentDay:Day</text><rect fill="#FFFFFF" height="549.7344" style="stroke:#181818;stroke-width:1.0;" width="10" x="123.5" y="48.6211"/><rect fill="#FFFFFF" height="502.4434" style="stroke:#181818;stroke-width:1.0;" width="10" x="128.5" y="79.9121"/><rect fill="#FFFFFF" height="31.291" style="stroke:#181818;stroke-width:1.0;" width="10" x="601.5" y="116.2031"/><rect fill="#FFFFFF" height="14" style="stroke:#181818;stroke-width:1.0;" width="10" x="864.5" y="368.8613"/><rect fill="#FFFFFF" height="14" style="stroke:#181818;stroke-width:1.0;" width="10" x="864.5" y="534.3555"/><rect fill="#FFFFFF" height="31.291" style="stroke:#181818;stroke-width:1.0;" width="10" x="1097" y="279.9883"/><rect fill="#FFFFFF" height="33.6211" style="stroke:#181818;stroke-width:1.0;" width="10" x="1326.5" y="188.7852"/><rect fill="#FFFFFF" height="33.6211" style="stroke:#181818;stroke-width:1.0;" width="10" x="1546" y="424.1523"/><rect fill="#FFFFFF" height="14" style="stroke:#181818;stroke-width:1.0;" width="10" x="1546" y="489.0645"/><line style="stroke:#181818;stroke-width:1.0;" x1="133.5" x2="180.5" y1="66.9121" y2="66.9121"/><line style="stroke:#181818;stroke-width:1.0;" x1="180.5" x2="180.5" y1="66.9121" y2="79.9121"/><line style="stroke:#181818;stroke-width:1.0;" x1="139.5" x2="180.5" y1="79.9121" y2="79.9121"/><polygon fill="#181818" points="149.5,75.9121,139.5,79.9121,149.5,83.9121" style="stroke:#181818;stroke-width:1.0;"/><text fill="#000000" font-family="sans-serif" font-size="13" lengthAdjust="spacing" textLength="454" x="145.5" y="61.6494">removeDeletedWorkoutsFromProgram(workoutName, weeklyProgramManager)</text><polygon fill="#181818" points="589.5,112.2031,599.5,116.2031,589.5,120.2031" style="stroke:#181818;stroke-width:1.0;"/><line style="stroke:#181818;stroke-width:1.0;" x1="138.5" x2="595.5" y1="116.2031" y2="116.2031"/><text fill="#000000" font-family="sans-serif" font-size="13" lengthAdjust="spacing" textLength="69" x="145.5" y="110.9404">getDaySet()</text><polygon fill="#181818" points="149.5,143.4941,139.5,147.4941,149.5,151.4941" style="stroke:#181818;stroke-width:1.0;"/><line style="stroke:#181818;stroke-width:1.0;stroke-dasharray:2.0,2.0;" x1="143.5" x2="605.5" y1="147.4941" y2="147.4941"/><text fill="#000000" font-family="sans-serif" font-size="13" lengthAdjust="spacing" textLength="138" x="155.5" y="142.2314">newWorkoutsInProgram</text><polygon fill="#181818" points="1156.5,174.7852,1166.5,178.7852,1156.5,182.7852" style="stroke:#181818;stroke-width:1.0;"/><line style="stroke:#181818;stroke-width:1.0;" x1="138.5" x2="1162.5" y1="178.7852" y2="178.7852"/><text fill="#000000" font-family="sans-serif" font-size="13" lengthAdjust="spacing" textLength="261" x="145.5" y="173.5225">new LinkedHashSet(newWorkoutsInProgram)</text><rect fill="#E2E2F0" height="32.6211" rx="2.5" ry="2.5" style="stroke:#181818;stroke-width:0.5;" width="326" x="1168.5" y="155.4941"/><text fill="#000000" font-family="sans-serif" font-size="14" lengthAdjust="spacing" textLength="312" x="1175.5" y="177.6016">oldWorkoutsInProgram:LinkedHashSet&lt;Workout&gt;</text><polygon fill="#181818" points="149.5,218.4063,139.5,222.4063,149.5,226.4063" style="stroke:#181818;stroke-width:1.0;"/><line style="stroke:#181818;stroke-width:1.0;stroke-dasharray:2.0,2.0;" x1="143.5" x2="1330.5" y1="222.4063" y2="222.4063"/><text fill="#000000" font-family="sans-serif" font-size="13" lengthAdjust="spacing" textLength="132" x="155.5" y="217.1436">oldWorkoutsInProgram</text><path d="M10,237.4063 L83,237.4063 L83,246.6973 L73,256.6973 L10,256.6973 L10,237.4063 " fill="#EEEEEE" style="stroke:#000000;stroke-width:1.5;"/><rect fill="none" height="325.9492" style="stroke:#000000;stroke-width:1.5;" width="1607.5" x="10" y="237.4063"/><text fill="#000000" font-family="sans-serif" font-size="13" font-weight="bold" lengthAdjust="spacing" textLength="28" x="25" y="252.4346">loop</text><text fill="#000000" font-family="sans-serif" font-size="11" font-weight="bold" lengthAdjust="spacing" textLength="225" x="98" y="251.2764">[for every day in oldWorkoutsInProgram]</text><polygon fill="#181818" points="1085,275.9883,1095,279.9883,1085,283.9883" style="stroke:#181818;stroke-width:1.0;"/><line style="stroke:#181818;stroke-width:1.0;" x1="138.5" x2="1091" y1="279.9883" y2="279.9883"/><text fill="#000000" font-family="sans-serif" font-size="13" lengthAdjust="spacing" textLength="129" x="145.5" y="274.7256">getAssignedWorkout()</text><polygon fill="#181818" points="149.5,307.2793,139.5,311.2793,149.5,315.2793" style="stroke:#181818;stroke-width:1.0;"/><line style="stroke:#181818;stroke-width:1.0;stroke-dasharray:2.0,2.0;" x1="143.5" x2="1101" y1="311.2793" y2="311.2793"/><text fill="#000000" font-family="sans-serif" font-size="13" lengthAdjust="spacing" textLength="45" x="155.5" y="306.0166">workout</text><path d="M20,326.2793 L85,326.2793 L85,335.5703 L75,345.5703 L20,345.5703 L20,326.2793 " fill="#EEEEEE" style="stroke:#000000;stroke-width:1.5;"/><rect fill="none" height="230.0762" style="stroke:#000000;stroke-width:1.5;" width="1587.5" x="20" y="326.2793"/><text fill="#000000" font-family="sans-serif" font-size="13" font-weight="bold" lengthAdjust="spacing" textLength="20" x="35" y="341.3076">opt</text><text fill="#000000" font-family="sans-serif" font-size="11" font-weight="bold" lengthAdjust="spacing" textLength="332" x="100" y="340.1494">[workout name matches currentDay.getAssignedWorkout()]</text><polygon fill="#181818" points="852.5,364.8613,862.5,368.8613,852.5,372.8613" style="stroke:#181818;stroke-width:1.0;"/><line style="stroke:#181818;stroke-width:1.0;" x1="138.5" x2="858.5" y1="368.8613" y2="368.8613"/><text fill="#000000" font-family="sans-serif" font-size="13" lengthAdjust="spacing" textLength="112" x="145.5" y="363.5986">remove(currentDay)</text><polygon fill="#181818" points="149.5,378.8613,139.5,382.8613,149.5,386.8613" style="stroke:#181818;stroke-width:1.0;"/><line style="stroke:#181818;stroke-width:1.0;stroke-dasharray:2.0,2.0;" x1="143.5" x2="868.5" y1="382.8613" y2="382.8613"/><polygon fill="#181818" points="1492.5,410.1523,1502.5,414.1523,1492.5,418.1523" style="stroke:#181818;stroke-width:1.0;"/><line style="stroke:#181818;stroke-width:1.0;" x1="138.5" x2="1498.5" y1="414.1523" y2="414.1523"/><text fill="#000000" font-family="sans-serif" font-size="13" lengthAdjust="spacing" textLength="155" x="145.5" y="408.8896">new Day(currentDayString)</text><rect fill="#E2E2F0" height="32.6211" rx="2.5" ry="2.5" style="stroke:#181818;stroke-width:0.5;" width="93" x="1504.5" y="390.8613"/><text fill="#000000" font-family="sans-serif" font-size="14" lengthAdjust="spacing" textLength="79" x="1511.5" y="412.9688">newDay:Day</text><polygon fill="#181818" points="149.5,453.7734,139.5,457.7734,149.5,461.7734" style="stroke:#181818;stroke-width:1.0;"/><line style="stroke:#181818;stroke-width:1.0;stroke-dasharray:2.0,2.0;" x1="143.5" x2="1550" y1="457.7734" y2="457.7734"/><text fill="#000000" font-family="sans-serif" font-size="13" lengthAdjust="spacing" textLength="46" x="155.5" y="452.5107">newDay</text><polygon fill="#181818" points="1534,485.0645,1544,489.0645,1534,493.0645" style="stroke:#181818;stroke-width:1.0;"/><line style="stroke:#181818;stroke-width:1.0;" x1="138.5" x2="1540" y1="489.0645" y2="489.0645"/><text fill="#000000" font-family="sans-serif" font-size="13" lengthAdjust="spacing" textLength="149" x="145.5" y="483.8018">setAssignedWorkout(null)</text><polygon fill="#181818" points="149.5,499.0645,139.5,503.0645,149.5,507.0645" style="stroke:#181818;stroke-width:1.0;"/><line style="stroke:#181818;stroke-width:1.0;stroke-dasharray:2.0,2.0;" x1="143.5" x2="1550" y1="503.0645" y2="503.0645"/><polygon fill="#181818" points="852.5,530.3555,862.5,534.3555,852.5,538.3555" style="stroke:#181818;stroke-width:1.0;"/><line style="stroke:#181818;stroke-width:1.0;" x1="138.5" x2="858.5" y1="534.3555" y2="534.3555"/><text fill="#000000" font-family="sans-serif" font-size="13" lengthAdjust="spacing" textLength="75" x="145.5" y="529.0928">add(newDay)</text><polygon fill="#181818" points="149.5,544.3555,139.5,548.3555,149.5,552.3555" style="stroke:#181818;stroke-width:1.0;"/><line style="stroke:#181818;stroke-width:1.0;stroke-dasharray:2.0,2.0;" x1="143.5" x2="868.5" y1="548.3555" y2="548.3555"/><line style="stroke:#181818;stroke-width:1.0;stroke-dasharray:2.0,2.0;" x1="138.5" x2="180.5" y1="581.3555" y2="581.3555"/><line style="stroke:#181818;stroke-width:1.0;stroke-dasharray:2.0,2.0;" x1="180.5" x2="180.5" y1="581.3555" y2="594.3555"/><line style="stroke:#181818;stroke-width:1.0;stroke-dasharray:2.0,2.0;" x1="133.5" x2="180.5" y1="594.3555" y2="594.3555"/><polygon fill="#181818" points="143.5,590.3555,133.5,594.3555,143.5,598.3555" style="stroke:#181818;stroke-width:1.0;"/><!--SRC=[jLJ1Qjmm4BthAuOzkT24d4q9X8QIXIG4zf2p8aqTiRAqIF8kpjT7bcLxl5L2SgZ1nj9xCtepyso_L-R07Mz1QExzJGXElNG1jyAQdNf3k69-flZGQunFfqJeMirOt0vAg0Ct0NvpBxXKfhb5ZK5Py-IiGE-j0-v1hBYR-Xbnh_j8QMBY1svuWsup44l0EjRWwTcwlUs2tvfChE-LsQEyu_vrX-5NngzJHi9V9nATSsZ2BU_hU2VkiiKO5q4TUS2edOcBQn0rE6pj4LE1AAUaVvnjiupgDEuzyXP_mgbGoe_pjALwQsXmq11BgKX0iJMbJRWOvPOwnIH-df09XmEuiLf-gy-4d_f5raaAh6AhaZXIBCr6tgVIIk9eQJISQMiFy3SQ4O_eUf2y1sNAAI1UKVpY0qZ3kF5UDMQUUPpAG5n6kTWc9LYYizpiYuGIbTHk0sGFOQA2YHw2bWVnYjINbn-goT99NoV3LaluGfr5qEzZ0ibUBc66Y7mQkKZ8zeaW_RB6vPdGWP2i4L-8o5tymvYcB9Kc6PV4xHHSwvnRV7Qu_xURfjFwcsT_yL1OpOPBMOsa_pQK0K8ZsN2B74BjnzWx]--></g></svg>