<?xml version="1.0" encoding="us-ascii" standalone="no"?><svg xmlns="http://www.w3.org/2000/svg" xmlns:xlink="http://www.w3.org/1999/xlink" contentStyleType="text/css" height="616px" preserveAspectRatio="none" style="width:955px;height:616px;background:#FFFFFF;" version="1.1" viewBox="0 0 955 616" width="955px" zoomAndPan="magnify"><defs/><g><rect fill="#FFFFFF" height="14" style="stroke:#181818;stroke-width:1.0;" width="10" x="317.5" y="508.4043"/><rect fill="#FFFFFF" height="14" style="stroke:#181818;stroke-width:1.0;" width="10" x="317.5" y="570.3262"/><rect fill="#FFFFFF" height="14" style="stroke:#181818;stroke-width:1.0;" width="10" x="406.5" y="71.9121"/><rect fill="#FFFFFF" height="483.123" style="stroke:#181818;stroke-width:1.0;" width="10" x="515" y="117.2031"/><rect fill="#FFBBBB" height="193.4551" style="stroke:#181818;stroke-width:1.0;" width="10" x="520" y="245.3672"/><rect fill="#FFFFFF" height="104.873" style="stroke:#181818;stroke-width:1.0;" width="10" x="525" y="289.6582"/><rect fill="#FFFFFF" height="31.291" style="stroke:#181818;stroke-width:1.0;" width="10" x="895" y="148.4941"/><rect fill="none" height="397.541" style="stroke:#000000;stroke-width:1.5;" width="841" x="10" y="194.7852"/><line style="stroke:#181818;stroke-width:0.5;stroke-dasharray:5.0,5.0;" x1="57" x2="57" y1="38.6211" y2="609.3262"/><line style="stroke:#181818;stroke-width:0.5;stroke-dasharray:5.0,5.0;" x1="322.5" x2="322.5" y1="38.6211" y2="609.3262"/><line style="stroke:#181818;stroke-width:0.5;stroke-dasharray:5.0,5.0;" x1="411.5" x2="411.5" y1="38.6211" y2="609.3262"/><line style="stroke:#181818;stroke-width:0.5;stroke-dasharray:5.0,5.0;" x1="519.5" x2="519.5" y1="38.6211" y2="609.3262"/><line style="stroke:#181818;stroke-width:0.5;stroke-dasharray:5.0,5.0;" x1="798" x2="798" y1="38.6211" y2="609.3262"/><line style="stroke:#181818;stroke-width:0.5;stroke-dasharray:5.0,5.0;" x1="900" x2="900" y1="38.6211" y2="609.3262"/><rect fill="#E2E2F0" height="32.6211" rx="2.5" ry="2.5" style="stroke:#181818;stroke-width:0.5;" width="75" x="20" y="5"/><text fill="#000000" font-family="sans-serif" font-size="14" lengthAdjust="spacing" textLength="61" x="27" y="27.1074">ByteCeps</text><rect fill="#E2E2F0" height="32.6211" rx="2.5" ry="2.5" style="stroke:#181818;stroke-width:0.5;" width="98" x="273.5" y="5"/><text fill="#000000" font-family="sans-serif" font-size="14" lengthAdjust="spacing" textLength="84" x="280.5" y="27.1074">UserInterface</text><rect fill="#E2E2F0" height="32.6211" rx="2.5" ry="2.5" style="stroke:#181818;stroke-width:0.5;" width="60" x="381.5" y="5"/><text fill="#000000" font-family="sans-serif" font-size="14" lengthAdjust="spacing" textLength="46" x="388.5" y="27.1074">:Parser</text><rect fill="#E2E2F0" height="32.6211" rx="2.5" ry="2.5" style="stroke:#181818;stroke-width:0.5;" width="137" x="451.5" y="5"/><text fill="#000000" font-family="sans-serif" font-size="14" lengthAdjust="spacing" textLength="123" x="458.5" y="27.1074">:HelpMenuManager</text><rect fill="#E2E2F0" height="32.6211" rx="2.5" ry="2.5" style="stroke:#181818;stroke-width:0.5;" width="86" x="755" y="5"/><text fill="#000000" font-family="sans-serif" font-size="14" lengthAdjust="spacing" textLength="72" x="762" y="27.1074">HelpStrings</text><rect fill="#E2E2F0" height="32.6211" rx="2.5" ry="2.5" style="stroke:#181818;stroke-width:0.5;" width="98" x="851" y="5"/><text fill="#000000" font-family="sans-serif" font-size="14" lengthAdjust="spacing" textLength="84" x="858" y="27.1074">HelpValidator</text><rect fill="#FFFFFF" height="14" style="stroke:#181818;stroke-width:1.0;" width="10" x="317.5" y="508.4043"/><rect fill="#FFFFFF" height="14" style="stroke:#181818;stroke-width:1.0;" width="10" x="317.5" y="570.3262"/><rect fill="#FFFFFF" height="14" style="stroke:#181818;stroke-width:1.0;" width="10" x="406.5" y="71.9121"/><rect fill="#FFFFFF" height="483.123" style="stroke:#181818;stroke-width:1.0;" width="10" x="515" y="117.2031"/><rect fill="#FFBBBB" height="193.4551" style="stroke:#181818;stroke-width:1.0;" width="10" x="520" y="245.3672"/><rect fill="#FFFFFF" height="104.873" style="stroke:#181818;stroke-width:1.0;" width="10" x="525" y="289.6582"/><rect fill="#FFFFFF" height="31.291" style="stroke:#181818;stroke-width:1.0;" width="10" x="895" y="148.4941"/><polygon fill="#181818" points="394.5,67.9121,404.5,71.9121,394.5,75.9121" style="stroke:#181818;stroke-width:1.0;"/><line style="stroke:#181818;stroke-width:1.0;" x1="57.5" x2="400.5" y1="71.9121" y2="71.9121"/><text fill="#000000" font-family="sans-serif" font-size="13" lengthAdjust="spacing" textLength="164" x="64.5" y="66.6494">parseInput('help /exercise 1')</text><polygon fill="#181818" points="68.5,81.9121,58.5,85.9121,68.5,89.9121" style="stroke:#181818;stroke-width:1.0;"/><line style="stroke:#181818;stroke-width:1.0;stroke-dasharray:2.0,2.0;" x1="62.5" x2="410.5" y1="85.9121" y2="85.9121"/><polygon fill="#181818" points="503,113.2031,513,117.2031,503,121.2031" style="stroke:#181818;stroke-width:1.0;"/><line style="stroke:#181818;stroke-width:1.0;" x1="57.5" x2="509" y1="117.2031" y2="117.2031"/><text fill="#000000" font-family="sans-serif" font-size="13" lengthAdjust="spacing" textLength="90" x="64.5" y="111.9404">execute(parser)</text><polygon fill="#181818" points="883,144.4941,893,148.4941,883,152.4941" style="stroke:#181818;stroke-width:1.0;"/><line style="stroke:#181818;stroke-width:1.0;" x1="525" x2="889" y1="148.4941" y2="148.4941"/><text fill="#000000" font-family="sans-serif" font-size="13" lengthAdjust="spacing" textLength="148" x="532" y="143.2314">validateCommand(Parser)</text><polygon fill="#181818" points="536,175.7852,526,179.7852,536,183.7852" style="stroke:#181818;stroke-width:1.0;"/><line style="stroke:#181818;stroke-width:1.0;stroke-dasharray:2.0,2.0;" x1="530" x2="899" y1="179.7852" y2="179.7852"/><text fill="#000000" font-family="sans-serif" font-size="13" lengthAdjust="spacing" textLength="110" x="542" y="174.5225">Validation success</text><path d="M10,194.7852 L71,194.7852 L71,204.0762 L61,214.0762 L10,214.0762 L10,194.7852 " fill="#EEEEEE" style="stroke:#000000;stroke-width:1.5;"/><rect fill="none" height="397.541" style="stroke:#000000;stroke-width:1.5;" width="841" x="10" y="194.7852"/><text fill="#000000" font-family="sans-serif" font-size="13" font-weight="bold" lengthAdjust="spacing" textLength="16" x="25" y="209.8135">alt</text><text fill="#000000" font-family="sans-serif" font-size="11" font-weight="bold" lengthAdjust="spacing" textLength="126" x="86" y="208.6553">[Validation successful]</text><line style="stroke:#181818;stroke-width:1.0;" x1="525" x2="572" y1="232.3672" y2="232.3672"/><line style="stroke:#181818;stroke-width:1.0;" x1="572" x2="572" y1="232.3672" y2="245.3672"/><line style="stroke:#181818;stroke-width:1.0;" x1="531" x2="572" y1="245.3672" y2="245.3672"/><polygon fill="#181818" points="541,241.3672,531,245.3672,541,249.3672" style="stroke:#181818;stroke-width:1.0;"/><text fill="#000000" font-family="sans-serif" font-size="13" lengthAdjust="spacing" textLength="177" x="537" y="227.1045">getParamFormat('1', 'exercise')</text><line style="stroke:#181818;stroke-width:1.0;" x1="530" x2="577" y1="276.6582" y2="276.6582"/><line style="stroke:#181818;stroke-width:1.0;" x1="577" x2="577" y1="276.6582" y2="289.6582"/><line style="stroke:#181818;stroke-width:1.0;" x1="536" x2="577" y1="289.6582" y2="289.6582"/><polygon fill="#181818" points="546,285.6582,536,289.6582,546,293.6582" style="stroke:#181818;stroke-width:1.0;"/><text fill="#000000" font-family="sans-serif" font-size="13" lengthAdjust="spacing" textLength="170" x="542" y="271.3955">getExerciseParamFormats(0)</text><polygon fill="#181818" points="786,321.9492,796,325.9492,786,329.9492" style="stroke:#181818;stroke-width:1.0;"/><line style="stroke:#181818;stroke-width:1.0;" x1="535" x2="792" y1="325.9492" y2="325.9492"/><text fill="#000000" font-family="sans-serif" font-size="13" lengthAdjust="spacing" textLength="239" x="542" y="320.6865">retrieve EXERCISE_PARAM_FORMAT[0]</text><polygon fill="#181818" points="546,353.2402,536,357.2402,546,361.2402" style="stroke:#181818;stroke-width:1.0;"/><line style="stroke:#181818;stroke-width:1.0;stroke-dasharray:2.0,2.0;" x1="540" x2="797" y1="357.2402" y2="357.2402"/><text fill="#000000" font-family="sans-serif" font-size="13" lengthAdjust="spacing" textLength="194" x="552" y="351.9775">EXERCISE_PARAM_FORMAT[0]</text><line style="stroke:#181818;stroke-width:1.0;stroke-dasharray:2.0,2.0;" x1="535" x2="577" y1="393.5313" y2="393.5313"/><line style="stroke:#181818;stroke-width:1.0;stroke-dasharray:2.0,2.0;" x1="577" x2="577" y1="393.5313" y2="406.5313"/><line style="stroke:#181818;stroke-width:1.0;stroke-dasharray:2.0,2.0;" x1="530" x2="577" y1="406.5313" y2="406.5313"/><polygon fill="#181818" points="540,402.5313,530,406.5313,540,410.5313" style="stroke:#181818;stroke-width:1.0;"/><text fill="#000000" font-family="sans-serif" font-size="13" lengthAdjust="spacing" textLength="194" x="542" y="388.2686">EXERCISE_PARAM_FORMAT[0]</text><line style="stroke:#181818;stroke-width:1.0;stroke-dasharray:2.0,2.0;" x1="530" x2="572" y1="437.8223" y2="437.8223"/><line style="stroke:#181818;stroke-width:1.0;stroke-dasharray:2.0,2.0;" x1="572" x2="572" y1="437.8223" y2="450.8223"/><line style="stroke:#181818;stroke-width:1.0;stroke-dasharray:2.0,2.0;" x1="525" x2="572" y1="450.8223" y2="450.8223"/><polygon fill="#181818" points="535,446.8223,525,450.8223,535,454.8223" style="stroke:#181818;stroke-width:1.0;"/><text fill="#000000" font-family="sans-serif" font-size="13" lengthAdjust="spacing" textLength="194" x="537" y="432.5596">EXERCISE_PARAM_FORMAT[0]</text><polygon fill="#181818" points="68.5,473.1133,58.5,477.1133,68.5,481.1133" style="stroke:#181818;stroke-width:1.0;"/><line style="stroke:#181818;stroke-width:1.0;stroke-dasharray:2.0,2.0;" x1="62.5" x2="514" y1="477.1133" y2="477.1133"/><text fill="#000000" font-family="sans-serif" font-size="13" lengthAdjust="spacing" textLength="304" x="74.5" y="471.8506">messageToUser = EXERCISE_PARAM_FORMAT[0]</text><polygon fill="#181818" points="305.5,504.4043,315.5,508.4043,305.5,512.4043" style="stroke:#181818;stroke-width:1.0;"/><line style="stroke:#181818;stroke-width:1.0;" x1="57.5" x2="311.5" y1="508.4043" y2="508.4043"/><text fill="#000000" font-family="sans-serif" font-size="13" lengthAdjust="spacing" textLength="180" x="64.5" y="503.1416">printMessage(messageToUser)</text><polygon fill="#181818" points="68.5,518.4043,58.5,522.4043,68.5,526.4043" style="stroke:#181818;stroke-width:1.0;"/><line style="stroke:#181818;stroke-width:1.0;stroke-dasharray:2.0,2.0;" x1="62.5" x2="321.5" y1="522.4043" y2="522.4043"/><line style="stroke:#000000;stroke-width:1.0;stroke-dasharray:2.0,2.0;" x1="10" x2="851" y1="531.4043" y2="531.4043"/><text fill="#000000" font-family="sans-serif" font-size="11" font-weight="bold" lengthAdjust="spacing" textLength="88" x="15" y="543.2744">[Validation fails]</text><polygon fill="#181818" points="305.5,566.3262,315.5,570.3262,305.5,574.3262" style="stroke:#181818;stroke-width:1.0;"/><line style="stroke:#181818;stroke-width:1.0;" x1="57.5" x2="311.5" y1="570.3262" y2="570.3262"/><text fill="#000000" font-family="sans-serif" font-size="13" lengthAdjust="spacing" textLength="241" x="64.5" y="565.0635">printMessage(exceptionMessage : String)</text><polygon fill="#181818" points="68.5,580.3262,58.5,584.3262,68.5,588.3262" style="stroke:#181818;stroke-width:1.0;"/><line style="stroke:#181818;stroke-width:1.0;stroke-dasharray:2.0,2.0;" x1="62.5" x2="321.5" y1="584.3262" y2="584.3262"/><!--SRC=[jLHDQ-Cm4BthLuZk8LvesFGQkeKq96mEPaFINGgbbAaooOgLPIF9eTrVtr5YEvRYfX-mFfZnVBmtypIo_Ijr0GOoBXHOEtBEoCVIuKpaUYd_8HymswHOzwoGtaOALsQAaTT98GlGZby_EnnZOJbO_ikY2OBUCTCEpHe41f6puHmCHSzytTwCuZzG5IdgCWKDcoenyWKLFhQa5lN67lb_Wv8hSBdn8Cq7OymtoFjNLGTyo0jlp7HHkgJtXohvDtn28wH5Vj7xoa0ukGM7TSkx-ij-l_vUOPpHK4Iz4nSX2v8ysN6Q5dWy9ejh2Uumqf1lzpQEyom3lKhcCU1Xv4DPlxEdAYvppMqf15hRdgab7IZNaRmk5UFqT3HypBL1D_VxDSrD1gJtHU-SzsgvIMmFz9ec_CjqUaqF-n3Tf09lqTfaS9hf546rRmHka4pS8f_SJXRZsNBoC1yjHkd3zESY7TtS3UuxOVpcX3WVAkyumZSGMcVvhZ4xXVmaGtXapSqvnizeaSYyoNSvtq_prTSh-DNGFIP1NRe7IWB0wBJ3NrIDs7Xs4dZFC9ukB6GCbSNsZLY3LFRTBUAJmCBNLGwIORyK_wTTr2ls0W00]--></g></svg>