<?xml version="1.0" encoding="us-ascii" standalone="no"?><svg xmlns="http://www.w3.org/2000/svg" xmlns:xlink="http://www.w3.org/1999/xlink" contentStyleType="text/css" height="634px" preserveAspectRatio="none" style="width:957px;height:634px;background:#FFFFFF;" version="1.1" viewBox="0 0 957 634" width="957px" zoomAndPan="magnify"><defs/><g><rect fill="#FFFFFF" height="14" style="stroke:#181818;stroke-width:1.0;" width="10" x="317.5" y="527.0254"/><rect fill="#FFFFFF" height="14" style="stroke:#181818;stroke-width:1.0;" width="10" x="317.5" y="588.9473"/><rect fill="#FFFFFF" height="14" style="stroke:#181818;stroke-width:1.0;" width="10" x="406.5" y="90.5332"/><rect fill="#FFFFFF" height="483.123" style="stroke:#181818;stroke-width:1.0;" width="10" x="515" y="135.8242"/><rect fill="#FFBBBB" height="193.4551" style="stroke:#181818;stroke-width:1.0;" width="10" x="520" y="263.9883"/><rect fill="#FFFFFF" height="104.873" style="stroke:#181818;stroke-width:1.0;" width="10" x="525" y="308.2793"/><rect fill="#FFFFFF" height="31.291" style="stroke:#181818;stroke-width:1.0;" width="10" x="793" y="344.5703"/><rect fill="#FFFFFF" height="31.291" style="stroke:#181818;stroke-width:1.0;" width="10" x="897" y="167.1152"/><rect fill="none" height="397.541" style="stroke:#000000;stroke-width:1.5;" width="843" x="10" y="213.4063"/><line style="stroke:#181818;stroke-width:0.5;stroke-dasharray:5.0,5.0;" x1="57" x2="57" y1="57.2422" y2="627.9473"/><line style="stroke:#181818;stroke-width:0.5;stroke-dasharray:5.0,5.0;" x1="322.5" x2="322.5" y1="57.2422" y2="627.9473"/><line style="stroke:#181818;stroke-width:0.5;stroke-dasharray:5.0,5.0;" x1="411.5" x2="411.5" y1="57.2422" y2="627.9473"/><line style="stroke:#181818;stroke-width:0.5;stroke-dasharray:5.0,5.0;" x1="519.5" x2="519.5" y1="57.2422" y2="627.9473"/><line style="stroke:#181818;stroke-width:0.5;stroke-dasharray:5.0,5.0;" x1="798" x2="798" y1="57.2422" y2="627.9473"/><line style="stroke:#181818;stroke-width:0.5;stroke-dasharray:5.0,5.0;" x1="902" x2="902" y1="57.2422" y2="627.9473"/><rect fill="#E2E2F0" height="32.6211" rx="2.5" ry="2.5" style="stroke:#181818;stroke-width:0.5;" width="75" x="20" y="23.6211"/><text fill="#000000" font-family="sans-serif" font-size="14" lengthAdjust="spacing" textLength="61" x="27" y="45.7285">ByteCeps</text><rect fill="#E2E2F0" height="32.6211" rx="2.5" ry="2.5" style="stroke:#181818;stroke-width:0.5;" width="98" x="273.5" y="23.6211"/><text fill="#000000" font-family="sans-serif" font-size="14" lengthAdjust="spacing" textLength="84" x="280.5" y="45.7285">UserInterface</text><rect fill="#E2E2F0" height="32.6211" rx="2.5" ry="2.5" style="stroke:#181818;stroke-width:0.5;" width="60" x="381.5" y="23.6211"/><text fill="#000000" font-family="sans-serif" font-size="14" lengthAdjust="spacing" textLength="46" x="388.5" y="45.7285">:Parser</text><rect fill="#E2E2F0" height="32.6211" rx="2.5" ry="2.5" style="stroke:#181818;stroke-width:0.5;" width="137" x="451.5" y="23.6211"/><text fill="#000000" font-family="sans-serif" font-size="14" lengthAdjust="spacing" textLength="123" x="458.5" y="45.7285">:HelpMenuManager</text><rect fill="#E2E2F0" height="51.2422" rx="2.5" ry="2.5" style="stroke:#181818;stroke-width:0.5;" width="90" x="753" y="5"/><text fill="#000000" font-family="sans-serif" font-size="14" lengthAdjust="spacing" textLength="49" x="771.5" y="27.1074">&#171;static&#187;</text><text fill="#000000" font-family="sans-serif" font-size="14" lengthAdjust="spacing" textLength="72" x="764" y="45.7285">HelpStrings</text><rect fill="#E2E2F0" height="32.6211" rx="2.5" ry="2.5" style="stroke:#181818;stroke-width:0.5;" width="98" x="853" y="23.6211"/><text fill="#000000" font-family="sans-serif" font-size="14" lengthAdjust="spacing" textLength="84" x="860" y="45.7285">HelpValidator</text><rect fill="#FFFFFF" height="14" style="stroke:#181818;stroke-width:1.0;" width="10" x="317.5" y="527.0254"/><rect fill="#FFFFFF" height="14" style="stroke:#181818;stroke-width:1.0;" width="10" x="317.5" y="588.9473"/><rect fill="#FFFFFF" height="14" style="stroke:#181818;stroke-width:1.0;" width="10" x="406.5" y="90.5332"/><rect fill="#FFFFFF" height="483.123" style="stroke:#181818;stroke-width:1.0;" width="10" x="515" y="135.8242"/><rect fill="#FFBBBB" height="193.4551" style="stroke:#181818;stroke-width:1.0;" width="10" x="520" y="263.9883"/><rect fill="#FFFFFF" height="104.873" style="stroke:#181818;stroke-width:1.0;" width="10" x="525" y="308.2793"/><rect fill="#FFFFFF" height="31.291" style="stroke:#181818;stroke-width:1.0;" width="10" x="793" y="344.5703"/><rect fill="#FFFFFF" height="31.291" style="stroke:#181818;stroke-width:1.0;" width="10" x="897" y="167.1152"/><polygon fill="#181818" points="394.5,86.5332,404.5,90.5332,394.5,94.5332" style="stroke:#181818;stroke-width:1.0;"/><line style="stroke:#181818;stroke-width:1.0;" x1="57.5" x2="400.5" y1="90.5332" y2="90.5332"/><text fill="#000000" font-family="sans-serif" font-size="13" lengthAdjust="spacing" textLength="164" x="64.5" y="85.2705">parseInput('help /exercise 1')</text><polygon fill="#181818" points="68.5,100.5332,58.5,104.5332,68.5,108.5332" style="stroke:#181818;stroke-width:1.0;"/><line style="stroke:#181818;stroke-width:1.0;stroke-dasharray:2.0,2.0;" x1="62.5" x2="410.5" y1="104.5332" y2="104.5332"/><polygon fill="#181818" points="503,131.8242,513,135.8242,503,139.8242" style="stroke:#181818;stroke-width:1.0;"/><line style="stroke:#181818;stroke-width:1.0;" x1="57.5" x2="509" y1="135.8242" y2="135.8242"/><text fill="#000000" font-family="sans-serif" font-size="13" lengthAdjust="spacing" textLength="90" x="64.5" y="130.5615">execute(parser)</text><polygon fill="#181818" points="885,163.1152,895,167.1152,885,171.1152" style="stroke:#181818;stroke-width:1.0;"/><line style="stroke:#181818;stroke-width:1.0;" x1="525" x2="891" y1="167.1152" y2="167.1152"/><text fill="#000000" font-family="sans-serif" font-size="13" lengthAdjust="spacing" textLength="148" x="532" y="161.8525">validateCommand(Parser)</text><polygon fill="#181818" points="536,194.4063,526,198.4063,536,202.4063" style="stroke:#181818;stroke-width:1.0;"/><line style="stroke:#181818;stroke-width:1.0;stroke-dasharray:2.0,2.0;" x1="530" x2="901" y1="198.4063" y2="198.4063"/><text fill="#000000" font-family="sans-serif" font-size="13" lengthAdjust="spacing" textLength="110" x="542" y="193.1436">Validation success</text><path d="M10,213.4063 L71,213.4063 L71,222.6973 L61,232.6973 L10,232.6973 L10,213.4063 " fill="#EEEEEE" style="stroke:#000000;stroke-width:1.5;"/><rect fill="none" height="397.541" style="stroke:#000000;stroke-width:1.5;" width="843" x="10" y="213.4063"/><text fill="#000000" font-family="sans-serif" font-size="13" font-weight="bold" lengthAdjust="spacing" textLength="16" x="25" y="228.4346">alt</text><text fill="#000000" font-family="sans-serif" font-size="11" font-weight="bold" lengthAdjust="spacing" textLength="126" x="86" y="227.2764">[Validation successful]</text><line style="stroke:#181818;stroke-width:1.0;" x1="525" x2="572" y1="250.9883" y2="250.9883"/><line style="stroke:#181818;stroke-width:1.0;" x1="572" x2="572" y1="250.9883" y2="263.9883"/><line style="stroke:#181818;stroke-width:1.0;" x1="531" x2="572" y1="263.9883" y2="263.9883"/><polygon fill="#181818" points="541,259.9883,531,263.9883,541,267.9883" style="stroke:#181818;stroke-width:1.0;"/><text fill="#000000" font-family="sans-serif" font-size="13" lengthAdjust="spacing" textLength="177" x="537" y="245.7256">getParamFormat('1', 'exercise')</text><line style="stroke:#181818;stroke-width:1.0;" x1="530" x2="577" y1="295.2793" y2="295.2793"/><line style="stroke:#181818;stroke-width:1.0;" x1="577" x2="577" y1="295.2793" y2="308.2793"/><line style="stroke:#181818;stroke-width:1.0;" x1="536" x2="577" y1="308.2793" y2="308.2793"/><polygon fill="#181818" points="546,304.2793,536,308.2793,546,312.2793" style="stroke:#181818;stroke-width:1.0;"/><text fill="#000000" font-family="sans-serif" font-size="13" lengthAdjust="spacing" textLength="170" x="542" y="290.0166">getExerciseParamFormats(0)</text><polygon fill="#181818" points="781,340.5703,791,344.5703,781,348.5703" style="stroke:#181818;stroke-width:1.0;"/><line style="stroke:#181818;stroke-width:1.0;" x1="535" x2="787" y1="344.5703" y2="344.5703"/><text fill="#000000" font-family="sans-serif" font-size="13" lengthAdjust="spacing" textLength="239" x="542" y="339.3076">retrieve EXERCISE_PARAM_FORMAT[0]</text><polygon fill="#181818" points="546,371.8613,536,375.8613,546,379.8613" style="stroke:#181818;stroke-width:1.0;"/><line style="stroke:#181818;stroke-width:1.0;stroke-dasharray:2.0,2.0;" x1="540" x2="797" y1="375.8613" y2="375.8613"/><text fill="#000000" font-family="sans-serif" font-size="13" lengthAdjust="spacing" textLength="194" x="552" y="370.5986">EXERCISE_PARAM_FORMAT[0]</text><line style="stroke:#181818;stroke-width:1.0;stroke-dasharray:2.0,2.0;" x1="535" x2="577" y1="412.1523" y2="412.1523"/><line style="stroke:#181818;stroke-width:1.0;stroke-dasharray:2.0,2.0;" x1="577" x2="577" y1="412.1523" y2="425.1523"/><line style="stroke:#181818;stroke-width:1.0;stroke-dasharray:2.0,2.0;" x1="530" x2="577" y1="425.1523" y2="425.1523"/><polygon fill="#181818" points="540,421.1523,530,425.1523,540,429.1523" style="stroke:#181818;stroke-width:1.0;"/><text fill="#000000" font-family="sans-serif" font-size="13" lengthAdjust="spacing" textLength="194" x="542" y="406.8896">EXERCISE_PARAM_FORMAT[0]</text><line style="stroke:#181818;stroke-width:1.0;stroke-dasharray:2.0,2.0;" x1="530" x2="572" y1="456.4434" y2="456.4434"/><line style="stroke:#181818;stroke-width:1.0;stroke-dasharray:2.0,2.0;" x1="572" x2="572" y1="456.4434" y2="469.4434"/><line style="stroke:#181818;stroke-width:1.0;stroke-dasharray:2.0,2.0;" x1="525" x2="572" y1="469.4434" y2="469.4434"/><polygon fill="#181818" points="535,465.4434,525,469.4434,535,473.4434" style="stroke:#181818;stroke-width:1.0;"/><text fill="#000000" font-family="sans-serif" font-size="13" lengthAdjust="spacing" textLength="194" x="537" y="451.1807">EXERCISE_PARAM_FORMAT[0]</text><polygon fill="#181818" points="68.5,491.7344,58.5,495.7344,68.5,499.7344" style="stroke:#181818;stroke-width:1.0;"/><line style="stroke:#181818;stroke-width:1.0;stroke-dasharray:2.0,2.0;" x1="62.5" x2="514" y1="495.7344" y2="495.7344"/><text fill="#000000" font-family="sans-serif" font-size="13" lengthAdjust="spacing" textLength="304" x="74.5" y="490.4717">messageToUser = EXERCISE_PARAM_FORMAT[0]</text><polygon fill="#181818" points="305.5,523.0254,315.5,527.0254,305.5,531.0254" style="stroke:#181818;stroke-width:1.0;"/><line style="stroke:#181818;stroke-width:1.0;" x1="57.5" x2="311.5" y1="527.0254" y2="527.0254"/><text fill="#000000" font-family="sans-serif" font-size="13" lengthAdjust="spacing" textLength="180" x="64.5" y="521.7627">printMessage(messageToUser)</text><polygon fill="#181818" points="68.5,537.0254,58.5,541.0254,68.5,545.0254" style="stroke:#181818;stroke-width:1.0;"/><line style="stroke:#181818;stroke-width:1.0;stroke-dasharray:2.0,2.0;" x1="62.5" x2="321.5" y1="541.0254" y2="541.0254"/><line style="stroke:#000000;stroke-width:1.0;stroke-dasharray:2.0,2.0;" x1="10" x2="853" y1="550.0254" y2="550.0254"/><text fill="#000000" font-family="sans-serif" font-size="11" font-weight="bold" lengthAdjust="spacing" textLength="88" x="15" y="561.8955">[Validation fails]</text><polygon fill="#181818" points="305.5,584.9473,315.5,588.9473,305.5,592.9473" style="stroke:#181818;stroke-width:1.0;"/><line style="stroke:#181818;stroke-width:1.0;" x1="57.5" x2="311.5" y1="588.9473" y2="588.9473"/><text fill="#000000" font-family="sans-serif" font-size="13" lengthAdjust="spacing" textLength="241" x="64.5" y="583.6846">printMessage(exceptionMessage : String)</text><polygon fill="#181818" points="68.5,598.9473,58.5,602.9473,68.5,606.9473" style="stroke:#181818;stroke-width:1.0;"/><line style="stroke:#181818;stroke-width:1.0;stroke-dasharray:2.0,2.0;" x1="62.5" x2="321.5" y1="602.9473" y2="602.9473"/><!--SRC=[jLJ1Yjim4BthAqHwY0iRchsQD90D2St1D2JRKcZBCbKcgQWj6qaEk_twZXpRiHHljbke3qQUqNjlvcbayqkg0ZHaNAHWpCnQBN-K5bSYLrlv6_cOcNQBiKyfqbjBOSiiPHIrKiW2bELtJnRdM1WEXdyogBsa2woKHRq7WLvc4Az1KtRWSATbaF-0QP6WAXDGSAWt1Z4FuN9RAb4Tgbe6aucnGDdfb7zJtUpW0lOPKha3csi7R3yOOwv-FfhM1VAO5swnKaLfe-5FGl9t-8XQI8FyTlYMWR3o21QRZYhyP3HgldSOxcWbWjP8YvW5dKXKQUeEUUW22x54TsufviVJ6kTvbe7QHUkGyDpo6JRghQdEornnKmg1ndHxwbW7gUtPl2zJnkdfAVXIwu1sxSPlcUiCoE_RuGqVDdQJsOxeEK_uc-NoZXxsAhb5JTwHDT7ukj8rWMOSOwwHbdX4llYosCnNsyN3UhQP9G_BZvjaTlzr_FrIemRtyhkHyWMkydQEw2NcdcD_7VcBrlIQ_uyA_Z6tj-sIFwFXe-LzNkrvVrslkPBUtulkFhbcanDHv1464-B_zHh6Db9Pu29ns9qFP0nJWzrRj0UPchyk4Hy55WvN1yY6qyd_dt9HxTWV]--></g></svg>