<?xml version="1.0" encoding="us-ascii" standalone="no"?><svg xmlns="http://www.w3.org/2000/svg" xmlns:xlink="http://www.w3.org/1999/xlink" contentStyleType="text/css" height="546px" preserveAspectRatio="none" style="width:949px;height:546px;background:#FFFFFF;" version="1.1" viewBox="0 0 949 546" width="949px" zoomAndPan="magnify"><defs/><g><rect fill="#FFFFFF" height="14" style="stroke:#181818;stroke-width:1.0;" width="10" x="317.5" y="438.4434"/><rect fill="#FFFFFF" height="14" style="stroke:#181818;stroke-width:1.0;" width="10" x="317.5" y="500.3652"/><rect fill="#FFFFFF" height="14" style="stroke:#181818;stroke-width:1.0;" width="10" x="406.5" y="90.5332"/><rect fill="#FFFFFF" height="394.541" style="stroke:#181818;stroke-width:1.0;" width="10" x="515" y="135.8242"/><rect fill="#FFBBBB" height="104.873" style="stroke:#181818;stroke-width:1.0;" width="10" x="520" y="263.9883"/><rect fill="#FFFFFF" height="31.291" style="stroke:#181818;stroke-width:1.0;" width="10" x="889" y="167.1152"/><rect fill="none" height="308.959" style="stroke:#000000;stroke-width:1.5;" width="835" x="10" y="213.4063"/><line style="stroke:#181818;stroke-width:0.5;stroke-dasharray:5.0,5.0;" x1="57" x2="57" y1="57.2422" y2="539.3652"/><line style="stroke:#181818;stroke-width:0.5;stroke-dasharray:5.0,5.0;" x1="322.5" x2="322.5" y1="57.2422" y2="539.3652"/><line style="stroke:#181818;stroke-width:0.5;stroke-dasharray:5.0,5.0;" x1="411.5" x2="411.5" y1="57.2422" y2="539.3652"/><line style="stroke:#181818;stroke-width:0.5;stroke-dasharray:5.0,5.0;" x1="519.5" x2="519.5" y1="57.2422" y2="539.3652"/><line style="stroke:#181818;stroke-width:0.5;stroke-dasharray:5.0,5.0;" x1="790" x2="790" y1="57.2422" y2="539.3652"/><line style="stroke:#181818;stroke-width:0.5;stroke-dasharray:5.0,5.0;" x1="894" x2="894" y1="57.2422" y2="539.3652"/><rect fill="#E2E2F0" height="32.6211" rx="2.5" ry="2.5" style="stroke:#181818;stroke-width:0.5;" width="75" x="20" y="23.6211"/><text fill="#000000" font-family="sans-serif" font-size="14" lengthAdjust="spacing" textLength="61" x="27" y="45.7285">ByteCeps</text><rect fill="#E2E2F0" height="32.6211" rx="2.5" ry="2.5" style="stroke:#181818;stroke-width:0.5;" width="98" x="273.5" y="23.6211"/><text fill="#000000" font-family="sans-serif" font-size="14" lengthAdjust="spacing" textLength="84" x="280.5" y="45.7285">UserInterface</text><rect fill="#E2E2F0" height="32.6211" rx="2.5" ry="2.5" style="stroke:#181818;stroke-width:0.5;" width="60" x="381.5" y="23.6211"/><text fill="#000000" font-family="sans-serif" font-size="14" lengthAdjust="spacing" textLength="46" x="388.5" y="45.7285">:Parser</text><rect fill="#E2E2F0" height="32.6211" rx="2.5" ry="2.5" style="stroke:#181818;stroke-width:0.5;" width="137" x="451.5" y="23.6211"/><text fill="#000000" font-family="sans-serif" font-size="14" lengthAdjust="spacing" textLength="123" x="458.5" y="45.7285">:HelpMenuManager</text><rect fill="#E2E2F0" height="51.2422" rx="2.5" ry="2.5" style="stroke:#181818;stroke-width:0.5;" width="90" x="745" y="5"/><text fill="#000000" font-family="sans-serif" font-size="14" lengthAdjust="spacing" textLength="49" x="763.5" y="27.1074">&#171;static&#187;</text><text fill="#000000" font-family="sans-serif" font-size="14" lengthAdjust="spacing" textLength="72" x="756" y="45.7285">HelpStrings</text><rect fill="#E2E2F0" height="32.6211" rx="2.5" ry="2.5" style="stroke:#181818;stroke-width:0.5;" width="98" x="845" y="23.6211"/><text fill="#000000" font-family="sans-serif" font-size="14" lengthAdjust="spacing" textLength="84" x="852" y="45.7285">HelpValidator</text><rect fill="#FFFFFF" height="14" style="stroke:#181818;stroke-width:1.0;" width="10" x="317.5" y="438.4434"/><rect fill="#FFFFFF" height="14" style="stroke:#181818;stroke-width:1.0;" width="10" x="317.5" y="500.3652"/><rect fill="#FFFFFF" height="14" style="stroke:#181818;stroke-width:1.0;" width="10" x="406.5" y="90.5332"/><rect fill="#FFFFFF" height="394.541" style="stroke:#181818;stroke-width:1.0;" width="10" x="515" y="135.8242"/><rect fill="#FFBBBB" height="104.873" style="stroke:#181818;stroke-width:1.0;" width="10" x="520" y="263.9883"/><rect fill="#FFFFFF" height="31.291" style="stroke:#181818;stroke-width:1.0;" width="10" x="889" y="167.1152"/><polygon fill="#181818" points="394.5,86.5332,404.5,90.5332,394.5,94.5332" style="stroke:#181818;stroke-width:1.0;"/><line style="stroke:#181818;stroke-width:1.0;" x1="57.5" x2="400.5" y1="90.5332" y2="90.5332"/><text fill="#000000" font-family="sans-serif" font-size="13" lengthAdjust="spacing" textLength="151" x="64.5" y="85.2705">parseInput('help /program')</text><polygon fill="#181818" points="68.5,100.5332,58.5,104.5332,68.5,108.5332" style="stroke:#181818;stroke-width:1.0;"/><line style="stroke:#181818;stroke-width:1.0;stroke-dasharray:2.0,2.0;" x1="62.5" x2="410.5" y1="104.5332" y2="104.5332"/><polygon fill="#181818" points="503,131.8242,513,135.8242,503,139.8242" style="stroke:#181818;stroke-width:1.0;"/><line style="stroke:#181818;stroke-width:1.0;" x1="57.5" x2="509" y1="135.8242" y2="135.8242"/><text fill="#000000" font-family="sans-serif" font-size="13" lengthAdjust="spacing" textLength="90" x="64.5" y="130.5615">execute(parser)</text><polygon fill="#181818" points="877,163.1152,887,167.1152,877,171.1152" style="stroke:#181818;stroke-width:1.0;"/><line style="stroke:#181818;stroke-width:1.0;" x1="525" x2="883" y1="167.1152" y2="167.1152"/><text fill="#000000" font-family="sans-serif" font-size="13" lengthAdjust="spacing" textLength="148" x="532" y="161.8525">validateCommand(Parser)</text><polygon fill="#181818" points="536,194.4063,526,198.4063,536,202.4063" style="stroke:#181818;stroke-width:1.0;"/><line style="stroke:#181818;stroke-width:1.0;stroke-dasharray:2.0,2.0;" x1="530" x2="893" y1="198.4063" y2="198.4063"/><text fill="#000000" font-family="sans-serif" font-size="13" lengthAdjust="spacing" textLength="110" x="542" y="193.1436">Validation success</text><path d="M10,213.4063 L71,213.4063 L71,222.6973 L61,232.6973 L10,232.6973 L10,213.4063 " fill="#EEEEEE" style="stroke:#000000;stroke-width:1.5;"/><rect fill="none" height="308.959" style="stroke:#000000;stroke-width:1.5;" width="835" x="10" y="213.4063"/><text fill="#000000" font-family="sans-serif" font-size="13" font-weight="bold" lengthAdjust="spacing" textLength="16" x="25" y="228.4346">alt</text><text fill="#000000" font-family="sans-serif" font-size="11" font-weight="bold" lengthAdjust="spacing" textLength="126" x="86" y="227.2764">[Validation successful]</text><line style="stroke:#181818;stroke-width:1.0;" x1="525" x2="572" y1="250.9883" y2="250.9883"/><line style="stroke:#181818;stroke-width:1.0;" x1="572" x2="572" y1="250.9883" y2="263.9883"/><line style="stroke:#181818;stroke-width:1.0;" x1="531" x2="572" y1="263.9883" y2="263.9883"/><polygon fill="#181818" points="541,259.9883,531,263.9883,541,267.9883" style="stroke:#181818;stroke-width:1.0;"/><text fill="#000000" font-family="sans-serif" font-size="13" lengthAdjust="spacing" textLength="168" x="537" y="245.7256">generateAllActions('program')</text><polygon fill="#181818" points="778,296.2793,788,300.2793,778,304.2793" style="stroke:#181818;stroke-width:1.0;"/><line style="stroke:#181818;stroke-width:1.0;" x1="530" x2="784" y1="300.2793" y2="300.2793"/><text fill="#000000" font-family="sans-serif" font-size="13" lengthAdjust="spacing" textLength="233" x="537" y="295.0166">retrieve PROGRAM_FLAG_FUNCTIONS</text><polygon fill="#181818" points="541,327.5703,531,331.5703,541,335.5703" style="stroke:#181818;stroke-width:1.0;"/><line style="stroke:#181818;stroke-width:1.0;stroke-dasharray:2.0,2.0;" x1="535" x2="789" y1="331.5703" y2="331.5703"/><text fill="#000000" font-family="sans-serif" font-size="13" lengthAdjust="spacing" textLength="236" x="547" y="326.3076">result = PROGRAM_FLAG_FUNCTIONS</text><line style="stroke:#181818;stroke-width:1.0;stroke-dasharray:2.0,2.0;" x1="530" x2="572" y1="367.8613" y2="367.8613"/><line style="stroke:#181818;stroke-width:1.0;stroke-dasharray:2.0,2.0;" x1="572" x2="572" y1="367.8613" y2="380.8613"/><line style="stroke:#181818;stroke-width:1.0;stroke-dasharray:2.0,2.0;" x1="525" x2="572" y1="380.8613" y2="380.8613"/><polygon fill="#181818" points="535,376.8613,525,380.8613,535,384.8613" style="stroke:#181818;stroke-width:1.0;"/><text fill="#000000" font-family="sans-serif" font-size="13" lengthAdjust="spacing" textLength="32" x="537" y="362.5986">result</text><polygon fill="#181818" points="68.5,403.1523,58.5,407.1523,68.5,411.1523" style="stroke:#181818;stroke-width:1.0;"/><line style="stroke:#181818;stroke-width:1.0;stroke-dasharray:2.0,2.0;" x1="62.5" x2="514" y1="407.1523" y2="407.1523"/><text fill="#000000" font-family="sans-serif" font-size="13" lengthAdjust="spacing" textLength="142" x="74.5" y="401.8896">messageToUser = result</text><polygon fill="#181818" points="305.5,434.4434,315.5,438.4434,305.5,442.4434" style="stroke:#181818;stroke-width:1.0;"/><line style="stroke:#181818;stroke-width:1.0;" x1="57.5" x2="311.5" y1="438.4434" y2="438.4434"/><text fill="#000000" font-family="sans-serif" font-size="13" lengthAdjust="spacing" textLength="180" x="64.5" y="433.1807">printMessage(messageToUser)</text><polygon fill="#181818" points="68.5,448.4434,58.5,452.4434,68.5,456.4434" style="stroke:#181818;stroke-width:1.0;"/><line style="stroke:#181818;stroke-width:1.0;stroke-dasharray:2.0,2.0;" x1="62.5" x2="321.5" y1="452.4434" y2="452.4434"/><line style="stroke:#000000;stroke-width:1.0;stroke-dasharray:2.0,2.0;" x1="10" x2="845" y1="461.4434" y2="461.4434"/><text fill="#000000" font-family="sans-serif" font-size="11" font-weight="bold" lengthAdjust="spacing" textLength="88" x="15" y="473.3135">[Validation fails]</text><polygon fill="#181818" points="305.5,496.3652,315.5,500.3652,305.5,504.3652" style="stroke:#181818;stroke-width:1.0;"/><line style="stroke:#181818;stroke-width:1.0;" x1="57.5" x2="311.5" y1="500.3652" y2="500.3652"/><text fill="#000000" font-family="sans-serif" font-size="13" lengthAdjust="spacing" textLength="241" x="64.5" y="495.1025">printMessage(exceptionMessage : String)</text><polygon fill="#181818" points="68.5,510.3652,58.5,514.3652,68.5,518.3652" style="stroke:#181818;stroke-width:1.0;"/><line style="stroke:#181818;stroke-width:1.0;stroke-dasharray:2.0,2.0;" x1="62.5" x2="321.5" y1="514.3652" y2="514.3652"/><!--SRC=[jLF1JiCm3BtdAw9nM3bCSAx6f39fC8a1Oi092PdC6n5fMYNf17mzJhjsRLOG7EYXSco_5p_RiMzIvs0WvKA1jObpHhuK3kSYqqlvYVoKsIR5kW-5z3TIk29LZBnE2fc3Tlpym-4KSyl1yWUBfXFqZhbsQDOWi1CPnBTWA3hmkCeCufUeyWNgOW4QDhl4mDT1-DYIIjIRifR1U6mTK7GouK-w7HqSm1v1oHMup7XWSs2C-VhvQB8haCSyzyPSvuMBXg-4v2UvoJRKe-4n0-7a5XpMSahmU3IgpoiCCnh-G1TTXEyeQ1nHUQ5faOSjO26MwFPwOhwjR9ncQGfw5Ts6X7kzUzYejwPTN6QQsq88jBQjgTKtKAudULqenkdhAVZmhWrgD4IRA9K8psAZuRxLdkQxZl2ZsUoSFXhV3xVLcn9pWsJYbePoTtDnbooUPrV9nVFiuNfwFx-vNlQI-Ac6BBOWrMT_OUdlSiLK0bhT_LQapsisxP0jfSQJUP-LEMTjzdhvEe-KLfmakKK5YphmeE_TnrqpDfvIdlV4ePOka35K5jlxiWQfxAzBn7U1kSVj72Iw6il_b8jwnRu0]--></g></svg>