<?xml version="1.0" encoding="us-ascii" standalone="no"?><svg xmlns="http://www.w3.org/2000/svg" xmlns:xlink="http://www.w3.org/1999/xlink" contentStyleType="text/css" height="527px" preserveAspectRatio="none" style="width:947px;height:527px;background:#FFFFFF;" version="1.1" viewBox="0 0 947 527" width="947px" zoomAndPan="magnify"><defs/><g><rect fill="#FFFFFF" height="14" style="stroke:#181818;stroke-width:1.0;" width="10" x="317.5" y="419.8223"/><rect fill="#FFFFFF" height="14" style="stroke:#181818;stroke-width:1.0;" width="10" x="317.5" y="481.7441"/><rect fill="#FFFFFF" height="14" style="stroke:#181818;stroke-width:1.0;" width="10" x="406.5" y="71.9121"/><rect fill="#FFFFFF" height="394.541" style="stroke:#181818;stroke-width:1.0;" width="10" x="515" y="117.2031"/><rect fill="#FFBBBB" height="104.873" style="stroke:#181818;stroke-width:1.0;" width="10" x="520" y="245.3672"/><rect fill="#FFFFFF" height="31.291" style="stroke:#181818;stroke-width:1.0;" width="10" x="887" y="148.4941"/><rect fill="none" height="308.959" style="stroke:#000000;stroke-width:1.5;" width="833" x="10" y="194.7852"/><line style="stroke:#181818;stroke-width:0.5;stroke-dasharray:5.0,5.0;" x1="57" x2="57" y1="38.6211" y2="520.7441"/><line style="stroke:#181818;stroke-width:0.5;stroke-dasharray:5.0,5.0;" x1="322.5" x2="322.5" y1="38.6211" y2="520.7441"/><line style="stroke:#181818;stroke-width:0.5;stroke-dasharray:5.0,5.0;" x1="411.5" x2="411.5" y1="38.6211" y2="520.7441"/><line style="stroke:#181818;stroke-width:0.5;stroke-dasharray:5.0,5.0;" x1="519.5" x2="519.5" y1="38.6211" y2="520.7441"/><line style="stroke:#181818;stroke-width:0.5;stroke-dasharray:5.0,5.0;" x1="790" x2="790" y1="38.6211" y2="520.7441"/><line style="stroke:#181818;stroke-width:0.5;stroke-dasharray:5.0,5.0;" x1="892" x2="892" y1="38.6211" y2="520.7441"/><rect fill="#E2E2F0" height="32.6211" rx="2.5" ry="2.5" style="stroke:#181818;stroke-width:0.5;" width="75" x="20" y="5"/><text fill="#000000" font-family="sans-serif" font-size="14" lengthAdjust="spacing" textLength="61" x="27" y="27.1074">ByteCeps</text><rect fill="#E2E2F0" height="32.6211" rx="2.5" ry="2.5" style="stroke:#181818;stroke-width:0.5;" width="98" x="273.5" y="5"/><text fill="#000000" font-family="sans-serif" font-size="14" lengthAdjust="spacing" textLength="84" x="280.5" y="27.1074">UserInterface</text><rect fill="#E2E2F0" height="32.6211" rx="2.5" ry="2.5" style="stroke:#181818;stroke-width:0.5;" width="60" x="381.5" y="5"/><text fill="#000000" font-family="sans-serif" font-size="14" lengthAdjust="spacing" textLength="46" x="388.5" y="27.1074">:Parser</text><rect fill="#E2E2F0" height="32.6211" rx="2.5" ry="2.5" style="stroke:#181818;stroke-width:0.5;" width="137" x="451.5" y="5"/><text fill="#000000" font-family="sans-serif" font-size="14" lengthAdjust="spacing" textLength="123" x="458.5" y="27.1074">:HelpMenuManager</text><rect fill="#E2E2F0" height="32.6211" rx="2.5" ry="2.5" style="stroke:#181818;stroke-width:0.5;" width="86" x="747" y="5"/><text fill="#000000" font-family="sans-serif" font-size="14" lengthAdjust="spacing" textLength="72" x="754" y="27.1074">HelpStrings</text><rect fill="#E2E2F0" height="32.6211" rx="2.5" ry="2.5" style="stroke:#181818;stroke-width:0.5;" width="98" x="843" y="5"/><text fill="#000000" font-family="sans-serif" font-size="14" lengthAdjust="spacing" textLength="84" x="850" y="27.1074">HelpValidator</text><rect fill="#FFFFFF" height="14" style="stroke:#181818;stroke-width:1.0;" width="10" x="317.5" y="419.8223"/><rect fill="#FFFFFF" height="14" style="stroke:#181818;stroke-width:1.0;" width="10" x="317.5" y="481.7441"/><rect fill="#FFFFFF" height="14" style="stroke:#181818;stroke-width:1.0;" width="10" x="406.5" y="71.9121"/><rect fill="#FFFFFF" height="394.541" style="stroke:#181818;stroke-width:1.0;" width="10" x="515" y="117.2031"/><rect fill="#FFBBBB" height="104.873" style="stroke:#181818;stroke-width:1.0;" width="10" x="520" y="245.3672"/><rect fill="#FFFFFF" height="31.291" style="stroke:#181818;stroke-width:1.0;" width="10" x="887" y="148.4941"/><polygon fill="#181818" points="394.5,67.9121,404.5,71.9121,394.5,75.9121" style="stroke:#181818;stroke-width:1.0;"/><line style="stroke:#181818;stroke-width:1.0;" x1="57.5" x2="400.5" y1="71.9121" y2="71.9121"/><text fill="#000000" font-family="sans-serif" font-size="13" lengthAdjust="spacing" textLength="151" x="64.5" y="66.6494">parseInput('help /program')</text><polygon fill="#181818" points="68.5,81.9121,58.5,85.9121,68.5,89.9121" style="stroke:#181818;stroke-width:1.0;"/><line style="stroke:#181818;stroke-width:1.0;stroke-dasharray:2.0,2.0;" x1="62.5" x2="410.5" y1="85.9121" y2="85.9121"/><polygon fill="#181818" points="503,113.2031,513,117.2031,503,121.2031" style="stroke:#181818;stroke-width:1.0;"/><line style="stroke:#181818;stroke-width:1.0;" x1="57.5" x2="509" y1="117.2031" y2="117.2031"/><text fill="#000000" font-family="sans-serif" font-size="13" lengthAdjust="spacing" textLength="90" x="64.5" y="111.9404">execute(parser)</text><polygon fill="#181818" points="875,144.4941,885,148.4941,875,152.4941" style="stroke:#181818;stroke-width:1.0;"/><line style="stroke:#181818;stroke-width:1.0;" x1="525" x2="881" y1="148.4941" y2="148.4941"/><text fill="#000000" font-family="sans-serif" font-size="13" lengthAdjust="spacing" textLength="148" x="532" y="143.2314">validateCommand(Parser)</text><polygon fill="#181818" points="536,175.7852,526,179.7852,536,183.7852" style="stroke:#181818;stroke-width:1.0;"/><line style="stroke:#181818;stroke-width:1.0;stroke-dasharray:2.0,2.0;" x1="530" x2="891" y1="179.7852" y2="179.7852"/><text fill="#000000" font-family="sans-serif" font-size="13" lengthAdjust="spacing" textLength="110" x="542" y="174.5225">Validation success</text><path d="M10,194.7852 L71,194.7852 L71,204.0762 L61,214.0762 L10,214.0762 L10,194.7852 " fill="#EEEEEE" style="stroke:#000000;stroke-width:1.5;"/><rect fill="none" height="308.959" style="stroke:#000000;stroke-width:1.5;" width="833" x="10" y="194.7852"/><text fill="#000000" font-family="sans-serif" font-size="13" font-weight="bold" lengthAdjust="spacing" textLength="16" x="25" y="209.8135">alt</text><text fill="#000000" font-family="sans-serif" font-size="11" font-weight="bold" lengthAdjust="spacing" textLength="126" x="86" y="208.6553">[Validation successful]</text><line style="stroke:#181818;stroke-width:1.0;" x1="525" x2="572" y1="232.3672" y2="232.3672"/><line style="stroke:#181818;stroke-width:1.0;" x1="572" x2="572" y1="232.3672" y2="245.3672"/><line style="stroke:#181818;stroke-width:1.0;" x1="531" x2="572" y1="245.3672" y2="245.3672"/><polygon fill="#181818" points="541,241.3672,531,245.3672,541,249.3672" style="stroke:#181818;stroke-width:1.0;"/><text fill="#000000" font-family="sans-serif" font-size="13" lengthAdjust="spacing" textLength="168" x="537" y="227.1045">generateAllActions('program')</text><polygon fill="#181818" points="778,277.6582,788,281.6582,778,285.6582" style="stroke:#181818;stroke-width:1.0;"/><line style="stroke:#181818;stroke-width:1.0;" x1="530" x2="784" y1="281.6582" y2="281.6582"/><text fill="#000000" font-family="sans-serif" font-size="13" lengthAdjust="spacing" textLength="233" x="537" y="276.3955">retrieve PROGRAM_FLAG_FUNCTIONS</text><polygon fill="#181818" points="541,308.9492,531,312.9492,541,316.9492" style="stroke:#181818;stroke-width:1.0;"/><line style="stroke:#181818;stroke-width:1.0;stroke-dasharray:2.0,2.0;" x1="535" x2="789" y1="312.9492" y2="312.9492"/><text fill="#000000" font-family="sans-serif" font-size="13" lengthAdjust="spacing" textLength="236" x="547" y="307.6865">result = PROGRAM_FLAG_FUNCTIONS</text><line style="stroke:#181818;stroke-width:1.0;stroke-dasharray:2.0,2.0;" x1="530" x2="572" y1="349.2402" y2="349.2402"/><line style="stroke:#181818;stroke-width:1.0;stroke-dasharray:2.0,2.0;" x1="572" x2="572" y1="349.2402" y2="362.2402"/><line style="stroke:#181818;stroke-width:1.0;stroke-dasharray:2.0,2.0;" x1="525" x2="572" y1="362.2402" y2="362.2402"/><polygon fill="#181818" points="535,358.2402,525,362.2402,535,366.2402" style="stroke:#181818;stroke-width:1.0;"/><text fill="#000000" font-family="sans-serif" font-size="13" lengthAdjust="spacing" textLength="32" x="537" y="343.9775">result</text><polygon fill="#181818" points="68.5,384.5313,58.5,388.5313,68.5,392.5313" style="stroke:#181818;stroke-width:1.0;"/><line style="stroke:#181818;stroke-width:1.0;stroke-dasharray:2.0,2.0;" x1="62.5" x2="514" y1="388.5313" y2="388.5313"/><text fill="#000000" font-family="sans-serif" font-size="13" lengthAdjust="spacing" textLength="142" x="74.5" y="383.2686">messageToUser = result</text><polygon fill="#181818" points="305.5,415.8223,315.5,419.8223,305.5,423.8223" style="stroke:#181818;stroke-width:1.0;"/><line style="stroke:#181818;stroke-width:1.0;" x1="57.5" x2="311.5" y1="419.8223" y2="419.8223"/><text fill="#000000" font-family="sans-serif" font-size="13" lengthAdjust="spacing" textLength="180" x="64.5" y="414.5596">printMessage(messageToUser)</text><polygon fill="#181818" points="68.5,429.8223,58.5,433.8223,68.5,437.8223" style="stroke:#181818;stroke-width:1.0;"/><line style="stroke:#181818;stroke-width:1.0;stroke-dasharray:2.0,2.0;" x1="62.5" x2="321.5" y1="433.8223" y2="433.8223"/><line style="stroke:#000000;stroke-width:1.0;stroke-dasharray:2.0,2.0;" x1="10" x2="843" y1="442.8223" y2="442.8223"/><text fill="#000000" font-family="sans-serif" font-size="11" font-weight="bold" lengthAdjust="spacing" textLength="88" x="15" y="454.6924">[Validation fails]</text><polygon fill="#181818" points="305.5,477.7441,315.5,481.7441,305.5,485.7441" style="stroke:#181818;stroke-width:1.0;"/><line style="stroke:#181818;stroke-width:1.0;" x1="57.5" x2="311.5" y1="481.7441" y2="481.7441"/><text fill="#000000" font-family="sans-serif" font-size="13" lengthAdjust="spacing" textLength="241" x="64.5" y="476.4814">printMessage(exceptionMessage : String)</text><polygon fill="#181818" points="68.5,491.7441,58.5,495.7441,68.5,499.7441" style="stroke:#181818;stroke-width:1.0;"/><line style="stroke:#181818;stroke-width:1.0;stroke-dasharray:2.0,2.0;" x1="62.5" x2="321.5" y1="495.7441" y2="495.7441"/><!--SRC=[jLDDRy8m3BtdLqJiG7T0sncDIGK9XZG-nCUkA0k6HKlJAaaHxDVFQKjfGvcsmtge7DllsSznpATG2TCiebmoOq9hjNXFBOnvh9RY2-WZCMMAiIS9-DU2spII1BrMS94mPMd_P640YQ7CqBK1NGiwnrXPq3l6eHPfTUTCOxJbSBdfnLz09XDGwOGfjYyIFLyDuM9BR57jpPN_ZKcnPJRMZgGy449SWxJpN7H0kpHnnbWbgGtQ7uYa3ucEzpY4zZrXt8e3it3kDmC_TJhdynRyZ9BVQnmBmH4upZl82keAkQ-H-5Yak-ZfqaDkmo2E8gQsmTmdlEYzm3gDFHLn4IjgKix1cAgcojoOj0t9krGIYbz3mzUrzg108sqePSWTYmdQbr4xcbiJeNV3OHy_lBuVgXMhW9Kqe0a7l9J5RBG89vlXQpZQ3DVJmMeycouRIToj-YmcHTMzlx0qJpbdoW2LwTuKwVBAJRjcYt3mQAxYBATNPJylN-qLuegZ93l9OK4Dxisz_dhFZAKda-SyNLzB7KW8I0FLVTan8SslMuGZXyJX2WUApg_bVze5jINV]--></g></svg>