<?xml version="1.0" encoding="us-ascii" standalone="no"?><svg xmlns="http://www.w3.org/2000/svg" xmlns:xlink="http://www.w3.org/1999/xlink" contentStyleType="text/css" height="757px" preserveAspectRatio="none" style="width:944px;height:757px;background:#FFFFFF;" version="1.1" viewBox="0 0 944 757" width="944px" zoomAndPan="magnify"><defs/><g><rect fill="#FFFFFF" height="14" style="stroke:#181818;stroke-width:1.0;" width="10" x="317.5" y="649.5684"/><rect fill="#FFFFFF" height="14" style="stroke:#181818;stroke-width:1.0;" width="10" x="317.5" y="711.4902"/><rect fill="#FFFFFF" height="14" style="stroke:#181818;stroke-width:1.0;" width="10" x="406.5" y="71.9121"/><rect fill="#FFFFFF" height="623.2871" style="stroke:#181818;stroke-width:1.0;" width="10" x="510" y="117.2031"/><rect fill="#FFBBBB" height="351.9102" style="stroke:#181818;stroke-width:1.0;" width="10" x="515" y="228.0762"/><rect fill="#FFFFFF" height="104.873" style="stroke:#181818;stroke-width:1.0;" width="10" x="520" y="272.3672"/><rect fill="#FFFFFF" height="14" style="stroke:#181818;stroke-width:1.0;" width="10" x="687" y="148.4941"/><rect fill="#FFFFFF" height="31.291" style="stroke:#181818;stroke-width:1.0;" width="10" x="796" y="308.6582"/><rect fill="#FFFFFF" height="31.291" style="stroke:#181818;stroke-width:1.0;" width="10" x="796" y="415.5313"/><rect fill="#FFFFFF" height="31.291" style="stroke:#181818;stroke-width:1.0;" width="10" x="877" y="504.4043"/><rect fill="none" height="555.9961" style="stroke:#000000;stroke-width:1.5;" width="927.5" x="10" y="177.4941"/><rect fill="none" height="81.873" style="stroke:#000000;stroke-width:1.5;" width="486" x="441.5" y="461.8223"/><line style="stroke:#181818;stroke-width:0.5;stroke-dasharray:5.0,5.0;" x1="57" x2="57" y1="38.6211" y2="750.4902"/><line style="stroke:#181818;stroke-width:0.5;stroke-dasharray:5.0,5.0;" x1="322.5" x2="322.5" y1="38.6211" y2="750.4902"/><line style="stroke:#181818;stroke-width:0.5;stroke-dasharray:5.0,5.0;" x1="411.5" x2="411.5" y1="38.6211" y2="750.4902"/><line style="stroke:#181818;stroke-width:0.5;stroke-dasharray:5.0,5.0;" x1="514.5" x2="514.5" y1="38.6211" y2="750.4902"/><line style="stroke:#181818;stroke-width:0.5;stroke-dasharray:5.0,5.0;" x1="691.5" x2="691.5" y1="38.6211" y2="750.4902"/><line style="stroke:#181818;stroke-width:0.5;stroke-dasharray:5.0,5.0;" x1="800.5" x2="800.5" y1="38.6211" y2="750.4902"/><line style="stroke:#181818;stroke-width:0.5;stroke-dasharray:5.0,5.0;" x1="881.5" x2="881.5" y1="38.6211" y2="750.4902"/><rect fill="#E2E2F0" height="32.6211" rx="2.5" ry="2.5" style="stroke:#181818;stroke-width:0.5;" width="75" x="20" y="5"/><text fill="#000000" font-family="sans-serif" font-size="14" lengthAdjust="spacing" textLength="61" x="27" y="27.1074">ByteCeps</text><rect fill="#E2E2F0" height="32.6211" rx="2.5" ry="2.5" style="stroke:#181818;stroke-width:0.5;" width="98" x="273.5" y="5"/><text fill="#000000" font-family="sans-serif" font-size="14" lengthAdjust="spacing" textLength="84" x="280.5" y="27.1074">UserInterface</text><rect fill="#E2E2F0" height="32.6211" rx="2.5" ry="2.5" style="stroke:#181818;stroke-width:0.5;" width="60" x="381.5" y="5"/><text fill="#000000" font-family="sans-serif" font-size="14" lengthAdjust="spacing" textLength="46" x="388.5" y="27.1074">:Parser</text><rect fill="#E2E2F0" height="32.6211" rx="2.5" ry="2.5" style="stroke:#181818;stroke-width:0.5;" width="127" x="451.5" y="5"/><text fill="#000000" font-family="sans-serif" font-size="14" lengthAdjust="spacing" textLength="113" x="458.5" y="27.1074">:WorkoutManager</text><rect fill="#E2E2F0" height="32.6211" rx="2.5" ry="2.5" style="stroke:#181818;stroke-width:0.5;" width="127" x="628.5" y="5"/><text fill="#000000" font-family="sans-serif" font-size="14" lengthAdjust="spacing" textLength="113" x="635.5" y="27.1074">:WorkoutValidator</text><rect fill="#E2E2F0" height="32.6211" rx="2.5" ry="2.5" style="stroke:#181818;stroke-width:0.5;" width="71" x="765.5" y="5"/><text fill="#000000" font-family="sans-serif" font-size="14" lengthAdjust="spacing" textLength="57" x="772.5" y="27.1074">:Workout</text><rect fill="#E2E2F0" height="32.6211" rx="2.5" ry="2.5" style="stroke:#181818;stroke-width:0.5;" width="71" x="846.5" y="5"/><text fill="#000000" font-family="sans-serif" font-size="14" lengthAdjust="spacing" textLength="57" x="853.5" y="27.1074">:Exercise</text><rect fill="#FFFFFF" height="14" style="stroke:#181818;stroke-width:1.0;" width="10" x="317.5" y="649.5684"/><rect fill="#FFFFFF" height="14" style="stroke:#181818;stroke-width:1.0;" width="10" x="317.5" y="711.4902"/><rect fill="#FFFFFF" height="14" style="stroke:#181818;stroke-width:1.0;" width="10" x="406.5" y="71.9121"/><rect fill="#FFFFFF" height="623.2871" style="stroke:#181818;stroke-width:1.0;" width="10" x="510" y="117.2031"/><rect fill="#FFBBBB" height="351.9102" style="stroke:#181818;stroke-width:1.0;" width="10" x="515" y="228.0762"/><rect fill="#FFFFFF" height="104.873" style="stroke:#181818;stroke-width:1.0;" width="10" x="520" y="272.3672"/><rect fill="#FFFFFF" height="14" style="stroke:#181818;stroke-width:1.0;" width="10" x="687" y="148.4941"/><rect fill="#FFFFFF" height="31.291" style="stroke:#181818;stroke-width:1.0;" width="10" x="796" y="308.6582"/><rect fill="#FFFFFF" height="31.291" style="stroke:#181818;stroke-width:1.0;" width="10" x="796" y="415.5313"/><rect fill="#FFFFFF" height="31.291" style="stroke:#181818;stroke-width:1.0;" width="10" x="877" y="504.4043"/><polygon fill="#181818" points="394.5,67.9121,404.5,71.9121,394.5,75.9121" style="stroke:#181818;stroke-width:1.0;"/><line style="stroke:#181818;stroke-width:1.0;" x1="57.5" x2="400.5" y1="71.9121" y2="71.9121"/><text fill="#000000" font-family="sans-serif" font-size="13" lengthAdjust="spacing" textLength="121" x="64.5" y="66.6494">parseInput(userInput)</text><polygon fill="#181818" points="68.5,81.9121,58.5,85.9121,68.5,89.9121" style="stroke:#181818;stroke-width:1.0;"/><line style="stroke:#181818;stroke-width:1.0;stroke-dasharray:2.0,2.0;" x1="62.5" x2="410.5" y1="85.9121" y2="85.9121"/><polygon fill="#181818" points="498,113.2031,508,117.2031,498,121.2031" style="stroke:#181818;stroke-width:1.0;"/><line style="stroke:#181818;stroke-width:1.0;" x1="57.5" x2="504" y1="117.2031" y2="117.2031"/><text fill="#000000" font-family="sans-serif" font-size="13" lengthAdjust="spacing" textLength="90" x="64.5" y="111.9404">execute(parser)</text><polygon fill="#181818" points="675,144.4941,685,148.4941,675,152.4941" style="stroke:#181818;stroke-width:1.0;"/><line style="stroke:#181818;stroke-width:1.0;" x1="520" x2="681" y1="148.4941" y2="148.4941"/><text fill="#000000" font-family="sans-serif" font-size="13" lengthAdjust="spacing" textLength="148" x="527" y="143.2314">validateCommand(Parser)</text><polygon fill="#181818" points="531,158.4941,521,162.4941,531,166.4941" style="stroke:#181818;stroke-width:1.0;"/><line style="stroke:#181818;stroke-width:1.0;stroke-dasharray:2.0,2.0;" x1="525" x2="691" y1="162.4941" y2="162.4941"/><path d="M10,177.4941 L71,177.4941 L71,186.7852 L61,196.7852 L10,196.7852 L10,177.4941 " fill="#EEEEEE" style="stroke:#000000;stroke-width:1.5;"/><rect fill="none" height="555.9961" style="stroke:#000000;stroke-width:1.5;" width="927.5" x="10" y="177.4941"/><text fill="#000000" font-family="sans-serif" font-size="13" font-weight="bold" lengthAdjust="spacing" textLength="16" x="25" y="192.5225">alt</text><text fill="#000000" font-family="sans-serif" font-size="11" font-weight="bold" lengthAdjust="spacing" textLength="126" x="86" y="191.3643">[Validation successful]</text><line style="stroke:#181818;stroke-width:1.0;" x1="520" x2="567" y1="215.0762" y2="215.0762"/><line style="stroke:#181818;stroke-width:1.0;" x1="567" x2="567" y1="215.0762" y2="228.0762"/><line style="stroke:#181818;stroke-width:1.0;" x1="526" x2="567" y1="228.0762" y2="228.0762"/><polygon fill="#181818" points="536,224.0762,526,228.0762,536,232.0762" style="stroke:#181818;stroke-width:1.0;"/><text fill="#000000" font-family="sans-serif" font-size="13" lengthAdjust="spacing" textLength="149" x="532" y="209.8135">executeInfoAction(Parser)</text><line style="stroke:#181818;stroke-width:1.0;" x1="525" x2="572" y1="259.3672" y2="259.3672"/><line style="stroke:#181818;stroke-width:1.0;" x1="572" x2="572" y1="259.3672" y2="272.3672"/><line style="stroke:#181818;stroke-width:1.0;" x1="531" x2="572" y1="272.3672" y2="272.3672"/><polygon fill="#181818" points="541,268.3672,531,272.3672,541,276.3672" style="stroke:#181818;stroke-width:1.0;"/><text fill="#000000" font-family="sans-serif" font-size="13" lengthAdjust="spacing" textLength="122" x="537" y="254.1045">retrieve('workoutplan')</text><polygon fill="#181818" points="784,304.6582,794,308.6582,784,312.6582" style="stroke:#181818;stroke-width:1.0;"/><line style="stroke:#181818;stroke-width:1.0;" x1="530" x2="790" y1="308.6582" y2="308.6582"/><text fill="#000000" font-family="sans-serif" font-size="13" lengthAdjust="spacing" textLength="151" x="537" y="303.3955">findByName('workoutplan')</text><polygon fill="#181818" points="541,335.9492,531,339.9492,541,343.9492" style="stroke:#181818;stroke-width:1.0;"/><line style="stroke:#181818;stroke-width:1.0;stroke-dasharray:2.0,2.0;" x1="535" x2="800" y1="339.9492" y2="339.9492"/><text fill="#000000" font-family="sans-serif" font-size="13" lengthAdjust="spacing" textLength="131" x="547" y="334.6865">return existingWorkout</text><line style="stroke:#181818;stroke-width:1.0;stroke-dasharray:2.0,2.0;" x1="530" x2="572" y1="376.2402" y2="376.2402"/><line style="stroke:#181818;stroke-width:1.0;stroke-dasharray:2.0,2.0;" x1="572" x2="572" y1="376.2402" y2="389.2402"/><line style="stroke:#181818;stroke-width:1.0;stroke-dasharray:2.0,2.0;" x1="525" x2="572" y1="389.2402" y2="389.2402"/><polygon fill="#181818" points="535,385.2402,525,389.2402,535,393.2402" style="stroke:#181818;stroke-width:1.0;"/><text fill="#000000" font-family="sans-serif" font-size="13" lengthAdjust="spacing" textLength="94" x="537" y="370.9775">existingWorkout</text><polygon fill="#181818" points="784,411.5313,794,415.5313,784,419.5313" style="stroke:#181818;stroke-width:1.0;"/><line style="stroke:#181818;stroke-width:1.0;" x1="525" x2="790" y1="415.5313" y2="415.5313"/><text fill="#000000" font-family="sans-serif" font-size="13" lengthAdjust="spacing" textLength="98" x="532" y="410.2686">getExerciseList()</text><polygon fill="#181818" points="536,442.8223,526,446.8223,536,450.8223" style="stroke:#181818;stroke-width:1.0;"/><line style="stroke:#181818;stroke-width:1.0;stroke-dasharray:2.0,2.0;" x1="530" x2="800" y1="446.8223" y2="446.8223"/><text fill="#000000" font-family="sans-serif" font-size="13" lengthAdjust="spacing" textLength="107" x="542" y="441.5596">return exerciseList</text><path d="M441.5,461.8223 L514.5,461.8223 L514.5,471.1133 L504.5,481.1133 L441.5,481.1133 L441.5,461.8223 " fill="#EEEEEE" style="stroke:#000000;stroke-width:1.5;"/><rect fill="none" height="81.873" style="stroke:#000000;stroke-width:1.5;" width="486" x="441.5" y="461.8223"/><text fill="#000000" font-family="sans-serif" font-size="13" font-weight="bold" lengthAdjust="spacing" textLength="28" x="456.5" y="476.8506">loop</text><text fill="#000000" font-family="sans-serif" font-size="11" font-weight="bold" lengthAdjust="spacing" textLength="168" x="529.5" y="475.6924">[Each Exercise in exerciseList]</text><polygon fill="#181818" points="865,500.4043,875,504.4043,865,508.4043" style="stroke:#181818;stroke-width:1.0;"/><line style="stroke:#181818;stroke-width:1.0;" x1="525" x2="871" y1="504.4043" y2="504.4043"/><text fill="#000000" font-family="sans-serif" font-size="13" lengthAdjust="spacing" textLength="60" x="532" y="499.1416">getName()</text><polygon fill="#181818" points="536,531.6953,526,535.6953,536,539.6953" style="stroke:#181818;stroke-width:1.0;"/><line style="stroke:#181818;stroke-width:1.0;stroke-dasharray:2.0,2.0;" x1="530" x2="881" y1="535.6953" y2="535.6953"/><text fill="#000000" font-family="sans-serif" font-size="13" lengthAdjust="spacing" textLength="129" x="542" y="530.4326">contribute to message</text><line style="stroke:#181818;stroke-width:1.0;stroke-dasharray:2.0,2.0;" x1="525" x2="567" y1="578.9863" y2="578.9863"/><line style="stroke:#181818;stroke-width:1.0;stroke-dasharray:2.0,2.0;" x1="567" x2="567" y1="578.9863" y2="591.9863"/><line style="stroke:#181818;stroke-width:1.0;stroke-dasharray:2.0,2.0;" x1="520" x2="567" y1="591.9863" y2="591.9863"/><polygon fill="#181818" points="530,587.9863,520,591.9863,530,595.9863" style="stroke:#181818;stroke-width:1.0;"/><text fill="#000000" font-family="sans-serif" font-size="13" lengthAdjust="spacing" textLength="131" x="532" y="573.7236">return messageToUser</text><polygon fill="#181818" points="68.5,614.2773,58.5,618.2773,68.5,622.2773" style="stroke:#181818;stroke-width:1.0;"/><line style="stroke:#181818;stroke-width:1.0;stroke-dasharray:2.0,2.0;" x1="62.5" x2="509" y1="618.2773" y2="618.2773"/><text fill="#000000" font-family="sans-serif" font-size="13" lengthAdjust="spacing" textLength="94" x="74.5" y="613.0146">messageToUser</text><polygon fill="#181818" points="305.5,645.5684,315.5,649.5684,305.5,653.5684" style="stroke:#181818;stroke-width:1.0;"/><line style="stroke:#181818;stroke-width:1.0;" x1="57.5" x2="311.5" y1="649.5684" y2="649.5684"/><text fill="#000000" font-family="sans-serif" font-size="13" lengthAdjust="spacing" textLength="180" x="64.5" y="644.3057">printMessage(messageToUser)</text><polygon fill="#181818" points="68.5,659.5684,58.5,663.5684,68.5,667.5684" style="stroke:#181818;stroke-width:1.0;"/><line style="stroke:#181818;stroke-width:1.0;stroke-dasharray:2.0,2.0;" x1="62.5" x2="321.5" y1="663.5684" y2="663.5684"/><line style="stroke:#000000;stroke-width:1.0;stroke-dasharray:2.0,2.0;" x1="10" x2="937.5" y1="672.5684" y2="672.5684"/><text fill="#000000" font-family="sans-serif" font-size="11" font-weight="bold" lengthAdjust="spacing" textLength="88" x="15" y="684.4385">[Validation fails]</text><polygon fill="#181818" points="305.5,707.4902,315.5,711.4902,305.5,715.4902" style="stroke:#181818;stroke-width:1.0;"/><line style="stroke:#181818;stroke-width:1.0;" x1="57.5" x2="311.5" y1="711.4902" y2="711.4902"/><text fill="#000000" font-family="sans-serif" font-size="13" lengthAdjust="spacing" textLength="241" x="64.5" y="706.2275">printMessage(exceptionMessage : String)</text><polygon fill="#181818" points="68.5,721.4902,58.5,725.4902,68.5,729.4902" style="stroke:#181818;stroke-width:1.0;"/><line style="stroke:#181818;stroke-width:1.0;stroke-dasharray:2.0,2.0;" x1="62.5" x2="321.5" y1="725.4902" y2="725.4902"/><!--SRC=[fLJ1Rjim3BthAuJkKFSGOETW6D0KBH1W7GfqtSwSGcT2RScGw2pPru-MRSLoxS3TV30aaU_naPJeNxMfm44fLG7Utn8v_RCct2fhdlKVb1-5ZowUJWNotsb5TLa8mSUabQx0aDoS2E-myXAyVF7e4cDpi3M4BWU5YULg_GIEhLSDhbsEx3-iUxKrFOA1VUUN7atxVuT2xu1iYuYxQUSXwyZZ_eXEQO_1fTy8qMGaLvyxoN8jgsQnDLLDMHsovTMD04Nw08HzQW7sQRNgzpiSUqJcD4cEW4TKt9eiH783xb4vn0Z9N35zfZcqQxopPGbcbpsDwSwrEiDM4uA6uiyO0GNrMssDzBLIw7rUytsH_BqLDvVerkJsLZKaKMD3C9Es_F3miE5lSHI7V97nWDdrxzPK5M2kByQuJCsSkJQxpUahb8jOXtIJ5MuqrivmGRGdRVP3tA3u4tHHtNHzbz2zhwvCkqVgtySN3f3zTz9dhhcCmtbXRINlGVsAprFg2VYq_0W9-aFdRg9xZ1VVVM-9iCaCU7XsSrIIbILVVpP4x22FX1VDJYpkOLUaZlkR3IFtOYFdg5_Q-PKo1UT-4YNJcoUTquOUM_SiWOqwdaxzdZ6UnEXZtIbEOE5nE55oq8LVB12F2gi6rnrmgi_S7BF_Hx7hosf34-Txy7RU_mK0]--></g></svg>