<?xml version="1.0" encoding="us-ascii" standalone="no"?><svg xmlns="http://www.w3.org/2000/svg" xmlns:xlink="http://www.w3.org/1999/xlink" contentStyleType="text/css" height="787px" preserveAspectRatio="none" style="width:1616px;height:787px;background:#FFFFFF;" version="1.1" viewBox="0 0 1616 787" width="1616px" zoomAndPan="magnify"><defs/><g><rect fill="#FFFFFF" height="723.1504" style="stroke:#181818;stroke-width:1.0;" width="10" x="119" y="48.6211"/><rect fill="#FFFFFF" height="675.8594" style="stroke:#181818;stroke-width:1.0;" width="10" x="124" y="79.9121"/><rect fill="#FFFFFF" height="42.291" style="stroke:#181818;stroke-width:1.0;" width="10" x="129" y="627.1895"/><rect fill="#FFFFFF" height="31.291" style="stroke:#181818;stroke-width:1.0;" width="10" x="597.5" y="116.2031"/><rect fill="#FFFFFF" height="31.291" style="stroke:#181818;stroke-width:1.0;" width="10" x="791" y="205.0762"/><rect fill="#FFFFFF" height="31.291" style="stroke:#181818;stroke-width:1.0;" width="10" x="987.5" y="267.6582"/><rect fill="#FFFFFF" height="31.291" style="stroke:#181818;stroke-width:1.0;" width="10" x="987.5" y="405.1523"/><rect fill="#FFFFFF" height="31.291" style="stroke:#181818;stroke-width:1.0;" width="10" x="1202.5" y="494.0254"/><rect fill="#FFFFFF" height="31.291" style="stroke:#181818;stroke-width:1.0;" width="10" x="1417.5" y="556.6074"/><rect fill="#FFFFFF" height="33.6211" style="stroke:#181818;stroke-width:1.0;" width="10" x="1549.5" y="340.2402"/><rect fill="#FFFFFF" height="14" style="stroke:#181818;stroke-width:1.0;" width="10" x="1549.5" y="707.7715"/><rect fill="none" height="574.2773" style="stroke:#000000;stroke-width:1.5;" width="1540" x="70" y="162.4941"/><rect fill="none" height="278.3281" style="stroke:#000000;stroke-width:1.5;" width="1520" x="80" y="451.4434"/><line style="stroke:#181818;stroke-width:0.5;stroke-dasharray:5.0,5.0;" x1="42" x2="42" y1="38.6211" y2="780.7715"/><line style="stroke:#181818;stroke-width:0.5;stroke-dasharray:5.0,5.0;" x1="124" x2="124" y1="38.6211" y2="780.7715"/><line style="stroke:#181818;stroke-width:0.5;stroke-dasharray:5.0,5.0;" x1="458" x2="458" y1="38.6211" y2="780.7715"/><line style="stroke:#181818;stroke-width:0.5;stroke-dasharray:5.0,5.0;" x1="602" x2="602" y1="38.6211" y2="780.7715"/><line style="stroke:#181818;stroke-width:0.5;stroke-dasharray:5.0,5.0;" x1="796" x2="796" y1="38.6211" y2="780.7715"/><line style="stroke:#181818;stroke-width:0.5;stroke-dasharray:5.0,5.0;" x1="992" x2="992" y1="38.6211" y2="780.7715"/><line style="stroke:#181818;stroke-width:0.5;stroke-dasharray:5.0,5.0;" x1="1207" x2="1207" y1="38.6211" y2="780.7715"/><line style="stroke:#181818;stroke-width:0.5;stroke-dasharray:5.0,5.0;" x1="1422" x2="1422" y1="38.6211" y2="780.7715"/><line style="stroke:#181818;stroke-width:0.5;stroke-dasharray:5.0,5.0;" x1="1554" x2="1554" y1="338.7598" y2="780.7715"/><rect fill="#E2E2F0" height="32.6211" rx="2.5" ry="2.5" style="stroke:#181818;stroke-width:0.5;" width="75" x="5" y="5"/><text fill="#000000" font-family="sans-serif" font-size="14" lengthAdjust="spacing" textLength="61" x="12" y="27.1074">ByteCeps</text><rect fill="#E2E2F0" height="32.6211" rx="2.5" ry="2.5" style="stroke:#181818;stroke-width:0.5;" width="68" x="90" y="5"/><text fill="#000000" font-family="sans-serif" font-size="14" lengthAdjust="spacing" textLength="54" x="97" y="27.1074">:Storage</text><rect fill="#E2E2F0" height="32.6211" rx="2.5" ry="2.5" style="stroke:#181818;stroke-width:0.5;" width="102" x="407" y="5"/><text fill="#000000" font-family="sans-serif" font-size="14" lengthAdjust="spacing" textLength="88" x="414" y="27.1074">:UserInterface</text><rect fill="#E2E2F0" height="32.6211" rx="2.5" ry="2.5" style="stroke:#181818;stroke-width:0.5;" width="167" x="519" y="5"/><text fill="#000000" font-family="sans-serif" font-size="14" lengthAdjust="spacing" textLength="153" x="526" y="27.1074">jsonArchive:JSONObject</text><rect fill="#E2E2F0" height="32.6211" rx="2.5" ry="2.5" style="stroke:#181818;stroke-width:0.5;" width="200" x="696" y="5"/><text fill="#000000" font-family="sans-serif" font-size="14" lengthAdjust="spacing" textLength="186" x="703" y="27.1074">jsonWorkoutArray:JSONArray</text><rect fill="#E2E2F0" height="32.6211" rx="2.5" ry="2.5" style="stroke:#181818;stroke-width:0.5;" width="173" x="906" y="5"/><text fill="#000000" font-family="sans-serif" font-size="14" lengthAdjust="spacing" textLength="159" x="913" y="27.1074">jsonWorkout:JSONObject</text><rect fill="#E2E2F0" height="32.6211" rx="2.5" ry="2.5" style="stroke:#181818;stroke-width:0.5;" width="237" x="1089" y="5"/><text fill="#000000" font-family="sans-serif" font-size="14" lengthAdjust="spacing" textLength="223" x="1096" y="27.1074">jsonExercisesInWorkout:JSONArray</text><rect fill="#E2E2F0" height="32.6211" rx="2.5" ry="2.5" style="stroke:#181818;stroke-width:0.5;" width="173" x="1336" y="5"/><text fill="#000000" font-family="sans-serif" font-size="14" lengthAdjust="spacing" textLength="159" x="1343" y="27.1074">jsonExercise:JSONObject</text><rect fill="#FFFFFF" height="723.1504" style="stroke:#181818;stroke-width:1.0;" width="10" x="119" y="48.6211"/><rect fill="#FFFFFF" height="675.8594" style="stroke:#181818;stroke-width:1.0;" width="10" x="124" y="79.9121"/><rect fill="#FFFFFF" height="42.291" style="stroke:#181818;stroke-width:1.0;" width="10" x="129" y="627.1895"/><rect fill="#FFFFFF" height="31.291" style="stroke:#181818;stroke-width:1.0;" width="10" x="597.5" y="116.2031"/><rect fill="#FFFFFF" height="31.291" style="stroke:#181818;stroke-width:1.0;" width="10" x="791" y="205.0762"/><rect fill="#FFFFFF" height="31.291" style="stroke:#181818;stroke-width:1.0;" width="10" x="987.5" y="267.6582"/><rect fill="#FFFFFF" height="31.291" style="stroke:#181818;stroke-width:1.0;" width="10" x="987.5" y="405.1523"/><rect fill="#FFFFFF" height="31.291" style="stroke:#181818;stroke-width:1.0;" width="10" x="1202.5" y="494.0254"/><rect fill="#FFFFFF" height="31.291" style="stroke:#181818;stroke-width:1.0;" width="10" x="1417.5" y="556.6074"/><rect fill="#FFFFFF" height="33.6211" style="stroke:#181818;stroke-width:1.0;" width="10" x="1549.5" y="340.2402"/><rect fill="#FFFFFF" height="14" style="stroke:#181818;stroke-width:1.0;" width="10" x="1549.5" y="707.7715"/><line style="stroke:#181818;stroke-width:1.0;" x1="129" x2="176" y1="66.9121" y2="66.9121"/><line style="stroke:#181818;stroke-width:1.0;" x1="176" x2="176" y1="66.9121" y2="79.9121"/><line style="stroke:#181818;stroke-width:1.0;" x1="135" x2="176" y1="79.9121" y2="79.9121"/><polygon fill="#181818" points="145,75.9121,135,79.9121,145,83.9121" style="stroke:#181818;stroke-width:1.0;"/><text fill="#000000" font-family="sans-serif" font-size="13" lengthAdjust="spacing" textLength="310" x="141" y="61.6494">loadWorkouts(allExercises, allWorkouts, jsonArchive)</text><polygon fill="#181818" points="585.5,112.2031,595.5,116.2031,585.5,120.2031" style="stroke:#181818;stroke-width:1.0;"/><line style="stroke:#181818;stroke-width:1.0;" x1="134" x2="591.5" y1="116.2031" y2="116.2031"/><text fill="#000000" font-family="sans-serif" font-size="13" lengthAdjust="spacing" textLength="196" x="141" y="110.9404">getJSONArray("workoutManager")</text><polygon fill="#181818" points="145,143.4941,135,147.4941,145,151.4941" style="stroke:#181818;stroke-width:1.0;"/><line style="stroke:#181818;stroke-width:1.0;stroke-dasharray:2.0,2.0;" x1="139" x2="601.5" y1="147.4941" y2="147.4941"/><text fill="#000000" font-family="sans-serif" font-size="13" lengthAdjust="spacing" textLength="173" x="151" y="142.2314">jsonWorkoutArray:JSONArray</text><path d="M70,162.4941 L143,162.4941 L143,171.7852 L133,181.7852 L70,181.7852 L70,162.4941 " fill="#EEEEEE" style="stroke:#000000;stroke-width:1.5;"/><rect fill="none" height="574.2773" style="stroke:#000000;stroke-width:1.5;" width="1540" x="70" y="162.4941"/><text fill="#000000" font-family="sans-serif" font-size="13" font-weight="bold" lengthAdjust="spacing" textLength="28" x="85" y="177.5225">loop</text><text fill="#000000" font-family="sans-serif" font-size="11" font-weight="bold" lengthAdjust="spacing" textLength="249" x="158" y="176.3643">[for every jsonWorkout in jsonWorkoutArray]</text><polygon fill="#181818" points="779,201.0762,789,205.0762,779,209.0762" style="stroke:#181818;stroke-width:1.0;"/><line style="stroke:#181818;stroke-width:1.0;" x1="134" x2="785" y1="205.0762" y2="205.0762"/><text fill="#000000" font-family="sans-serif" font-size="13" lengthAdjust="spacing" textLength="129" x="141" y="199.8135">getJSONObject(index)</text><polygon fill="#181818" points="145,232.3672,135,236.3672,145,240.3672" style="stroke:#181818;stroke-width:1.0;"/><line style="stroke:#181818;stroke-width:1.0;stroke-dasharray:2.0,2.0;" x1="139" x2="795" y1="236.3672" y2="236.3672"/><text fill="#000000" font-family="sans-serif" font-size="13" lengthAdjust="spacing" textLength="149" x="151" y="231.1045">jsonWorkout:JSONObject</text><polygon fill="#181818" points="975.5,263.6582,985.5,267.6582,975.5,271.6582" style="stroke:#181818;stroke-width:1.0;"/><line style="stroke:#181818;stroke-width:1.0;" x1="134" x2="981.5" y1="267.6582" y2="267.6582"/><text fill="#000000" font-family="sans-serif" font-size="13" lengthAdjust="spacing" textLength="144" x="141" y="262.3955">getString("activityName")</text><polygon fill="#181818" points="145,294.9492,135,298.9492,145,302.9492" style="stroke:#181818;stroke-width:1.0;"/><line style="stroke:#181818;stroke-width:1.0;" x1="139" x2="991.5" y1="298.9492" y2="298.9492"/><text fill="#000000" font-family="sans-serif" font-size="13" lengthAdjust="spacing" textLength="117" x="151" y="293.6865">workoutName:String</text><polygon fill="#181818" points="1507,326.2402,1517,330.2402,1507,334.2402" style="stroke:#181818;stroke-width:1.0;"/><line style="stroke:#181818;stroke-width:1.0;" x1="134" x2="1513" y1="330.2402" y2="330.2402"/><text fill="#000000" font-family="sans-serif" font-size="13" lengthAdjust="spacing" textLength="163" x="141" y="324.9775">new Workout(workoutName)</text><rect fill="#E2E2F0" height="32.6211" rx="2.5" ry="2.5" style="stroke:#181818;stroke-width:0.5;" width="71" x="1519" y="306.9492"/><text fill="#000000" font-family="sans-serif" font-size="14" lengthAdjust="spacing" textLength="57" x="1526" y="329.0566">:Workout</text><polygon fill="#181818" points="145,369.8613,135,373.8613,145,377.8613" style="stroke:#181818;stroke-width:1.0;"/><line style="stroke:#181818;stroke-width:1.0;stroke-dasharray:2.0,2.0;" x1="139" x2="1553.5" y1="373.8613" y2="373.8613"/><text fill="#000000" font-family="sans-serif" font-size="13" lengthAdjust="spacing" textLength="98" x="151" y="368.5986">workout:Workout</text><polygon fill="#181818" points="975.5,401.1523,985.5,405.1523,975.5,409.1523" style="stroke:#181818;stroke-width:1.0;"/><line style="stroke:#181818;stroke-width:1.0;" x1="134" x2="981.5" y1="405.1523" y2="405.1523"/><text fill="#000000" font-family="sans-serif" font-size="13" lengthAdjust="spacing" textLength="171" x="141" y="399.8896">getJSONArray("exerciseList")</text><polygon fill="#181818" points="145,432.4434,135,436.4434,145,440.4434" style="stroke:#181818;stroke-width:1.0;"/><line style="stroke:#181818;stroke-width:1.0;stroke-dasharray:2.0,2.0;" x1="139" x2="991.5" y1="436.4434" y2="436.4434"/><text fill="#000000" font-family="sans-serif" font-size="13" lengthAdjust="spacing" textLength="210" x="151" y="431.1807">jsonExercisesInWorkout:JSONArray</text><path d="M80,451.4434 L153,451.4434 L153,460.7344 L143,470.7344 L80,470.7344 L80,451.4434 " fill="#EEEEEE" style="stroke:#000000;stroke-width:1.5;"/><rect fill="none" height="278.3281" style="stroke:#000000;stroke-width:1.5;" width="1520" x="80" y="451.4434"/><text fill="#000000" font-family="sans-serif" font-size="13" font-weight="bold" lengthAdjust="spacing" textLength="28" x="95" y="466.4717">loop</text><text fill="#000000" font-family="sans-serif" font-size="11" font-weight="bold" lengthAdjust="spacing" textLength="283" x="168" y="465.3135">[for every jsonExercise in jsonExercisesInWorkout]</text><polygon fill="#181818" points="1190.5,490.0254,1200.5,494.0254,1190.5,498.0254" style="stroke:#181818;stroke-width:1.0;"/><line style="stroke:#181818;stroke-width:1.0;" x1="134" x2="1196.5" y1="494.0254" y2="494.0254"/><text fill="#000000" font-family="sans-serif" font-size="13" lengthAdjust="spacing" textLength="129" x="141" y="488.7627">getJSONObject(index)</text><polygon fill="#181818" points="145,521.3164,135,525.3164,145,529.3164" style="stroke:#181818;stroke-width:1.0;"/><line style="stroke:#181818;stroke-width:1.0;stroke-dasharray:2.0,2.0;" x1="139" x2="1206.5" y1="525.3164" y2="525.3164"/><text fill="#000000" font-family="sans-serif" font-size="13" lengthAdjust="spacing" textLength="151" x="151" y="520.0537">jsonExercise:JSONObject</text><polygon fill="#181818" points="1405.5,552.6074,1415.5,556.6074,1405.5,560.6074" style="stroke:#181818;stroke-width:1.0;"/><line style="stroke:#181818;stroke-width:1.0;" x1="134" x2="1411.5" y1="556.6074" y2="556.6074"/><text fill="#000000" font-family="sans-serif" font-size="13" lengthAdjust="spacing" textLength="144" x="141" y="551.3447">getString("activityName")</text><polygon fill="#181818" points="145,583.8984,135,587.8984,145,591.8984" style="stroke:#181818;stroke-width:1.0;"/><line style="stroke:#181818;stroke-width:1.0;stroke-dasharray:2.0,2.0;" x1="139" x2="1421.5" y1="587.8984" y2="587.8984"/><text fill="#000000" font-family="sans-serif" font-size="13" lengthAdjust="spacing" textLength="146" x="151" y="582.6357">exerciseInWorkout:String</text><line style="stroke:#181818;stroke-width:1.0;" x1="134" x2="181" y1="614.1895" y2="614.1895"/><line style="stroke:#181818;stroke-width:1.0;" x1="181" x2="181" y1="614.1895" y2="627.1895"/><line style="stroke:#181818;stroke-width:1.0;" x1="140" x2="181" y1="627.1895" y2="627.1895"/><polygon fill="#181818" points="150,623.1895,140,627.1895,150,631.1895" style="stroke:#181818;stroke-width:1.0;"/><text fill="#000000" font-family="sans-serif" font-size="13" lengthAdjust="spacing" textLength="232" x="146" y="608.9268">allExercises.retrieve(exerciseInWorkout)</text><line style="stroke:#181818;stroke-width:1.0;stroke-dasharray:2.0,2.0;" x1="139" x2="181" y1="668.4805" y2="668.4805"/><line style="stroke:#181818;stroke-width:1.0;stroke-dasharray:2.0,2.0;" x1="181" x2="181" y1="668.4805" y2="681.4805"/><line style="stroke:#181818;stroke-width:1.0;stroke-dasharray:2.0,2.0;" x1="134" x2="181" y1="681.4805" y2="681.4805"/><polygon fill="#181818" points="144,677.4805,134,681.4805,144,685.4805" style="stroke:#181818;stroke-width:1.0;"/><text fill="#000000" font-family="sans-serif" font-size="13" lengthAdjust="spacing" textLength="154" x="146" y="663.2178">retrievedExercise:Exercise</text><polygon fill="#181818" points="1537.5,703.7715,1547.5,707.7715,1537.5,711.7715" style="stroke:#181818;stroke-width:1.0;"/><line style="stroke:#181818;stroke-width:1.0;" x1="134" x2="1543.5" y1="707.7715" y2="707.7715"/><text fill="#000000" font-family="sans-serif" font-size="13" lengthAdjust="spacing" textLength="179" x="141" y="702.5088">addExercise(retrievedExercise)</text><polygon fill="#181818" points="145,717.7715,135,721.7715,145,725.7715" style="stroke:#181818;stroke-width:1.0;"/><line style="stroke:#181818;stroke-width:1.0;stroke-dasharray:2.0,2.0;" x1="139" x2="1553.5" y1="721.7715" y2="721.7715"/><line style="stroke:#181818;stroke-width:1.0;stroke-dasharray:2.0,2.0;" x1="134" x2="176" y1="754.7715" y2="754.7715"/><line style="stroke:#181818;stroke-width:1.0;stroke-dasharray:2.0,2.0;" x1="176" x2="176" y1="754.7715" y2="767.7715"/><line style="stroke:#181818;stroke-width:1.0;stroke-dasharray:2.0,2.0;" x1="129" x2="176" y1="767.7715" y2="767.7715"/><polygon fill="#181818" points="139,763.7715,129,767.7715,139,771.7715" style="stroke:#181818;stroke-width:1.0;"/><!--SRC=[bLJBJiCm4BpdAwoSWWI8Smv81N4eud6846VZBCLjQaUsMmXVZvl4oJfsKb6fRRAFsPdTjVMEYvegkYUiebglZ57yus1WpQGe-2-GcqGF8Teq5TXVnPavxAiaiMR36Q-fCEIkCN0FjVQCQLuOgUW6Ka8rwPyd4MyQr5eOK9-KTN6UnO_UQYbMYdtn8-IFnUlBwySMc6cpa2lCUPTg9mzcfHHjsiJsQSZ3xjdaMC7U5UOy_81YN8DUU-b-MHVqnFK2HAokyoK9POOVgO6Xk_q_kRfr9fAJIjAovw4pMbK3lKjYtvpd4ZVnOX4Q1Lhu3PX1NPP-Tt3FLDXWbI8WF2ECSEMHdHzOKa8KgvAo9fzI4JY2QZ00uIASCB6VYHRi7mLrNS-uAE7deatpoWUW0TAiC3JKDdCYp4DUuDjHBUoH59iiRI6uQLxe7j9vlbEg_ghqqpjXv1tm0i6E6rDmigTvRstN51T3v9r-8k3RlMIeveGsHXdenlZcE1AHzOWkDH4jCA1p-Qy-1jDUkWREjZMorGxFhNM8tsP6jEAxPcd10x7U9UKY0iHvwTDDZwZsIfmJS7RbPnL4sK-Okz6Fyq9dO85wbFO8Yw_SQmKMqiuq2uf51BYxDu3ty1raENGz48s8EymOv_5Cq790omBy2DFf0aPEHHvZW_D0bCdf6rMPH2Jy0G00]--></g></svg>