<?xml version="1.0" encoding="us-ascii" standalone="no"?><svg xmlns="http://www.w3.org/2000/svg" xmlns:xlink="http://www.w3.org/1999/xlink" contentStyleType="text/css" height="700px" preserveAspectRatio="none" style="width:1307px;height:700px;background:#FFFFFF;" version="1.1" viewBox="0 0 1307 700" width="1307px" zoomAndPan="magnify"><defs/><g><rect fill="#FFFFFF" height="635.7832" style="stroke:#181818;stroke-width:1.0;" width="10" x="52.5" y="48.6211"/><rect fill="#FFFFFF" height="596.4922" style="stroke:#181818;stroke-width:1.0;" width="10" x="593.5" y="71.9121"/><rect fill="#FFFFFF" height="25" style="stroke:#181818;stroke-width:1.0;" width="10" x="598.5" y="212.4063"/><rect fill="#FFFFFF" height="25" style="stroke:#181818;stroke-width:1.0;" width="10" x="598.5" y="283.6973"/><rect fill="#FFFFFF" height="25" style="stroke:#181818;stroke-width:1.0;" width="10" x="598.5" y="354.9883"/><rect fill="#FFFFFF" height="25" style="stroke:#181818;stroke-width:1.0;" width="10" x="598.5" y="426.2793"/><rect fill="#FFFFFF" height="14" style="stroke:#181818;stroke-width:1.0;" width="10" x="1079.5" y="489.5703"/><rect fill="#FFFFFF" height="14" style="stroke:#181818;stroke-width:1.0;" width="10" x="1079.5" y="640.4043"/><rect fill="#FFFFFF" height="33.6211" style="stroke:#181818;stroke-width:1.0;" width="10" x="1187.5" y="139.4941"/><rect fill="#FFFFFF" height="33.6211" style="stroke:#181818;stroke-width:1.0;" width="10" x="1265" y="575.4922"/><rect fill="none" height="589.4922" style="stroke:#000000;stroke-width:1.5;" width="1290.5" x="10" y="86.9121"/><line style="stroke:#181818;stroke-width:0.5;stroke-dasharray:5.0,5.0;" x1="57" x2="57" y1="38.6211" y2="693.4043"/><line style="stroke:#181818;stroke-width:0.5;stroke-dasharray:5.0,5.0;" x1="598.5" x2="598.5" y1="38.6211" y2="693.4043"/><line style="stroke:#181818;stroke-width:0.5;stroke-dasharray:5.0,5.0;" x1="1084.5" x2="1084.5" y1="38.6211" y2="693.4043"/><line style="stroke:#181818;stroke-width:0.5;stroke-dasharray:5.0,5.0;" x1="1192.5" x2="1192.5" y1="138.0137" y2="693.4043"/><line style="stroke:#181818;stroke-width:0.5;stroke-dasharray:5.0,5.0;" x1="1269.5" x2="1269.5" y1="574.0117" y2="693.4043"/><rect fill="#E2E2F0" height="32.6211" rx="2.5" ry="2.5" style="stroke:#181818;stroke-width:0.5;" width="75" x="20" y="5"/><text fill="#000000" font-family="sans-serif" font-size="14" lengthAdjust="spacing" textLength="61" x="27" y="27.1074">ByteCeps</text><rect fill="#E2E2F0" height="32.6211" rx="2.5" ry="2.5" style="stroke:#181818;stroke-width:0.5;" width="68" x="564.5" y="5"/><text fill="#000000" font-family="sans-serif" font-size="14" lengthAdjust="spacing" textLength="54" x="571.5" y="27.1074">:Storage</text><rect fill="#E2E2F0" height="32.6211" rx="2.5" ry="2.5" style="stroke:#181818;stroke-width:0.5;" width="102" x="1033.5" y="5"/><text fill="#000000" font-family="sans-serif" font-size="14" lengthAdjust="spacing" textLength="88" x="1040.5" y="27.1074">:UserInterface</text><rect fill="#FFFFFF" height="635.7832" style="stroke:#181818;stroke-width:1.0;" width="10" x="52.5" y="48.6211"/><rect fill="#FFFFFF" height="596.4922" style="stroke:#181818;stroke-width:1.0;" width="10" x="593.5" y="71.9121"/><rect fill="#FFFFFF" height="25" style="stroke:#181818;stroke-width:1.0;" width="10" x="598.5" y="212.4063"/><rect fill="#FFFFFF" height="25" style="stroke:#181818;stroke-width:1.0;" width="10" x="598.5" y="283.6973"/><rect fill="#FFFFFF" height="25" style="stroke:#181818;stroke-width:1.0;" width="10" x="598.5" y="354.9883"/><rect fill="#FFFFFF" height="25" style="stroke:#181818;stroke-width:1.0;" width="10" x="598.5" y="426.2793"/><rect fill="#FFFFFF" height="14" style="stroke:#181818;stroke-width:1.0;" width="10" x="1079.5" y="489.5703"/><rect fill="#FFFFFF" height="14" style="stroke:#181818;stroke-width:1.0;" width="10" x="1079.5" y="640.4043"/><rect fill="#FFFFFF" height="33.6211" style="stroke:#181818;stroke-width:1.0;" width="10" x="1187.5" y="139.4941"/><rect fill="#FFFFFF" height="33.6211" style="stroke:#181818;stroke-width:1.0;" width="10" x="1265" y="575.4922"/><polygon fill="#181818" points="581.5,67.9121,591.5,71.9121,581.5,75.9121" style="stroke:#181818;stroke-width:1.0;"/><line style="stroke:#181818;stroke-width:1.0;" x1="62.5" x2="587.5" y1="71.9121" y2="71.9121"/><text fill="#000000" font-family="sans-serif" font-size="13" lengthAdjust="spacing" textLength="512" x="69.5" y="66.6494">load(exerciseManager, workoutManager, weeklyProgramManager, workoutLogsManager)</text><path d="M10,86.9121 L71,86.9121 L71,96.2031 L61,106.2031 L10,106.2031 L10,86.9121 " fill="#EEEEEE" style="stroke:#000000;stroke-width:1.5;"/><rect fill="none" height="589.4922" style="stroke:#000000;stroke-width:1.5;" width="1290.5" x="10" y="86.9121"/><text fill="#000000" font-family="sans-serif" font-size="13" font-weight="bold" lengthAdjust="spacing" textLength="16" x="25" y="101.9404">alt</text><text fill="#000000" font-family="sans-serif" font-size="11" font-weight="bold" lengthAdjust="spacing" textLength="95" x="86" y="100.7822">[data.json exists]</text><polygon fill="#181818" points="1133.5,125.4941,1143.5,129.4941,1133.5,133.4941" style="stroke:#181818;stroke-width:1.0;"/><line style="stroke:#181818;stroke-width:1.0;" x1="603.5" x2="1139.5" y1="129.4941" y2="129.4941"/><text fill="#000000" font-family="sans-serif" font-size="13" lengthAdjust="spacing" textLength="240" x="610.5" y="124.2314">new JSONObject(jsonScanner.nextLine())</text><rect fill="#E2E2F0" height="32.6211" rx="2.5" ry="2.5" style="stroke:#181818;stroke-width:0.5;" width="94" x="1145.5" y="106.2031"/><text fill="#000000" font-family="sans-serif" font-size="14" lengthAdjust="spacing" textLength="80" x="1152.5" y="128.3105">:JSONObject</text><polygon fill="#181818" points="614.5,169.1152,604.5,173.1152,614.5,177.1152" style="stroke:#181818;stroke-width:1.0;"/><line style="stroke:#181818;stroke-width:1.0;stroke-dasharray:2.0,2.0;" x1="608.5" x2="1191.5" y1="173.1152" y2="173.1152"/><text fill="#000000" font-family="sans-serif" font-size="13" lengthAdjust="spacing" textLength="66" x="620.5" y="167.8525">jsonArchive</text><line style="stroke:#181818;stroke-width:1.0;" x1="603.5" x2="650.5" y1="199.4063" y2="199.4063"/><line style="stroke:#181818;stroke-width:1.0;" x1="650.5" x2="650.5" y1="199.4063" y2="212.4063"/><line style="stroke:#181818;stroke-width:1.0;" x1="609.5" x2="650.5" y1="212.4063" y2="212.4063"/><polygon fill="#181818" points="619.5,208.4063,609.5,212.4063,619.5,216.4063" style="stroke:#181818;stroke-width:1.0;"/><text fill="#000000" font-family="sans-serif" font-size="13" lengthAdjust="spacing" textLength="235" x="615.5" y="194.1436">loadExercises(allExercises, jsonArchive)</text><line style="stroke:#181818;stroke-width:1.0;stroke-dasharray:2.0,2.0;" x1="608.5" x2="650.5" y1="236.4063" y2="236.4063"/><line style="stroke:#181818;stroke-width:1.0;stroke-dasharray:2.0,2.0;" x1="650.5" x2="650.5" y1="236.4063" y2="249.4063"/><line style="stroke:#181818;stroke-width:1.0;stroke-dasharray:2.0,2.0;" x1="603.5" x2="650.5" y1="249.4063" y2="249.4063"/><polygon fill="#181818" points="613.5,245.4063,603.5,249.4063,613.5,253.4063" style="stroke:#181818;stroke-width:1.0;"/><line style="stroke:#181818;stroke-width:1.0;" x1="603.5" x2="650.5" y1="270.6973" y2="270.6973"/><line style="stroke:#181818;stroke-width:1.0;" x1="650.5" x2="650.5" y1="270.6973" y2="283.6973"/><line style="stroke:#181818;stroke-width:1.0;" x1="609.5" x2="650.5" y1="283.6973" y2="283.6973"/><polygon fill="#181818" points="619.5,279.6973,609.5,283.6973,619.5,287.6973" style="stroke:#181818;stroke-width:1.0;"/><text fill="#000000" font-family="sans-serif" font-size="13" lengthAdjust="spacing" textLength="310" x="615.5" y="265.4346">loadWorkouts(allExercises, allWorkouts, jsonArchive)</text><line style="stroke:#181818;stroke-width:1.0;stroke-dasharray:2.0,2.0;" x1="608.5" x2="650.5" y1="307.6973" y2="307.6973"/><line style="stroke:#181818;stroke-width:1.0;stroke-dasharray:2.0,2.0;" x1="650.5" x2="650.5" y1="307.6973" y2="320.6973"/><line style="stroke:#181818;stroke-width:1.0;stroke-dasharray:2.0,2.0;" x1="603.5" x2="650.5" y1="320.6973" y2="320.6973"/><polygon fill="#181818" points="613.5,316.6973,603.5,320.6973,613.5,324.6973" style="stroke:#181818;stroke-width:1.0;"/><line style="stroke:#181818;stroke-width:1.0;" x1="603.5" x2="650.5" y1="341.9883" y2="341.9883"/><line style="stroke:#181818;stroke-width:1.0;" x1="650.5" x2="650.5" y1="341.9883" y2="354.9883"/><line style="stroke:#181818;stroke-width:1.0;" x1="609.5" x2="650.5" y1="354.9883" y2="354.9883"/><polygon fill="#181818" points="619.5,350.9883,609.5,354.9883,619.5,358.9883" style="stroke:#181818;stroke-width:1.0;"/><text fill="#000000" font-family="sans-serif" font-size="13" lengthAdjust="spacing" textLength="365" x="615.5" y="336.7256">loadWeeklyProgram(allWorkouts, weeklyProgram, jsonArchive)</text><line style="stroke:#181818;stroke-width:1.0;stroke-dasharray:2.0,2.0;" x1="608.5" x2="650.5" y1="378.9883" y2="378.9883"/><line style="stroke:#181818;stroke-width:1.0;stroke-dasharray:2.0,2.0;" x1="650.5" x2="650.5" y1="378.9883" y2="391.9883"/><line style="stroke:#181818;stroke-width:1.0;stroke-dasharray:2.0,2.0;" x1="603.5" x2="650.5" y1="391.9883" y2="391.9883"/><polygon fill="#181818" points="613.5,387.9883,603.5,391.9883,613.5,395.9883" style="stroke:#181818;stroke-width:1.0;"/><line style="stroke:#181818;stroke-width:1.0;" x1="603.5" x2="650.5" y1="413.2793" y2="413.2793"/><line style="stroke:#181818;stroke-width:1.0;" x1="650.5" x2="650.5" y1="413.2793" y2="426.2793"/><line style="stroke:#181818;stroke-width:1.0;" x1="609.5" x2="650.5" y1="426.2793" y2="426.2793"/><polygon fill="#181818" points="619.5,422.2793,609.5,426.2793,619.5,430.2793" style="stroke:#181818;stroke-width:1.0;"/><text fill="#000000" font-family="sans-serif" font-size="13" lengthAdjust="spacing" textLength="462" x="615.5" y="408.0166">loadWorkoutLogs(allExercises, allWorkouts, jsonArchive, workoutLogsManager)</text><line style="stroke:#181818;stroke-width:1.0;stroke-dasharray:2.0,2.0;" x1="608.5" x2="650.5" y1="450.2793" y2="450.2793"/><line style="stroke:#181818;stroke-width:1.0;stroke-dasharray:2.0,2.0;" x1="650.5" x2="650.5" y1="450.2793" y2="463.2793"/><line style="stroke:#181818;stroke-width:1.0;stroke-dasharray:2.0,2.0;" x1="603.5" x2="650.5" y1="463.2793" y2="463.2793"/><polygon fill="#181818" points="613.5,459.2793,603.5,463.2793,613.5,467.2793" style="stroke:#181818;stroke-width:1.0;"/><polygon fill="#181818" points="1067.5,485.5703,1077.5,489.5703,1067.5,493.5703" style="stroke:#181818;stroke-width:1.0;"/><line style="stroke:#181818;stroke-width:1.0;" x1="603.5" x2="1073.5" y1="489.5703" y2="489.5703"/><text fill="#000000" font-family="sans-serif" font-size="13" lengthAdjust="spacing" textLength="191" x="610.5" y="484.3076">printMessage(LOAD_SUCCESS)</text><polygon fill="#181818" points="614.5,499.5703,604.5,503.5703,614.5,507.5703" style="stroke:#181818;stroke-width:1.0;"/><line style="stroke:#181818;stroke-width:1.0;stroke-dasharray:2.0,2.0;" x1="608.5" x2="1083.5" y1="503.5703" y2="503.5703"/><polygon fill="#181818" points="73.5,513.5703,63.5,517.5703,73.5,521.5703" style="stroke:#181818;stroke-width:1.0;"/><line style="stroke:#181818;stroke-width:1.0;stroke-dasharray:2.0,2.0;" x1="67.5" x2="592.5" y1="517.5703" y2="517.5703"/><line style="stroke:#000000;stroke-width:1.0;stroke-dasharray:2.0,2.0;" x1="10" x2="1300.5" y1="526.5703" y2="526.5703"/><text fill="#000000" font-family="sans-serif" font-size="11" font-weight="bold" lengthAdjust="spacing" textLength="140" x="15" y="538.4404">[data.json does not exist]</text><polygon fill="#181818" points="1237.5,561.4922,1247.5,565.4922,1237.5,569.4922" style="stroke:#181818;stroke-width:1.0;"/><line style="stroke:#181818;stroke-width:1.0;" x1="603.5" x2="1243.5" y1="565.4922" y2="565.4922"/><text fill="#000000" font-family="sans-serif" font-size="13" lengthAdjust="spacing" textLength="90" x="610.5" y="560.2295">createNewFile()</text><rect fill="#E2E2F0" height="32.6211" rx="2.5" ry="2.5" style="stroke:#181818;stroke-width:0.5;" width="41" x="1249.5" y="542.2012"/><text fill="#000000" font-family="sans-serif" font-size="14" lengthAdjust="spacing" textLength="27" x="1256.5" y="564.3086">:File</text><polygon fill="#181818" points="614.5,605.1133,604.5,609.1133,614.5,613.1133" style="stroke:#181818;stroke-width:1.0;"/><line style="stroke:#181818;stroke-width:1.0;stroke-dasharray:2.0,2.0;" x1="608.5" x2="1269" y1="609.1133" y2="609.1133"/><text fill="#000000" font-family="sans-serif" font-size="13" lengthAdjust="spacing" textLength="44" x="620.5" y="603.8506">newFile</text><polygon fill="#181818" points="1067.5,636.4043,1077.5,640.4043,1067.5,644.4043" style="stroke:#181818;stroke-width:1.0;"/><line style="stroke:#181818;stroke-width:1.0;" x1="603.5" x2="1073.5" y1="640.4043" y2="640.4043"/><text fill="#000000" font-family="sans-serif" font-size="13" lengthAdjust="spacing" textLength="193" x="610.5" y="635.1416">printMessage(NO_SAVE_DATA);</text><polygon fill="#181818" points="614.5,650.4043,604.5,654.4043,614.5,658.4043" style="stroke:#181818;stroke-width:1.0;"/><line style="stroke:#181818;stroke-width:1.0;stroke-dasharray:2.0,2.0;" x1="608.5" x2="1083.5" y1="654.4043" y2="654.4043"/><polygon fill="#181818" points="73.5,664.4043,63.5,668.4043,73.5,672.4043" style="stroke:#181818;stroke-width:1.0;"/><line style="stroke:#181818;stroke-width:1.0;stroke-dasharray:2.0,2.0;" x1="67.5" x2="597.5" y1="668.4043" y2="668.4043"/><!--SRC=[nLHHJy8m47xVhsXu6eaOdp4ncO291i5aee-aT2TMQajwXu2_tcvZRAr0Z8cn3qll-lNhTzzwnONKIsxvEnEA8oP4LivM1BV2w5H-0hk8S0z1sYfmNoi5hTvL5BaqII6NN1ExtXBqO8bUijLDoLW-XnRZo7Rp0351iBUQmBvmKUAyJ1HnGVA34zH7L1FMkQf8MPSfmxCODc25HBZdscNj6LiRkp0hgcE0XTe-M3Dt9OMeePdZBjUkpwrqSqKiuyJFtz1e1Xk9X15pGrZ8SQtkNJeUZMTl8AWef0uBM2NLgQvNd70DwqOYpjbJmRK6UwvXGqEf8Mwt2ugzfe2wmTVnJCd94YjUvGSKm0mEKOJoV5C7EqynvahjWxCcTw2kSioZRVA6MgeDfuKybtyfrE6YQkK_H3KlLEnfyUxQ__cLt-eVMdQu4_v6gzVcJl7IIattWEZMu-4uwK_JIQytIDD0WFyyv4i-KqFCDot1qnBMK3qitGWKGgFPCmF8jA6ow_sclv6gVBVoILXaddErbU0HhFCu3WhQxol0Vl_gSajOnw6ZJlev6a_Jv6amxIUFIVloruQUzlEOdSVl1EWiAiON]--></g></svg>