<?xml version="1.0" encoding="us-ascii" standalone="no"?><svg xmlns="http://www.w3.org/2000/svg" xmlns:xlink="http://www.w3.org/1999/xlink" contentStyleType="text/css" height="639px" preserveAspectRatio="none" style="width:986px;height:639px;background:#FFFFFF;" version="1.1" viewBox="0 0 986 639" width="986px" zoomAndPan="magnify"><defs/><g><rect fill="#FFFFFF" height="574.6953" style="stroke:#181818;stroke-width:1.0;" width="10" x="37.5" y="48.6211"/><rect fill="#FFFFFF" height="14" style="stroke:#181818;stroke-width:1.0;" width="10" x="246.5" y="600.3164"/><rect fill="#FFFFFF" height="497.1133" style="stroke:#181818;stroke-width:1.0;" width="10" x="394.5" y="71.9121"/><rect fill="#FFFFFF" height="419.5313" style="stroke:#181818;stroke-width:1.0;" width="10" x="399.5" y="111.2031"/><rect fill="#FFFFFF" height="42.291" style="stroke:#181818;stroke-width:1.0;" width="10" x="404.5" y="230.4063"/><rect fill="#FFFFFF" height="42.291" style="stroke:#181818;stroke-width:1.0;" width="10" x="404.5" y="444.1523"/><rect fill="#FFFFFF" height="31.291" style="stroke:#181818;stroke-width:1.0;" width="10" x="769.5" y="310.9883"/><rect fill="#FFFFFF" height="33.6211" style="stroke:#181818;stroke-width:1.0;" width="10" x="897" y="157.4941"/><rect fill="#FFFFFF" height="31.291" style="stroke:#181818;stroke-width:1.0;" width="10" x="897" y="373.5703"/><line style="stroke:#181818;stroke-width:0.5;stroke-dasharray:5.0,5.0;" x1="42" x2="42" y1="38.6211" y2="632.3164"/><line style="stroke:#181818;stroke-width:0.5;stroke-dasharray:5.0,5.0;" x1="251.5" x2="251.5" y1="38.6211" y2="632.3164"/><line style="stroke:#181818;stroke-width:0.5;stroke-dasharray:5.0,5.0;" x1="399.5" x2="399.5" y1="38.6211" y2="632.3164"/><line style="stroke:#181818;stroke-width:0.5;stroke-dasharray:5.0,5.0;" x1="774.5" x2="774.5" y1="38.6211" y2="632.3164"/><line style="stroke:#181818;stroke-width:0.5;stroke-dasharray:5.0,5.0;" x1="901.5" x2="901.5" y1="156.0137" y2="632.3164"/><rect fill="#E2E2F0" height="32.6211" rx="2.5" ry="2.5" style="stroke:#181818;stroke-width:0.5;" width="75" x="5" y="5"/><text fill="#000000" font-family="sans-serif" font-size="14" lengthAdjust="spacing" textLength="61" x="12" y="27.1074">ByteCeps</text><rect fill="#E2E2F0" height="32.6211" rx="2.5" ry="2.5" style="stroke:#181818;stroke-width:0.5;" width="102" x="200.5" y="5"/><text fill="#000000" font-family="sans-serif" font-size="14" lengthAdjust="spacing" textLength="88" x="207.5" y="27.1074">:UserInterface</text><rect fill="#E2E2F0" height="32.6211" rx="2.5" ry="2.5" style="stroke:#181818;stroke-width:0.5;" width="174" x="312.5" y="5"/><text fill="#000000" font-family="sans-serif" font-size="14" lengthAdjust="spacing" textLength="160" x="319.5" y="27.1074">:WeeklyProgramManager</text><rect fill="#E2E2F0" height="32.6211" rx="2.5" ry="2.5" style="stroke:#181818;stroke-width:0.5;" width="78" x="735.5" y="5"/><text fill="#000000" font-family="sans-serif" font-size="14" lengthAdjust="spacing" textLength="64" x="742.5" y="27.1074">today:Day</text><rect fill="#FFFFFF" height="574.6953" style="stroke:#181818;stroke-width:1.0;" width="10" x="37.5" y="48.6211"/><rect fill="#FFFFFF" height="14" style="stroke:#181818;stroke-width:1.0;" width="10" x="246.5" y="600.3164"/><rect fill="#FFFFFF" height="497.1133" style="stroke:#181818;stroke-width:1.0;" width="10" x="394.5" y="71.9121"/><rect fill="#FFFFFF" height="419.5313" style="stroke:#181818;stroke-width:1.0;" width="10" x="399.5" y="111.2031"/><rect fill="#FFFFFF" height="42.291" style="stroke:#181818;stroke-width:1.0;" width="10" x="404.5" y="230.4063"/><rect fill="#FFFFFF" height="42.291" style="stroke:#181818;stroke-width:1.0;" width="10" x="404.5" y="444.1523"/><rect fill="#FFFFFF" height="31.291" style="stroke:#181818;stroke-width:1.0;" width="10" x="769.5" y="310.9883"/><rect fill="#FFFFFF" height="33.6211" style="stroke:#181818;stroke-width:1.0;" width="10" x="897" y="157.4941"/><rect fill="#FFFFFF" height="31.291" style="stroke:#181818;stroke-width:1.0;" width="10" x="897" y="373.5703"/><polygon fill="#181818" points="382.5,67.9121,392.5,71.9121,382.5,75.9121" style="stroke:#181818;stroke-width:1.0;"/><line style="stroke:#181818;stroke-width:1.0;" x1="47.5" x2="388.5" y1="71.9121" y2="71.9121"/><text fill="#000000" font-family="sans-serif" font-size="13" lengthAdjust="spacing" textLength="90" x="54.5" y="66.6494">execute(parser)</text><line style="stroke:#181818;stroke-width:1.0;" x1="404.5" x2="451.5" y1="98.2031" y2="98.2031"/><line style="stroke:#181818;stroke-width:1.0;" x1="451.5" x2="451.5" y1="98.2031" y2="111.2031"/><line style="stroke:#181818;stroke-width:1.0;" x1="410.5" x2="451.5" y1="111.2031" y2="111.2031"/><polygon fill="#181818" points="420.5,107.2031,410.5,111.2031,420.5,115.2031" style="stroke:#181818;stroke-width:1.0;"/><text fill="#000000" font-family="sans-serif" font-size="13" lengthAdjust="spacing" textLength="162" x="416.5" y="92.9404">executeTodayAction(parser)</text><polygon fill="#181818" points="811.5,143.4941,821.5,147.4941,811.5,151.4941" style="stroke:#181818;stroke-width:1.0;"/><line style="stroke:#181818;stroke-width:1.0;" x1="409.5" x2="817.5" y1="147.4941" y2="147.4941"/><text fill="#000000" font-family="sans-serif" font-size="13" lengthAdjust="spacing" textLength="93" x="416.5" y="142.2314">LocalDate.now()</text><rect fill="#E2E2F0" height="32.6211" rx="2.5" ry="2.5" style="stroke:#181818;stroke-width:0.5;" width="157" x="823.5" y="124.2031"/><text fill="#000000" font-family="sans-serif" font-size="14" lengthAdjust="spacing" textLength="143" x="830.5" y="146.3105">currentDate:LocalDate</text><polygon fill="#181818" points="420.5,187.1152,410.5,191.1152,420.5,195.1152" style="stroke:#181818;stroke-width:1.0;"/><line style="stroke:#181818;stroke-width:1.0;stroke-dasharray:2.0,2.0;" x1="414.5" x2="901" y1="191.1152" y2="191.1152"/><text fill="#000000" font-family="sans-serif" font-size="13" lengthAdjust="spacing" textLength="67" x="426.5" y="185.8525">currentDate</text><line style="stroke:#181818;stroke-width:1.0;" x1="409.5" x2="456.5" y1="217.4063" y2="217.4063"/><line style="stroke:#181818;stroke-width:1.0;" x1="456.5" x2="456.5" y1="217.4063" y2="230.4063"/><line style="stroke:#181818;stroke-width:1.0;" x1="415.5" x2="456.5" y1="230.4063" y2="230.4063"/><polygon fill="#181818" points="425.5,226.4063,415.5,230.4063,425.5,234.4063" style="stroke:#181818;stroke-width:1.0;"/><text fill="#000000" font-family="sans-serif" font-size="13" lengthAdjust="spacing" textLength="173" x="421.5" y="212.1436">getDayFromDate(currentDate)</text><line style="stroke:#181818;stroke-width:1.0;stroke-dasharray:2.0,2.0;" x1="414.5" x2="456.5" y1="271.6973" y2="271.6973"/><line style="stroke:#181818;stroke-width:1.0;stroke-dasharray:2.0,2.0;" x1="456.5" x2="456.5" y1="271.6973" y2="284.6973"/><line style="stroke:#181818;stroke-width:1.0;stroke-dasharray:2.0,2.0;" x1="409.5" x2="456.5" y1="284.6973" y2="284.6973"/><polygon fill="#181818" points="419.5,280.6973,409.5,284.6973,419.5,288.6973" style="stroke:#181818;stroke-width:1.0;"/><text fill="#000000" font-family="sans-serif" font-size="13" lengthAdjust="spacing" textLength="59" x="421.5" y="266.4346">today:Day</text><polygon fill="#181818" points="757.5,306.9883,767.5,310.9883,757.5,314.9883" style="stroke:#181818;stroke-width:1.0;"/><line style="stroke:#181818;stroke-width:1.0;" x1="409.5" x2="763.5" y1="310.9883" y2="310.9883"/><text fill="#000000" font-family="sans-serif" font-size="13" lengthAdjust="spacing" textLength="129" x="416.5" y="305.7256">getAssignedWorkout()</text><polygon fill="#181818" points="420.5,338.2793,410.5,342.2793,420.5,346.2793" style="stroke:#181818;stroke-width:1.0;"/><line style="stroke:#181818;stroke-width:1.0;stroke-dasharray:2.0,2.0;" x1="414.5" x2="773.5" y1="342.2793" y2="342.2793"/><text fill="#000000" font-family="sans-serif" font-size="13" lengthAdjust="spacing" textLength="141" x="426.5" y="337.0166">todaysWorkout:Workout</text><polygon fill="#181818" points="885,369.5703,895,373.5703,885,377.5703" style="stroke:#181818;stroke-width:1.0;"/><line style="stroke:#181818;stroke-width:1.0;" x1="409.5" x2="891" y1="373.5703" y2="373.5703"/><text fill="#000000" font-family="sans-serif" font-size="13" lengthAdjust="spacing" textLength="53" x="416.5" y="368.3076">toString()</text><polygon fill="#181818" points="420.5,400.8613,410.5,404.8613,420.5,408.8613" style="stroke:#181818;stroke-width:1.0;"/><line style="stroke:#181818;stroke-width:1.0;stroke-dasharray:2.0,2.0;" x1="414.5" x2="901" y1="404.8613" y2="404.8613"/><text fill="#000000" font-family="sans-serif" font-size="13" lengthAdjust="spacing" textLength="97" x="426.5" y="399.5986">todayDate:String</text><line style="stroke:#181818;stroke-width:1.0;" x1="409.5" x2="456.5" y1="431.1523" y2="431.1523"/><line style="stroke:#181818;stroke-width:1.0;" x1="456.5" x2="456.5" y1="431.1523" y2="444.1523"/><line style="stroke:#181818;stroke-width:1.0;" x1="415.5" x2="456.5" y1="444.1523" y2="444.1523"/><polygon fill="#181818" points="425.5,440.1523,415.5,444.1523,425.5,448.1523" style="stroke:#181818;stroke-width:1.0;"/><text fill="#000000" font-family="sans-serif" font-size="13" lengthAdjust="spacing" textLength="346" x="421.5" y="425.8896">getTodaysWorkoutString(todaysWorkout, todayDate, today)</text><line style="stroke:#181818;stroke-width:1.0;stroke-dasharray:2.0,2.0;" x1="414.5" x2="456.5" y1="485.4434" y2="485.4434"/><line style="stroke:#181818;stroke-width:1.0;stroke-dasharray:2.0,2.0;" x1="456.5" x2="456.5" y1="485.4434" y2="498.4434"/><line style="stroke:#181818;stroke-width:1.0;stroke-dasharray:2.0,2.0;" x1="409.5" x2="456.5" y1="498.4434" y2="498.4434"/><polygon fill="#181818" points="419.5,494.4434,409.5,498.4434,419.5,502.4434" style="stroke:#181818;stroke-width:1.0;"/><text fill="#000000" font-family="sans-serif" font-size="13" lengthAdjust="spacing" textLength="94" x="421.5" y="480.1807">messageToUser</text><line style="stroke:#181818;stroke-width:1.0;stroke-dasharray:2.0,2.0;" x1="409.5" x2="451.5" y1="529.7344" y2="529.7344"/><line style="stroke:#181818;stroke-width:1.0;stroke-dasharray:2.0,2.0;" x1="451.5" x2="451.5" y1="529.7344" y2="542.7344"/><line style="stroke:#181818;stroke-width:1.0;stroke-dasharray:2.0,2.0;" x1="404.5" x2="451.5" y1="542.7344" y2="542.7344"/><polygon fill="#181818" points="414.5,538.7344,404.5,542.7344,414.5,546.7344" style="stroke:#181818;stroke-width:1.0;"/><text fill="#000000" font-family="sans-serif" font-size="13" lengthAdjust="spacing" textLength="94" x="416.5" y="524.4717">messageToUser</text><polygon fill="#181818" points="58.5,565.0254,48.5,569.0254,58.5,573.0254" style="stroke:#181818;stroke-width:1.0;"/><line style="stroke:#181818;stroke-width:1.0;stroke-dasharray:2.0,2.0;" x1="52.5" x2="398.5" y1="569.0254" y2="569.0254"/><text fill="#000000" font-family="sans-serif" font-size="13" lengthAdjust="spacing" textLength="94" x="64.5" y="563.7627">messageToUser</text><polygon fill="#181818" points="234.5,596.3164,244.5,600.3164,234.5,604.3164" style="stroke:#181818;stroke-width:1.0;"/><line style="stroke:#181818;stroke-width:1.0;" x1="47.5" x2="240.5" y1="600.3164" y2="600.3164"/><text fill="#000000" font-family="sans-serif" font-size="13" lengthAdjust="spacing" textLength="180" x="54.5" y="595.0537">printMessage(messageToUser)</text><polygon fill="#181818" points="58.5,610.3164,48.5,614.3164,58.5,618.3164" style="stroke:#181818;stroke-width:1.0;"/><line style="stroke:#181818;stroke-width:1.0;stroke-dasharray:2.0,2.0;" x1="52.5" x2="250.5" y1="614.3164" y2="614.3164"/><!--SRC=[lLNVIyCm47xFNn7sLC69ptqGfaCOE10ssNFCpXBM9YMvglMlDqbhruJMwURiGvjSxhxxxaSlPYTaoJGhAC-PCJD4BPuhX0LNSYK-W5uJqwaOh7EmRoquLaLEY1MZuA9a4kbjZN07fGc4a_J9W5v81Ft2E4meCpIGHDeRW5rUFsgLMNzB9ba6sXiD7OIsgBQiJkUizlf-HmYXzc4SnIj3s5DqqgyDdTuCejEKmZjmcul4-h6SBqAmGKPEOn3ie9Er8popu4h-mfzNuHgSmeHNMeF4kTsa3ugptAryDdedtrBiwLbc7SQLL6z9H2U6x9jEnwEDpROmY7XC8ZEmjlMzLeM3I7fmfrLkt6FNSd4euxKQYyb3DK7CZ16PXEr6wPsgC4vyqzbErDWSucTQdBJznbpRF-NdRO5gPIU0pFwe8xn_txCDx1dQOjtFGqi-oCtbdaMxF5VB562CNQwLcuAdjit_kUc6vT7G_N4Rt00fBMr1SDd09W5yL8Nmvd17WIHY6dCBhSad]--></g></svg>