<?xml version="1.0" encoding="us-ascii" standalone="no"?><svg xmlns="http://www.w3.org/2000/svg" xmlns:xlink="http://www.w3.org/1999/xlink" contentStyleType="text/css" height="859px" preserveAspectRatio="none" style="width:1609px;height:859px;background:#FFFFFF;" version="1.1" viewBox="0 0 1609 859" width="1609px" zoomAndPan="magnify"><defs/><g><rect fill="#FFFFFF" height="794.7715" style="stroke:#181818;stroke-width:1.0;" width="10" x="37.5" y="48.6211"/><rect fill="#FFFFFF" height="14" style="stroke:#181818;stroke-width:1.0;" width="10" x="136" y="806.3926"/><rect fill="#FFFFFF" height="762.4805" style="stroke:#181818;stroke-width:1.0;" width="10" x="580.5" y="71.9121"/><rect fill="#FFFFFF" height="33.6211" style="stroke:#181818;stroke-width:1.0;" width="10" x="800" y="113.2031"/><rect fill="#FFFFFF" height="14" style="stroke:#181818;stroke-width:1.0;" width="10" x="800" y="240.6973"/><rect fill="#FFFFFF" height="14" style="stroke:#181818;stroke-width:1.0;" width="10" x="800" y="348.5703"/><rect fill="#FFFFFF" height="14" style="stroke:#181818;stroke-width:1.0;" width="10" x="800" y="456.4434"/><rect fill="#FFFFFF" height="14" style="stroke:#181818;stroke-width:1.0;" width="10" x="800" y="564.3164"/><rect fill="#FFFFFF" height="31.291" style="stroke:#181818;stroke-width:1.0;" width="10" x="800" y="667.2285"/><rect fill="#FFFFFF" height="31.291" style="stroke:#181818;stroke-width:1.0;" width="10" x="957" y="178.1152"/><rect fill="#FFFFFF" height="31.291" style="stroke:#181818;stroke-width:1.0;" width="10" x="1094" y="285.9883"/><rect fill="#FFFFFF" height="31.291" style="stroke:#181818;stroke-width:1.0;" width="10" x="1254.5" y="393.8613"/><rect fill="#FFFFFF" height="31.291" style="stroke:#181818;stroke-width:1.0;" width="10" x="1430.5" y="501.7344"/><rect fill="#FFFFFF" height="16.3301" style="stroke:#181818;stroke-width:1.0;" width="10" x="1559" y="619.6074"/><rect fill="#FFFFFF" height="14" style="stroke:#181818;stroke-width:1.0;" width="10" x="1559" y="729.8105"/><line style="stroke:#181818;stroke-width:0.5;stroke-dasharray:5.0,5.0;" x1="42" x2="42" y1="38.6211" y2="852.3926"/><line style="stroke:#181818;stroke-width:0.5;stroke-dasharray:5.0,5.0;" x1="141" x2="141" y1="38.6211" y2="852.3926"/><line style="stroke:#181818;stroke-width:0.5;stroke-dasharray:5.0,5.0;" x1="585.5" x2="585.5" y1="38.6211" y2="852.3926"/><line style="stroke:#181818;stroke-width:0.5;stroke-dasharray:5.0,5.0;" x1="804.5" x2="804.5" y1="111.7227" y2="852.3926"/><line style="stroke:#181818;stroke-width:0.5;stroke-dasharray:5.0,5.0;" x1="961.5" x2="961.5" y1="38.6211" y2="852.3926"/><line style="stroke:#181818;stroke-width:0.5;stroke-dasharray:5.0,5.0;" x1="1098.5" x2="1098.5" y1="38.6211" y2="852.3926"/><line style="stroke:#181818;stroke-width:0.5;stroke-dasharray:5.0,5.0;" x1="1259.5" x2="1259.5" y1="38.6211" y2="852.3926"/><line style="stroke:#181818;stroke-width:0.5;stroke-dasharray:5.0,5.0;" x1="1435.5" x2="1435.5" y1="38.6211" y2="852.3926"/><line style="stroke:#181818;stroke-width:0.5;stroke-dasharray:5.0,5.0;" x1="1563.5" x2="1563.5" y1="618.127" y2="852.3926"/><rect fill="#E2E2F0" height="32.6211" rx="2.5" ry="2.5" style="stroke:#181818;stroke-width:0.5;" width="75" x="5" y="5"/><text fill="#000000" font-family="sans-serif" font-size="14" lengthAdjust="spacing" textLength="61" x="12" y="27.1074">ByteCeps</text><rect fill="#E2E2F0" height="32.6211" rx="2.5" ry="2.5" style="stroke:#181818;stroke-width:0.5;" width="102" x="90" y="5"/><text fill="#000000" font-family="sans-serif" font-size="14" lengthAdjust="spacing" textLength="88" x="97" y="27.1074">:UserInterface</text><rect fill="#E2E2F0" height="32.6211" rx="2.5" ry="2.5" style="stroke:#181818;stroke-width:0.5;" width="68" x="551.5" y="5"/><text fill="#000000" font-family="sans-serif" font-size="14" lengthAdjust="spacing" textLength="54" x="558.5" y="27.1074">:Storage</text><rect fill="#E2E2F0" height="32.6211" rx="2.5" ry="2.5" style="stroke:#181818;stroke-width:0.5;" width="127" x="898.5" y="5"/><text fill="#000000" font-family="sans-serif" font-size="14" lengthAdjust="spacing" textLength="113" x="905.5" y="27.1074">:ExerciseManager</text><rect fill="#E2E2F0" height="32.6211" rx="2.5" ry="2.5" style="stroke:#181818;stroke-width:0.5;" width="127" x="1035.5" y="5"/><text fill="#000000" font-family="sans-serif" font-size="14" lengthAdjust="spacing" textLength="113" x="1042.5" y="27.1074">:WorkoutManager</text><rect fill="#E2E2F0" height="32.6211" rx="2.5" ry="2.5" style="stroke:#181818;stroke-width:0.5;" width="174" x="1172.5" y="5"/><text fill="#000000" font-family="sans-serif" font-size="14" lengthAdjust="spacing" textLength="160" x="1179.5" y="27.1074">:WeeklyProgramManager</text><rect fill="#E2E2F0" height="32.6211" rx="2.5" ry="2.5" style="stroke:#181818;stroke-width:0.5;" width="158" x="1356.5" y="5"/><text fill="#000000" font-family="sans-serif" font-size="14" lengthAdjust="spacing" textLength="144" x="1363.5" y="27.1074">:WorkoutLogsManager</text><rect fill="#FFFFFF" height="794.7715" style="stroke:#181818;stroke-width:1.0;" width="10" x="37.5" y="48.6211"/><rect fill="#FFFFFF" height="14" style="stroke:#181818;stroke-width:1.0;" width="10" x="136" y="806.3926"/><rect fill="#FFFFFF" height="762.4805" style="stroke:#181818;stroke-width:1.0;" width="10" x="580.5" y="71.9121"/><rect fill="#FFFFFF" height="33.6211" style="stroke:#181818;stroke-width:1.0;" width="10" x="800" y="113.2031"/><rect fill="#FFFFFF" height="14" style="stroke:#181818;stroke-width:1.0;" width="10" x="800" y="240.6973"/><rect fill="#FFFFFF" height="14" style="stroke:#181818;stroke-width:1.0;" width="10" x="800" y="348.5703"/><rect fill="#FFFFFF" height="14" style="stroke:#181818;stroke-width:1.0;" width="10" x="800" y="456.4434"/><rect fill="#FFFFFF" height="14" style="stroke:#181818;stroke-width:1.0;" width="10" x="800" y="564.3164"/><rect fill="#FFFFFF" height="31.291" style="stroke:#181818;stroke-width:1.0;" width="10" x="800" y="667.2285"/><rect fill="#FFFFFF" height="31.291" style="stroke:#181818;stroke-width:1.0;" width="10" x="957" y="178.1152"/><rect fill="#FFFFFF" height="31.291" style="stroke:#181818;stroke-width:1.0;" width="10" x="1094" y="285.9883"/><rect fill="#FFFFFF" height="31.291" style="stroke:#181818;stroke-width:1.0;" width="10" x="1254.5" y="393.8613"/><rect fill="#FFFFFF" height="31.291" style="stroke:#181818;stroke-width:1.0;" width="10" x="1430.5" y="501.7344"/><rect fill="#FFFFFF" height="16.3301" style="stroke:#181818;stroke-width:1.0;" width="10" x="1559" y="619.6074"/><rect fill="#FFFFFF" height="14" style="stroke:#181818;stroke-width:1.0;" width="10" x="1559" y="729.8105"/><polygon fill="#181818" points="568.5,67.9121,578.5,71.9121,568.5,75.9121" style="stroke:#181818;stroke-width:1.0;"/><line style="stroke:#181818;stroke-width:1.0;" x1="47.5" x2="574.5" y1="71.9121" y2="71.9121"/><text fill="#000000" font-family="sans-serif" font-size="13" lengthAdjust="spacing" textLength="514" x="54.5" y="66.6494">save(exerciseManager, workoutManager, weeklyProgramManager, workoutLogsManager)</text><polygon fill="#181818" points="709.5,99.2031,719.5,103.2031,709.5,107.2031" style="stroke:#181818;stroke-width:1.0;"/><line style="stroke:#181818;stroke-width:1.0;" x1="590.5" x2="715.5" y1="103.2031" y2="103.2031"/><text fill="#000000" font-family="sans-serif" font-size="13" lengthAdjust="spacing" textLength="107" x="597.5" y="97.9404">new JSONObject()</text><rect fill="#E2E2F0" height="32.6211" rx="2.5" ry="2.5" style="stroke:#181818;stroke-width:0.5;" width="167" x="721.5" y="79.9121"/><text fill="#000000" font-family="sans-serif" font-size="14" lengthAdjust="spacing" textLength="153" x="728.5" y="102.0195">jsonArchive:JSONObject</text><polygon fill="#181818" points="601.5,142.8242,591.5,146.8242,601.5,150.8242" style="stroke:#181818;stroke-width:1.0;"/><line style="stroke:#181818;stroke-width:1.0;stroke-dasharray:2.0,2.0;" x1="595.5" x2="804" y1="146.8242" y2="146.8242"/><text fill="#000000" font-family="sans-serif" font-size="13" lengthAdjust="spacing" textLength="66" x="607.5" y="141.5615">jsonArchive</text><polygon fill="#181818" points="945,174.1152,955,178.1152,945,182.1152" style="stroke:#181818;stroke-width:1.0;"/><line style="stroke:#181818;stroke-width:1.0;" x1="590.5" x2="951" y1="178.1152" y2="178.1152"/><text fill="#000000" font-family="sans-serif" font-size="13" lengthAdjust="spacing" textLength="143" x="597.5" y="172.8525">getActivityList().toArray()</text><polygon fill="#181818" points="601.5,205.4063,591.5,209.4063,601.5,213.4063" style="stroke:#181818;stroke-width:1.0;"/><line style="stroke:#181818;stroke-width:1.0;stroke-dasharray:2.0,2.0;" x1="595.5" x2="961" y1="209.4063" y2="209.4063"/><text fill="#000000" font-family="sans-serif" font-size="13" lengthAdjust="spacing" textLength="105" x="607.5" y="204.1436">exerciseList:Array</text><polygon fill="#181818" points="788,236.6973,798,240.6973,788,244.6973" style="stroke:#181818;stroke-width:1.0;"/><line style="stroke:#181818;stroke-width:1.0;" x1="590.5" x2="794" y1="240.6973" y2="240.6973"/><text fill="#000000" font-family="sans-serif" font-size="13" lengthAdjust="spacing" textLength="96" x="597.5" y="235.4346">put(exerciseList)</text><polygon fill="#181818" points="601.5,250.6973,591.5,254.6973,601.5,258.6973" style="stroke:#181818;stroke-width:1.0;"/><line style="stroke:#181818;stroke-width:1.0;stroke-dasharray:2.0,2.0;" x1="595.5" x2="804" y1="254.6973" y2="254.6973"/><polygon fill="#181818" points="1082,281.9883,1092,285.9883,1082,289.9883" style="stroke:#181818;stroke-width:1.0;"/><line style="stroke:#181818;stroke-width:1.0;" x1="590.5" x2="1088" y1="285.9883" y2="285.9883"/><text fill="#000000" font-family="sans-serif" font-size="13" lengthAdjust="spacing" textLength="143" x="597.5" y="280.7256">getActivityList().toArray()</text><polygon fill="#181818" points="601.5,313.2793,591.5,317.2793,601.5,321.2793" style="stroke:#181818;stroke-width:1.0;"/><line style="stroke:#181818;stroke-width:1.0;stroke-dasharray:2.0,2.0;" x1="595.5" x2="1098" y1="317.2793" y2="317.2793"/><text fill="#000000" font-family="sans-serif" font-size="13" lengthAdjust="spacing" textLength="101" x="607.5" y="312.0166">workoutList:Array</text><polygon fill="#181818" points="788,344.5703,798,348.5703,788,352.5703" style="stroke:#181818;stroke-width:1.0;"/><line style="stroke:#181818;stroke-width:1.0;" x1="590.5" x2="794" y1="348.5703" y2="348.5703"/><text fill="#000000" font-family="sans-serif" font-size="13" lengthAdjust="spacing" textLength="92" x="597.5" y="343.3076">put(workoutList)</text><polygon fill="#181818" points="601.5,358.5703,591.5,362.5703,601.5,366.5703" style="stroke:#181818;stroke-width:1.0;"/><line style="stroke:#181818;stroke-width:1.0;stroke-dasharray:2.0,2.0;" x1="595.5" x2="804" y1="362.5703" y2="362.5703"/><polygon fill="#181818" points="1242.5,389.8613,1252.5,393.8613,1242.5,397.8613" style="stroke:#181818;stroke-width:1.0;"/><line style="stroke:#181818;stroke-width:1.0;" x1="590.5" x2="1248.5" y1="393.8613" y2="393.8613"/><text fill="#000000" font-family="sans-serif" font-size="13" lengthAdjust="spacing" textLength="92" x="597.5" y="388.5986">exportToJSON()</text><polygon fill="#181818" points="601.5,421.1523,591.5,425.1523,601.5,429.1523" style="stroke:#181818;stroke-width:1.0;"/><line style="stroke:#181818;stroke-width:1.0;stroke-dasharray:2.0,2.0;" x1="595.5" x2="1258.5" y1="425.1523" y2="425.1523"/><text fill="#000000" font-family="sans-serif" font-size="13" lengthAdjust="spacing" textLength="165" x="607.5" y="419.8896">weeklyProgram:JSONObject</text><polygon fill="#181818" points="788,452.4434,798,456.4434,788,460.4434" style="stroke:#181818;stroke-width:1.0;"/><line style="stroke:#181818;stroke-width:1.0;" x1="590.5" x2="794" y1="456.4434" y2="456.4434"/><text fill="#000000" font-family="sans-serif" font-size="13" lengthAdjust="spacing" textLength="115" x="597.5" y="451.1807">put(weeklyProgram)</text><polygon fill="#181818" points="601.5,466.4434,591.5,470.4434,601.5,474.4434" style="stroke:#181818;stroke-width:1.0;"/><line style="stroke:#181818;stroke-width:1.0;stroke-dasharray:2.0,2.0;" x1="595.5" x2="804" y1="470.4434" y2="470.4434"/><polygon fill="#181818" points="1418.5,497.7344,1428.5,501.7344,1418.5,505.7344" style="stroke:#181818;stroke-width:1.0;"/><line style="stroke:#181818;stroke-width:1.0;" x1="590.5" x2="1424.5" y1="501.7344" y2="501.7344"/><text fill="#000000" font-family="sans-serif" font-size="13" lengthAdjust="spacing" textLength="92" x="597.5" y="496.4717">exportToJSON()</text><polygon fill="#181818" points="601.5,529.0254,591.5,533.0254,601.5,537.0254" style="stroke:#181818;stroke-width:1.0;"/><line style="stroke:#181818;stroke-width:1.0;stroke-dasharray:2.0,2.0;" x1="595.5" x2="1434.5" y1="533.0254" y2="533.0254"/><text fill="#000000" font-family="sans-serif" font-size="13" lengthAdjust="spacing" textLength="149" x="607.5" y="527.7627">workoutLogs:JSONObject</text><polygon fill="#181818" points="788,560.3164,798,564.3164,788,568.3164" style="stroke:#181818;stroke-width:1.0;"/><line style="stroke:#181818;stroke-width:1.0;" x1="590.5" x2="794" y1="564.3164" y2="564.3164"/><text fill="#000000" font-family="sans-serif" font-size="13" lengthAdjust="spacing" textLength="99" x="597.5" y="559.0537">put(workoutLogs)</text><polygon fill="#181818" points="601.5,574.3164,591.5,578.3164,601.5,582.3164" style="stroke:#181818;stroke-width:1.0;"/><line style="stroke:#181818;stroke-width:1.0;stroke-dasharray:2.0,2.0;" x1="595.5" x2="804" y1="578.3164" y2="578.3164"/><polygon fill="#181818" points="1512.5,605.6074,1522.5,609.6074,1512.5,613.6074" style="stroke:#181818;stroke-width:1.0;"/><line style="stroke:#181818;stroke-width:1.0;" x1="590.5" x2="1518.5" y1="609.6074" y2="609.6074"/><text fill="#000000" font-family="sans-serif" font-size="13" lengthAdjust="spacing" textLength="134" x="597.5" y="604.3447">new FileWriter(filePath)</text><rect fill="#E2E2F0" height="32.6211" rx="2.5" ry="2.5" style="stroke:#181818;stroke-width:0.5;" width="79" x="1524.5" y="586.3164"/><text fill="#000000" font-family="sans-serif" font-size="14" lengthAdjust="spacing" textLength="65" x="1531.5" y="608.4238">:FileWriter</text><polygon fill="#181818" points="601.5,631.9375,591.5,635.9375,601.5,639.9375" style="stroke:#181818;stroke-width:1.0;"/><line style="stroke:#181818;stroke-width:1.0;stroke-dasharray:2.0,2.0;" x1="595.5" x2="1563" y1="635.9375" y2="635.9375"/><polygon fill="#181818" points="788,663.2285,798,667.2285,788,671.2285" style="stroke:#181818;stroke-width:1.0;"/><line style="stroke:#181818;stroke-width:1.0;" x1="590.5" x2="794" y1="667.2285" y2="667.2285"/><text fill="#000000" font-family="sans-serif" font-size="13" lengthAdjust="spacing" textLength="53" x="597.5" y="661.9658">toString()</text><polygon fill="#181818" points="601.5,694.5195,591.5,698.5195,601.5,702.5195" style="stroke:#181818;stroke-width:1.0;"/><line style="stroke:#181818;stroke-width:1.0;stroke-dasharray:2.0,2.0;" x1="595.5" x2="804" y1="698.5195" y2="698.5195"/><text fill="#000000" font-family="sans-serif" font-size="13" lengthAdjust="spacing" textLength="74" x="607.5" y="693.2568">archiveString</text><polygon fill="#181818" points="1547,725.8105,1557,729.8105,1547,733.8105" style="stroke:#181818;stroke-width:1.0;"/><line style="stroke:#181818;stroke-width:1.0;" x1="590.5" x2="1553" y1="729.8105" y2="729.8105"/><text fill="#000000" font-family="sans-serif" font-size="13" lengthAdjust="spacing" textLength="109" x="597.5" y="724.5479">write(archiveString)</text><polygon fill="#181818" points="601.5,739.8105,591.5,743.8105,601.5,747.8105" style="stroke:#181818;stroke-width:1.0;"/><line style="stroke:#181818;stroke-width:1.0;stroke-dasharray:2.0,2.0;" x1="595.5" x2="1563" y1="743.8105" y2="743.8105"/><polygon fill="#181818" points="1552,771.1016,1562,775.1016,1552,779.1016" style="stroke:#181818;stroke-width:1.0;"/><line style="stroke:#181818;stroke-width:1.0;" x1="590.5" x2="1558" y1="775.1016" y2="775.1016"/><text fill="#000000" font-family="sans-serif" font-size="13" lengthAdjust="spacing" textLength="39" x="597.5" y="769.8389">close()</text><line style="stroke:#A80036;stroke-width:2.0;" x1="1555" x2="1573" y1="766.1016" y2="784.1016"/><line style="stroke:#A80036;stroke-width:2.0;" x1="1555" x2="1573" y1="784.1016" y2="766.1016"/><polygon fill="#181818" points="157,802.3926,147,806.3926,157,810.3926" style="stroke:#181818;stroke-width:1.0;"/><line style="stroke:#181818;stroke-width:1.0;" x1="151" x2="579.5" y1="806.3926" y2="806.3926"/><text fill="#000000" font-family="sans-serif" font-size="13" lengthAdjust="spacing" textLength="214" x="163" y="801.1299">printMessage(WORKOUTS_SAVED)</text><polygon fill="#181818" points="568.5,816.3926,578.5,820.3926,568.5,824.3926" style="stroke:#181818;stroke-width:1.0;"/><line style="stroke:#181818;stroke-width:1.0;stroke-dasharray:2.0,2.0;" x1="141" x2="574.5" y1="820.3926" y2="820.3926"/><polygon fill="#181818" points="58.5,830.3926,48.5,834.3926,58.5,838.3926" style="stroke:#181818;stroke-width:1.0;"/><line style="stroke:#181818;stroke-width:1.0;stroke-dasharray:2.0,2.0;" x1="52.5" x2="584.5" y1="834.3926" y2="834.3926"/><!--SRC=[jLR1Rjim3BtxAuISF60TTlPXGBPrGBTsAUPsEHQgohfgNCkGc6JUru-suvZIv2m1rXmSYUQZ7fyecMwbgrfQ-I9KAPsR8rfzlqQuKARAzMyGxnEtTt7Ob41FgnMkNyea8JDgfMjPeVZO87o2sdd6MNRhm5vK2FPHAfW9wOHd2RnpD5OMlTzkdD1FAjGRYJ0kCWp4sOV1KMJ2oGsay0kiqWwkP4LM-rPiZLsPDOvpW5NPN5jJK5AXrwKftCxsPbntpqLPQEUpPsUgkLLFUWFPrtpnVN7_30extknLCb0ZbinCJ2lOYX6NigKud6FEl4ovrmD4mO6qvxui7TN05Y2MdcuTm3U5_X5TUrJaHNmjfZvVZvaJhcd0dtGf0EUj61gRI-r8s7TevjRAXaiSfXs6yQKUwgcDbtMnkE9XhEajhzUOybYdxldaFhCL_VqvLezWLuCWlXh3COcA4GGwh0MBz2fIH8gksytQMBmnxU7pD8ZLQ3H6e0TtOLU19qiizZ_4uP1Nh1HsiWw9y_SnZE3ZXK8EKx8SFjpJ5KE0_oR9SA5dNtG9IwjnT_ECKyvfjFPN-3XF7sbuBV69CMCnnY7dvT5YtjCoeCdfyriLftynP6_juSTK2Czrs_wdNeXJyXJ79CgW6NKZnW4b-G3KRfXc2kFr4csL43Ey0kVeVRfS_FYskBt9x_Bvp_FFZA_VWVWn9bdxe944-U-R4Gymz0n_0000]--></g></svg>