<?xml version="1.0" encoding="us-ascii" standalone="no"?><svg xmlns="http://www.w3.org/2000/svg" xmlns:xlink="http://www.w3.org/1999/xlink" contentStyleType="text/css" height="599px" preserveAspectRatio="none" style="width:954px;height:599px;background:#FFFFFF;" version="1.1" viewBox="0 0 954 599" width="954px" zoomAndPan="magnify"><defs/><g><rect fill="#FFFFFF" height="535.1523" style="stroke:#181818;stroke-width:1.0;" width="10" x="87" y="48.6211"/><rect fill="#FFFFFF" height="487.8613" style="stroke:#181818;stroke-width:1.0;" width="10" x="92" y="79.9121"/><rect fill="#FFFFFF" height="160.2031" style="stroke:#181818;stroke-width:1.0;" width="10" x="524" y="116.2031"/><rect fill="#FFFFFF" height="25" style="stroke:#181818;stroke-width:1.0;" width="10" x="529" y="230.4063"/><rect fill="#FFFFFF" height="222.7852" style="stroke:#181818;stroke-width:1.0;" width="10" x="524" y="307.6973"/><rect fill="#FFFFFF" height="42.291" style="stroke:#181818;stroke-width:1.0;" width="10" x="529" y="421.9004"/><rect fill="#FFFFFF" height="33.6211" style="stroke:#181818;stroke-width:1.0;" width="10" x="790.5" y="157.4941"/><rect fill="#FFFFFF" height="14" style="stroke:#181818;stroke-width:1.0;" width="10" x="790.5" y="502.4824"/><rect fill="#FFFFFF" height="33.6211" style="stroke:#181818;stroke-width:1.0;" width="10" x="895.5" y="348.9883"/><line style="stroke:#181818;stroke-width:0.5;stroke-dasharray:5.0,5.0;" x1="92" x2="92" y1="38.6211" y2="592.7734"/><line style="stroke:#181818;stroke-width:0.5;stroke-dasharray:5.0,5.0;" x1="529" x2="529" y1="38.6211" y2="592.7734"/><line style="stroke:#181818;stroke-width:0.5;stroke-dasharray:5.0,5.0;" x1="795" x2="795" y1="156.0137" y2="592.7734"/><line style="stroke:#181818;stroke-width:0.5;stroke-dasharray:5.0,5.0;" x1="900" x2="900" y1="347.5078" y2="592.7734"/><rect fill="#E2E2F0" height="32.6211" rx="2.5" ry="2.5" style="stroke:#181818;stroke-width:0.5;" width="174" x="5" y="5"/><text fill="#000000" font-family="sans-serif" font-size="14" lengthAdjust="spacing" textLength="160" x="12" y="27.1074">:WeeklyProgramManager</text><rect fill="#E2E2F0" height="32.6211" rx="2.5" ry="2.5" style="stroke:#181818;stroke-width:0.5;" width="158" x="450" y="5"/><text fill="#000000" font-family="sans-serif" font-size="14" lengthAdjust="spacing" textLength="144" x="457" y="27.1074">:WorkoutLogsManager</text><rect fill="#FFFFFF" height="535.1523" style="stroke:#181818;stroke-width:1.0;" width="10" x="87" y="48.6211"/><rect fill="#FFFFFF" height="487.8613" style="stroke:#181818;stroke-width:1.0;" width="10" x="92" y="79.9121"/><rect fill="#FFFFFF" height="160.2031" style="stroke:#181818;stroke-width:1.0;" width="10" x="524" y="116.2031"/><rect fill="#FFFFFF" height="25" style="stroke:#181818;stroke-width:1.0;" width="10" x="529" y="230.4063"/><rect fill="#FFFFFF" height="222.7852" style="stroke:#181818;stroke-width:1.0;" width="10" x="524" y="307.6973"/><rect fill="#FFFFFF" height="42.291" style="stroke:#181818;stroke-width:1.0;" width="10" x="529" y="421.9004"/><rect fill="#FFFFFF" height="33.6211" style="stroke:#181818;stroke-width:1.0;" width="10" x="790.5" y="157.4941"/><rect fill="#FFFFFF" height="14" style="stroke:#181818;stroke-width:1.0;" width="10" x="790.5" y="502.4824"/><rect fill="#FFFFFF" height="33.6211" style="stroke:#181818;stroke-width:1.0;" width="10" x="895.5" y="348.9883"/><line style="stroke:#181818;stroke-width:1.0;" x1="97" x2="144" y1="66.9121" y2="66.9121"/><line style="stroke:#181818;stroke-width:1.0;" x1="144" x2="144" y1="66.9121" y2="79.9121"/><line style="stroke:#181818;stroke-width:1.0;" x1="103" x2="144" y1="79.9121" y2="79.9121"/><polygon fill="#181818" points="113,75.9121,103,79.9121,113,83.9121" style="stroke:#181818;stroke-width:1.0;"/><text fill="#000000" font-family="sans-serif" font-size="13" lengthAdjust="spacing" textLength="104" x="109" y="61.6494">executeLogAction</text><polygon fill="#181818" points="512,112.2031,522,116.2031,512,120.2031" style="stroke:#181818;stroke-width:1.0;"/><line style="stroke:#181818;stroke-width:1.0;" x1="102" x2="518" y1="116.2031" y2="116.2031"/><text fill="#000000" font-family="sans-serif" font-size="13" lengthAdjust="spacing" textLength="258" x="109" y="110.9404">addWorkoutLog(workoutDate, workoutName)</text><polygon fill="#181818" points="736,143.4941,746,147.4941,736,151.4941" style="stroke:#181818;stroke-width:1.0;"/><line style="stroke:#181818;stroke-width:1.0;" x1="534" x2="742" y1="147.4941" y2="147.4941"/><text fill="#000000" font-family="sans-serif" font-size="13" lengthAdjust="spacing" textLength="190" x="541" y="142.2314">new(workoutDate, workoutName)</text><rect fill="#E2E2F0" height="32.6211" rx="2.5" ry="2.5" style="stroke:#181818;stroke-width:0.5;" width="95" x="748" y="124.2031"/><text fill="#000000" font-family="sans-serif" font-size="14" lengthAdjust="spacing" textLength="81" x="755" y="146.3105">:WorkoutLog</text><polygon fill="#181818" points="545,187.1152,535,191.1152,545,195.1152" style="stroke:#181818;stroke-width:1.0;"/><line style="stroke:#181818;stroke-width:1.0;stroke-dasharray:2.0,2.0;" x1="539" x2="794.5" y1="191.1152" y2="191.1152"/><text fill="#000000" font-family="sans-serif" font-size="13" lengthAdjust="spacing" textLength="130" x="551" y="185.8525">return newWorkoutLog</text><line style="stroke:#181818;stroke-width:1.0;" x1="534" x2="581" y1="217.4063" y2="217.4063"/><line style="stroke:#181818;stroke-width:1.0;" x1="581" x2="581" y1="217.4063" y2="230.4063"/><line style="stroke:#181818;stroke-width:1.0;" x1="540" x2="581" y1="230.4063" y2="230.4063"/><polygon fill="#181818" points="550,226.4063,540,230.4063,550,234.4063" style="stroke:#181818;stroke-width:1.0;"/><text fill="#000000" font-family="sans-serif" font-size="13" lengthAdjust="spacing" textLength="122" x="546" y="212.1436">add(newWorkoutLog)</text><line style="stroke:#181818;stroke-width:1.0;stroke-dasharray:2.0,2.0;" x1="539" x2="581" y1="254.4063" y2="254.4063"/><line style="stroke:#181818;stroke-width:1.0;stroke-dasharray:2.0,2.0;" x1="581" x2="581" y1="254.4063" y2="267.4063"/><line style="stroke:#181818;stroke-width:1.0;stroke-dasharray:2.0,2.0;" x1="534" x2="581" y1="267.4063" y2="267.4063"/><polygon fill="#181818" points="544,263.4063,534,267.4063,544,271.4063" style="stroke:#181818;stroke-width:1.0;"/><polygon fill="#181818" points="113,272.4063,103,276.4063,113,280.4063" style="stroke:#181818;stroke-width:1.0;"/><line style="stroke:#181818;stroke-width:1.0;stroke-dasharray:2.0,2.0;" x1="107" x2="528" y1="276.4063" y2="276.4063"/><polygon fill="#181818" points="512,303.6973,522,307.6973,512,311.6973" style="stroke:#181818;stroke-width:1.0;"/><line style="stroke:#181818;stroke-width:1.0;" x1="102" x2="518" y1="307.6973" y2="307.6973"/><text fill="#000000" font-family="sans-serif" font-size="13" lengthAdjust="spacing" textLength="403" x="109" y="302.4346">addExerciseLog(workoutDate, exerciseName, weight, sets, repetition)</text><polygon fill="#181818" points="841,334.9883,851,338.9883,841,342.9883" style="stroke:#181818;stroke-width:1.0;"/><line style="stroke:#181818;stroke-width:1.0;" x1="534" x2="847" y1="338.9883" y2="338.9883"/><text fill="#000000" font-family="sans-serif" font-size="13" lengthAdjust="spacing" textLength="288" x="541" y="333.7256">new(exerciseName, weightsList, setsInt, repsList)</text><rect fill="#E2E2F0" height="32.6211" rx="2.5" ry="2.5" style="stroke:#181818;stroke-width:0.5;" width="95" x="853" y="315.6973"/><text fill="#000000" font-family="sans-serif" font-size="14" lengthAdjust="spacing" textLength="81" x="860" y="337.8047">:ExerciseLog</text><polygon fill="#181818" points="545,378.6094,535,382.6094,545,386.6094" style="stroke:#181818;stroke-width:1.0;"/><line style="stroke:#181818;stroke-width:1.0;stroke-dasharray:2.0,2.0;" x1="539" x2="899.5" y1="382.6094" y2="382.6094"/><text fill="#000000" font-family="sans-serif" font-size="13" lengthAdjust="spacing" textLength="132" x="551" y="377.3467">return newExerciseLog</text><line style="stroke:#181818;stroke-width:1.0;" x1="534" x2="581" y1="408.9004" y2="408.9004"/><line style="stroke:#181818;stroke-width:1.0;" x1="581" x2="581" y1="408.9004" y2="421.9004"/><line style="stroke:#181818;stroke-width:1.0;" x1="540" x2="581" y1="421.9004" y2="421.9004"/><polygon fill="#181818" points="550,417.9004,540,421.9004,550,425.9004" style="stroke:#181818;stroke-width:1.0;"/><text fill="#000000" font-family="sans-serif" font-size="13" lengthAdjust="spacing" textLength="142" x="546" y="403.6377">retrieve(workoutLogDate)</text><line style="stroke:#181818;stroke-width:1.0;stroke-dasharray:2.0,2.0;" x1="539" x2="581" y1="463.1914" y2="463.1914"/><line style="stroke:#181818;stroke-width:1.0;stroke-dasharray:2.0,2.0;" x1="581" x2="581" y1="463.1914" y2="476.1914"/><line style="stroke:#181818;stroke-width:1.0;stroke-dasharray:2.0,2.0;" x1="534" x2="581" y1="476.1914" y2="476.1914"/><polygon fill="#181818" points="544,472.1914,534,476.1914,544,480.1914" style="stroke:#181818;stroke-width:1.0;"/><text fill="#000000" font-family="sans-serif" font-size="13" lengthAdjust="spacing" textLength="66" x="546" y="457.9287">workoutLog</text><polygon fill="#181818" points="778.5,498.4824,788.5,502.4824,778.5,506.4824" style="stroke:#181818;stroke-width:1.0;"/><line style="stroke:#181818;stroke-width:1.0;" x1="534" x2="784.5" y1="502.4824" y2="502.4824"/><text fill="#000000" font-family="sans-serif" font-size="13" lengthAdjust="spacing" textLength="196" x="541" y="497.2197">addExerciseLog(newExerciseLog)</text><polygon fill="#181818" points="545,512.4824,535,516.4824,545,520.4824" style="stroke:#181818;stroke-width:1.0;"/><line style="stroke:#181818;stroke-width:1.0;stroke-dasharray:2.0,2.0;" x1="539" x2="794.5" y1="516.4824" y2="516.4824"/><polygon fill="#181818" points="113,526.4824,103,530.4824,113,534.4824" style="stroke:#181818;stroke-width:1.0;"/><line style="stroke:#181818;stroke-width:1.0;stroke-dasharray:2.0,2.0;" x1="107" x2="528" y1="530.4824" y2="530.4824"/><line style="stroke:#181818;stroke-width:1.0;stroke-dasharray:2.0,2.0;" x1="102" x2="144" y1="566.7734" y2="566.7734"/><line style="stroke:#181818;stroke-width:1.0;stroke-dasharray:2.0,2.0;" x1="144" x2="144" y1="566.7734" y2="579.7734"/><line style="stroke:#181818;stroke-width:1.0;stroke-dasharray:2.0,2.0;" x1="97" x2="144" y1="579.7734" y2="579.7734"/><polygon fill="#181818" points="107,575.7734,97,579.7734,107,583.7734" style="stroke:#181818;stroke-width:1.0;"/><text fill="#000000" font-family="sans-serif" font-size="13" lengthAdjust="spacing" textLength="94" x="109" y="561.5107">messageToUser</text><!--SRC=[jLHDQyCm3BtdLvYUEcXXvnm6XUrGwCPW6pjxhiXC4pjOIZ_swwTawUgwSKYxDOTWMV9xpzQpSQLDAPqiXCebuep8wO-AOAwiUT5V86uJ_2r1skN0VwSLLKMU93nDMkbI6XAZz1rWbU-UdSsu-54QcO4R9ObKfDUI85eX-8lanFGkcae5R46nreNDPinXJOFq3tJMhMn538iUcLmk3udnvcTupqGJqGPFie2R4msdO4s9SX0MZ8H4SGZtGZlKiCp3D6ipi1cgAC3tOAOzctT0bJCrJx1-2J7agFAU0nuV4Gm-omXLZ2iKVY5mr5n3eIzmuCCMdD889nQ4Db5tdDiFElkaYK0Wd73pIY1TNv3ptUaHDlRqulukUuMjGRiaua9ZgtDkg97QJ0L2GrOVV9XjGmIlHuEtrCFYDAnXtn5ErqsvbdrJiOdUmRD9WeSaiDZnmVtz9RdioRZgTOk3fw80H1w-sZS4ry7LjUeR]--></g></svg>