<?xml version="1.0" encoding="us-ascii" standalone="no"?><svg xmlns="http://www.w3.org/2000/svg" xmlns:xlink="http://www.w3.org/1999/xlink" contentStyleType="text/css" height="721.5px" preserveAspectRatio="none" style="width:1246px;height:721px;background:#FFFFFF;" version="1.1" viewBox="0 0 1246 721" width="1246.7px" zoomAndPan="magnify"><defs/><g><rect fill="#FFFFFF" height="638.1197" style="stroke:#181818;stroke-width:1.3;" width="13" x="113.1" y="63.2074"/><rect fill="#FFFFFF" height="597.4414" style="stroke:#181818;stroke-width:1.3;" width="13" x="119.6" y="103.8857"/><rect fill="#FFFFFF" height="638.1197" style="stroke:#181818;stroke-width:1.3;" width="13" x="687.7" y="63.2074"/><rect fill="#FFFFFF" height="32.5" style="stroke:#181818;stroke-width:1.3;" width="13" x="694.2" y="299.5281"/><rect fill="#FFFFFF" height="54.9783" style="stroke:#181818;stroke-width:1.3;" width="13" x="694.2" y="548.4705"/><rect fill="#FFFFFF" height="43.7074" style="stroke:#181818;stroke-width:1.3;" width="13" x="1034.15" y="204.7424"/><rect fill="#FFFFFF" height="18.2" style="stroke:#181818;stroke-width:1.3;" width="13" x="1034.15" y="653.2271"/><rect fill="#FFFFFF" height="43.7074" style="stroke:#181818;stroke-width:1.3;" width="13" x="1170.65" y="453.6848"/><line style="stroke:#181818;stroke-width:0.65;stroke-dasharray:5.0,5.0;" x1="119.6" x2="119.6" y1="50.2074" y2="713.0271"/><line style="stroke:#181818;stroke-width:0.65;stroke-dasharray:5.0,5.0;" x1="694.2" x2="694.2" y1="50.2074" y2="713.0271"/><line style="stroke:#181818;stroke-width:0.65;stroke-dasharray:5.0,5.0;" x1="1040" x2="1040" y1="202.8178" y2="713.0271"/><line style="stroke:#181818;stroke-width:0.65;stroke-dasharray:5.0,5.0;" x1="1176.5" x2="1176.5" y1="451.7602" y2="713.0271"/><rect fill="#E2E2F0" height="42.4074" rx="3.25" ry="3.25" style="stroke:#181818;stroke-width:0.65;" width="226.2" x="6.5" y="6.5"/><text fill="#000000" font-family="sans-serif" font-size="18.2" lengthAdjust="spacing" textLength="208" x="15.6" y="35.2396">:WeeklyProgramManager</text><rect fill="#E2E2F0" height="42.4074" rx="3.25" ry="3.25" style="stroke:#181818;stroke-width:0.65;" width="205.4" x="591.5" y="6.5"/><text fill="#000000" font-family="sans-serif" font-size="18.2" lengthAdjust="spacing" textLength="187.2" x="600.6" y="35.2396">:WorkoutLogsManager</text><rect fill="#FFFFFF" height="638.1197" style="stroke:#181818;stroke-width:1.3;" width="13" x="113.1" y="63.2074"/><rect fill="#FFFFFF" height="597.4414" style="stroke:#181818;stroke-width:1.3;" width="13" x="119.6" y="103.8857"/><rect fill="#FFFFFF" height="638.1197" style="stroke:#181818;stroke-width:1.3;" width="13" x="687.7" y="63.2074"/><rect fill="#FFFFFF" height="32.5" style="stroke:#181818;stroke-width:1.3;" width="13" x="694.2" y="299.5281"/><rect fill="#FFFFFF" height="54.9783" style="stroke:#181818;stroke-width:1.3;" width="13" x="694.2" y="548.4705"/><rect fill="#FFFFFF" height="43.7074" style="stroke:#181818;stroke-width:1.3;" width="13" x="1034.15" y="204.7424"/><rect fill="#FFFFFF" height="18.2" style="stroke:#181818;stroke-width:1.3;" width="13" x="1034.15" y="653.2271"/><rect fill="#FFFFFF" height="43.7074" style="stroke:#181818;stroke-width:1.3;" width="13" x="1170.65" y="453.6848"/><line style="stroke:#181818;stroke-width:1.3;" x1="126.1" x2="187.2" y1="86.9857" y2="86.9857"/><line style="stroke:#181818;stroke-width:1.3;" x1="187.2" x2="187.2" y1="86.9857" y2="103.8857"/><line style="stroke:#181818;stroke-width:1.3;" x1="133.9" x2="187.2" y1="103.8857" y2="103.8857"/><polygon fill="#181818" points="146.9,98.6857,133.9,103.8857,146.9,109.0857" style="stroke:#181818;stroke-width:1.3;"/><text fill="#000000" font-family="sans-serif" font-size="16.9" lengthAdjust="spacing" textLength="135.2" x="141.7" y="80.1442">executeLogAction</text><polygon fill="#181818" points="672.1,145.8641,685.1,151.0641,672.1,156.2641" style="stroke:#181818;stroke-width:1.3;"/><line style="stroke:#181818;stroke-width:1.3;" x1="132.6" x2="679.9" y1="151.0641" y2="151.0641"/><text fill="#000000" font-family="sans-serif" font-size="16.9" lengthAdjust="spacing" textLength="335.4" x="141.7" y="144.2226">addWorkoutLog(workoutDate, workoutName)</text><polygon fill="#181818" points="963.3,186.5424,976.3,191.7424,963.3,196.9424" style="stroke:#181818;stroke-width:1.3;"/><line style="stroke:#181818;stroke-width:1.3;" x1="700.7" x2="971.1" y1="191.7424" y2="191.7424"/><text fill="#000000" font-family="sans-serif" font-size="16.9" lengthAdjust="spacing" textLength="247" x="709.8" y="184.9009">new(workoutDate, workoutName)</text><rect fill="#E2E2F0" height="42.4074" rx="3.25" ry="3.25" style="stroke:#181818;stroke-width:0.65;" width="123.5" x="978.9" y="161.4641"/><text fill="#000000" font-family="sans-serif" font-size="18.2" lengthAdjust="spacing" textLength="105.3" x="988" y="190.2037">:WorkoutLog</text><polygon fill="#181818" points="715,243.2498,702,248.4498,715,253.6498" style="stroke:#181818;stroke-width:1.3;"/><line style="stroke:#181818;stroke-width:1.3;stroke-dasharray:2.0,2.0;" x1="707.2" x2="1039.35" y1="248.4498" y2="248.4498"/><text fill="#000000" font-family="sans-serif" font-size="16.9" lengthAdjust="spacing" textLength="169" x="722.8" y="241.6083">return newWorkoutLog</text><line style="stroke:#181818;stroke-width:1.3;" x1="700.7" x2="761.8" y1="282.6281" y2="282.6281"/><line style="stroke:#181818;stroke-width:1.3;" x1="761.8" x2="761.8" y1="282.6281" y2="299.5281"/><line style="stroke:#181818;stroke-width:1.3;" x1="708.5" x2="761.8" y1="299.5281" y2="299.5281"/><polygon fill="#181818" points="721.5,294.3281,708.5,299.5281,721.5,304.7281" style="stroke:#181818;stroke-width:1.3;"/><text fill="#000000" font-family="sans-serif" font-size="16.9" lengthAdjust="spacing" textLength="158.6" x="716.3" y="275.7866">add(newWorkoutLog)</text><line style="stroke:#181818;stroke-width:1.3;stroke-dasharray:2.0,2.0;" x1="707.2" x2="761.8" y1="330.7281" y2="330.7281"/><line style="stroke:#181818;stroke-width:1.3;stroke-dasharray:2.0,2.0;" x1="761.8" x2="761.8" y1="330.7281" y2="347.6281"/><line style="stroke:#181818;stroke-width:1.3;stroke-dasharray:2.0,2.0;" x1="700.7" x2="761.8" y1="347.6281" y2="347.6281"/><polygon fill="#181818" points="713.7,342.4281,700.7,347.6281,713.7,352.8281" style="stroke:#181818;stroke-width:1.3;"/><polygon fill="#181818" points="146.9,354.1281,133.9,359.3281,146.9,364.5281" style="stroke:#181818;stroke-width:1.3;"/><line style="stroke:#181818;stroke-width:1.3;stroke-dasharray:2.0,2.0;" x1="139.1" x2="686.4" y1="359.3281" y2="359.3281"/><polygon fill="#181818" points="672.1,394.8064,685.1,400.0064,672.1,405.2064" style="stroke:#181818;stroke-width:1.3;"/><line style="stroke:#181818;stroke-width:1.3;" x1="132.6" x2="679.9" y1="400.0064" y2="400.0064"/><text fill="#000000" font-family="sans-serif" font-size="16.9" lengthAdjust="spacing" textLength="523.9" x="141.7" y="393.1649">addExerciseLog(workoutDate, exerciseName, weight, sets, repetition)</text><polygon fill="#181818" points="1099.8,435.4848,1112.8,440.6848,1099.8,445.8848" style="stroke:#181818;stroke-width:1.3;"/><line style="stroke:#181818;stroke-width:1.3;" x1="700.7" x2="1107.6" y1="440.6848" y2="440.6848"/><text fill="#000000" font-family="sans-serif" font-size="16.9" lengthAdjust="spacing" textLength="374.4" x="709.8" y="433.8433">new(exerciseName, weightsList, setsInt, repsList)</text><rect fill="#E2E2F0" height="42.4074" rx="3.25" ry="3.25" style="stroke:#181818;stroke-width:0.65;" width="123.5" x="1115.4" y="410.4064"/><text fill="#000000" font-family="sans-serif" font-size="18.2" lengthAdjust="spacing" textLength="105.3" x="1124.5" y="439.1461">:ExerciseLog</text><polygon fill="#181818" points="715,492.1922,702,497.3922,715,502.5922" style="stroke:#181818;stroke-width:1.3;"/><line style="stroke:#181818;stroke-width:1.3;stroke-dasharray:2.0,2.0;" x1="707.2" x2="1175.85" y1="497.3922" y2="497.3922"/><text fill="#000000" font-family="sans-serif" font-size="16.9" lengthAdjust="spacing" textLength="171.6" x="722.8" y="490.5507">return newExerciseLog</text><line style="stroke:#181818;stroke-width:1.3;" x1="700.7" x2="761.8" y1="531.5705" y2="531.5705"/><line style="stroke:#181818;stroke-width:1.3;" x1="761.8" x2="761.8" y1="531.5705" y2="548.4705"/><line style="stroke:#181818;stroke-width:1.3;" x1="708.5" x2="761.8" y1="548.4705" y2="548.4705"/><polygon fill="#181818" points="721.5,543.2705,708.5,548.4705,721.5,553.6705" style="stroke:#181818;stroke-width:1.3;"/><text fill="#000000" font-family="sans-serif" font-size="16.9" lengthAdjust="spacing" textLength="184.6" x="716.3" y="524.729">retrieve(workoutLogDate)</text><line style="stroke:#181818;stroke-width:1.3;stroke-dasharray:2.0,2.0;" x1="707.2" x2="761.8" y1="602.1488" y2="602.1488"/><line style="stroke:#181818;stroke-width:1.3;stroke-dasharray:2.0,2.0;" x1="761.8" x2="761.8" y1="602.1488" y2="619.0488"/><line style="stroke:#181818;stroke-width:1.3;stroke-dasharray:2.0,2.0;" x1="700.7" x2="761.8" y1="619.0488" y2="619.0488"/><polygon fill="#181818" points="713.7,613.8488,700.7,619.0488,713.7,624.2488" style="stroke:#181818;stroke-width:1.3;"/><text fill="#000000" font-family="sans-serif" font-size="16.9" lengthAdjust="spacing" textLength="85.8" x="716.3" y="595.3073">workoutLog</text><polygon fill="#181818" points="1018.55,648.0271,1031.55,653.2271,1018.55,658.4271" style="stroke:#181818;stroke-width:1.3;"/><line style="stroke:#181818;stroke-width:1.3;" x1="700.7" x2="1026.35" y1="653.2271" y2="653.2271"/><text fill="#000000" font-family="sans-serif" font-size="16.9" lengthAdjust="spacing" textLength="254.8" x="709.8" y="646.3856">addExerciseLog(newExerciseLog)</text><polygon fill="#181818" points="715,666.2271,702,671.4271,715,676.6271" style="stroke:#181818;stroke-width:1.3;"/><line style="stroke:#181818;stroke-width:1.3;stroke-dasharray:2.0,2.0;" x1="707.2" x2="1039.35" y1="671.4271" y2="671.4271"/><polygon fill="#181818" points="146.9,684.4271,133.9,689.6271,146.9,694.8271" style="stroke:#181818;stroke-width:1.3;"/><line style="stroke:#181818;stroke-width:1.3;stroke-dasharray:2.0,2.0;" x1="139.1" x2="686.4" y1="689.6271" y2="689.6271"/><!--SRC=[jPGzRuCm48PtVeMLAP68r9cXKgHsY9HMbJfqTis9Me11zX6I_leUb81Zm4tJb272FkTzxkCr9fMgv9hdJ6JSc0sYbkyLmbOKwbL-0hiBJ7_4u343-jLIO9LdGK3RA8KikKAsYDu0qkpueek43ZznnHFGYo3W0kMU8pGd2fqM5UwAnFHnEpmfmEYPYR7r_MmeOd00GQKGRKECGhLADy2DYo0OZ-CXiAo_Nny85B9kySnpMBNoGeFRZmNZXWtBKnOJACfXs2QmWle7N5-oes_9h3sLQS1AguRZ_3-6EUNPp3tTMvu1LgDXJLZ7WvfZkObVANnZvpmUG0jfO6GTw0BDC6co89CF39a1D27DfGIKZR4TLrbghQsijNywri7EM5DyivEcIsAhiCsZtN96vb9jySlivYfOOxku90z5IzZ3gTqKRZh-NxQBM3rxTtuDSJu0Zd_E6_VtBy1rLzrpJRu0]--></g></svg>